<?xml version="1.0" encoding="utf-8"?>
<!-- Generator: Adobe Illustrator 16.0.4, SVG Export Plug-In . SVG Version: 6.00 Build 0)  -->
<!DOCTYPE svg PUBLIC "-//W3C//DTD SVG 1.1//EN" "http://www.w3.org/Graphics/SVG/1.1/DTD/svg11.dtd">
<svg version="1.1" id="Capa_1" xmlns="http://www.w3.org/2000/svg" xmlns:xlink="http://www.w3.org/1999/xlink" x="0px" y="0px"
	 width="512px" height="512px" viewBox="0 0 512 512" enable-background="new 0 0 512 512" xml:space="preserve">
<g>
	<path fill="#C4946B" d="M481.5,212.994h-91.976c10.087-11.928,19.608-21.99,28.876-30.522c16.62-15.302,33.766-30.308,51.04-44.688
		c9.812,8.933,25.638,8.53,35.09-0.92c9.809-9.806,9.785-26.375,0.001-36.062L411.193,7.463c-9.943-9.942-26.12-9.942-36.063,0
		c-9.635,9.636-9.932,25.129-0.891,35.125c-14.547,17.71-29.761,35.25-45.308,52.208c-5.16,5.628-10.634,11.097-16.542,16.527
		c-0.775-5.279-1.872-10.543-3.327-15.759c-1.617-5.784-6.22-10.384-12.017-12.004c-43.937-12.266-91.404-0.042-123.888,31.895
		c-2.954,2.904-2.994,7.653-0.09,10.606c2.904,2.954,7.654,2.993,10.604,0.09c28.665-28.185,70.561-38.97,109.337-28.145
		c0.765,0.213,1.395,0.84,1.604,1.591c11.422,40.852-1.172,84.804-32.359,113.396h-69.592l54.936-51.509
		c3.021-2.833,3.175-7.58,0.341-10.601c-2.831-3.021-7.577-3.175-10.602-0.341l-58.572,54.919
		c-0.211-33.389-13.395-65.244-37.374-89.232C108.846,83.696,61.076,71.18,16.724,83.559c-5.796,1.616-10.401,6.216-12.021,12.008
		c-11.492,41.181-1.519,85.287,25.988,117.426H30.5c-16.816,0-30.5,13.682-30.5,30.5c0,14.05,9.553,25.903,22.5,29.428v17.572
		c0,86.181,60.048,158.593,140.5,177.614v6.386c0,20.678,16.822,37.5,37.5,37.5h111c20.679,0,37.5-16.822,37.5-37.5v-6.349
		c39.574-9.28,75.097-31.6,101.05-64.312c2.573-3.245,2.029-7.962-1.215-10.537c-3.245-2.576-7.964-2.031-10.537,1.214
		c-24.944,31.442-59.518,52.432-97.908,60.164c-0.235,0.035-0.467,0.08-0.693,0.136c-10.65,2.099-21.589,3.184-32.696,3.184H205
		c-92.358,0-167.5-75.14-167.5-167.5v-16.5h437.001v16.5c0,26.767-6.122,52.34-18.196,76.007c-1.883,3.689-0.417,8.207,3.271,10.089
		c3.625,1.849,8.184,0.463,10.09-3.271c13.16-25.799,19.835-53.665,19.835-82.824v-17.572c12.947-3.524,22.5-15.378,22.5-29.428
		C512.001,226.676,498.317,212.994,481.5,212.994L481.5,212.994z M178,470.994c8.813,1.312,17.827,2,27,2h102
		c9.124,0,18.142-0.68,27-1.988v3.488c0,12.407-10.094,22.5-22.5,22.5h-111c-12.405,0-22.5-10.093-22.5-22.5V470.994z
		 M385.736,18.07c4.095-4.094,10.757-4.094,14.85,0l93.34,93.339c4.041,4.001,4.039,10.811-0.001,14.849
		c-4.042,4.04-10.848,4.042-14.849,0L385.737,32.92C381.643,28.825,381.644,22.163,385.736,18.07z M313.742,130.152
		c9.696-8.293,18.316-16.568,26.247-25.219c15.389-16.787,30.46-34.135,44.889-51.66l73.884,73.882
		c-17.1,14.264-34.065,29.131-50.521,44.281c-12.16,11.196-24.667,24.817-38.16,41.558h-87.004
		C302.957,189.763,313.672,160.277,313.742,130.152L313.742,130.152z M19.152,99.603c0.215-0.768,0.829-1.379,1.604-1.596
		c39.146-10.928,81.312,0.119,110.028,28.829c22.929,22.937,34.682,54.025,32.795,86.158h-20.544L76.43,150.543
		c-3.023-2.834-7.771-2.68-10.603,0.341c-2.833,3.021-2.68,7.768,0.342,10.601l54.937,51.509H51.513
		C20.328,184.421,7.744,140.39,19.152,99.603z M481.5,258.994h-451c-8.547,0-15.5-6.953-15.5-15.5s6.953-15.5,15.5-15.5h451
		c8.548,0,15.5,6.953,15.5,15.5S490.048,258.994,481.5,258.994z M78.391,305.611c-0.488-4.114-4.224-7.053-8.331-6.564
		c-4.113,0.488-7.054,4.218-6.565,8.331C71.986,378.991,132.82,432.994,205,432.994c4.144,0,7.5-3.358,7.5-7.5
		c0-4.143-3.356-7.5-7.5-7.5C140.418,417.994,85.987,369.68,78.391,305.611z"/>
</g>
</svg>
