<?xml version="1.0" encoding="utf-8"?>
<!-- Generator: Adobe Illustrator 16.0.4, SVG Export Plug-In . SVG Version: 6.00 Build 0)  -->
<!DOCTYPE svg PUBLIC "-//W3C//DTD SVG 1.0//EN" "http://www.w3.org/TR/2001/REC-SVG-20010904/DTD/svg10.dtd">
<svg version="1.0" id="Layer_1" xmlns="http://www.w3.org/2000/svg" xmlns:xlink="http://www.w3.org/1999/xlink" x="0px" y="0px"
	 width="750px" height="197.521px" viewBox="0 568.239 750 197.521" enable-background="new 0 568.239 750 197.521"
	 xml:space="preserve">
<g>
	<g>
		<path fill="#F05A28" d="M95.464,714.337c-0.791,0-1.318-0.264-1.846-1.056c-0.527-0.791-0.527-1.582,0-2.109
			c0-0.264,2.374-4.22,0-8.702c-0.791-1.319-2.374-3.165-4.219-5.538c-6.593-7.647-17.405-20.834-17.405-35.602
			c0-8.966,3.692-16.351,10.548-21.097c5.011-3.429,12.131-5.538,18.724-5.538c11.867,0,24.789,9.229,24.789,24.262
			c0,0.264,0.264,10.548-10.548,21.36c-9.494,9.494-12.922,18.46-12.922,23.734C102.321,710.117,98.365,714.073,95.464,714.337
			L95.464,714.337z M101.002,638.65c-8.702,0-25.053,4.747-25.053,22.416c0,13.449,10.285,25.58,16.614,32.964
			c2.109,2.638,3.956,4.747,4.747,6.329c0.527,0.791,0.791,1.583,1.055,2.11c0.528-6.329,4.22-15.823,13.977-25.316
			c9.494-9.23,9.23-18.196,9.23-18.196C121.572,646.562,110.759,638.65,101.002,638.65z"/>
		<path fill="#F05A28" d="M97.046,713.545c-0.791,0-1.318-0.264-1.846-1.055c-0.527-1.055-0.264-2.373,0.792-2.9
			c22.416-13.186,20.042-34.811,20.042-35.602c-0.264-1.055,0.791-2.109,1.846-2.373c1.055-0.264,2.109,0.791,2.373,1.846
			c0,0.264,2.901,25.316-21.888,39.82C97.837,713.281,97.574,713.545,97.046,713.545z"/>
		<path fill="#F05A28" d="M112.605,641.815L112.605,641.815c-1.318,0-2.11-1.055-2.11-2.109c0,0,0-2.11-1.846-3.956
			c-1.846-1.846-5.011-2.9-9.23-2.9c-4.22,0-7.384,1.055-9.23,2.9c-1.846,1.846-1.846,3.692-1.846,3.956
			c0,1.055-0.791,2.109-2.109,2.109l0,0c-1.055,0-2.11-0.791-2.11-2.109c0-0.264,0-3.692,2.901-6.856
			c2.637-2.901,6.856-4.22,12.395-4.22s9.757,1.318,12.395,4.22c2.901,2.9,2.901,6.329,2.901,6.856
			C114.715,641.024,113.66,641.815,112.605,641.815z"/>
		<path fill="#F05A28" d="M106.54,632.586L106.54,632.586c-1.055,0-1.582-0.792-1.582-1.583c0-0.264-0.264-3.164-5.538-3.164
			c-2.11,0-3.956,0.527-4.747,1.318c-0.791,0.791-0.791,1.582-0.791,1.582c0,1.055-0.791,1.582-1.582,1.847
			c-1.055,0-1.583-0.792-1.846-1.583c0-0.264,0-2.373,1.846-4.219c1.582-1.583,3.956-2.374,7.12-2.374s5.538,0.791,7.12,2.374
			c1.846,1.846,1.846,3.955,1.846,4.219C108.123,631.794,107.595,632.586,106.54,632.586z"/>
		<path fill="#F05A28" d="M95.992,625.992c-0.792,0-1.319-0.527-1.319-1.318c0-0.264,0-1.846,1.319-3.164
			c0.791-0.791,2.109-1.318,3.428-1.318c1.582,0,2.637,0.527,3.428,1.318c1.318,1.318,1.318,2.9,1.318,3.164
			c0,0.791-0.527,1.318-1.318,1.318l0,0c-0.791,0-1.319-0.527-1.319-1.318c0-0.527-0.264-1.846-2.109-1.846
			c-0.791,0-1.319,0.264-1.583,0.527c-0.527,0.527-0.527,1.318-0.527,1.318C97.046,625.465,96.519,625.992,95.992,625.992
			L95.992,625.992z"/>
		<path fill="#F05A28" d="M98.629,721.721c-30.063,0-54.853-24.525-54.853-54.853c0-30.063,24.525-54.853,54.853-54.853
			c30.327,0,54.852,24.789,54.852,54.853C153.481,697.195,128.956,721.721,98.629,721.721z M98.629,616.499
			c-27.954,0-50.633,22.68-50.633,50.633c0,27.954,22.68,50.633,50.633,50.633c27.953,0,50.633-22.943,50.633-50.896
			C149.262,639.179,126.582,616.499,98.629,616.499z"/>
		<path fill="#F05A28" d="M98.629,736.488c-38.239,0-69.621-31.118-69.621-69.62s31.382-69.62,69.621-69.62
			c38.238,0,69.62,31.118,69.62,69.62S137.131,736.488,98.629,736.488z M98.629,601.467c-36.129,0-65.401,29.272-65.401,65.401
			s29.272,65.4,65.401,65.4c36.128,0,65.4-29.271,65.4-65.4S134.757,601.467,98.629,601.467z"/>
		<g>
			<path fill="#F05A28" d="M101.793,606.741c0,1.583-1.318,3.165-3.164,3.165c-1.846,0-3.165-1.318-3.165-3.165
				c0-1.582,1.319-3.164,3.165-3.164C100.475,603.577,101.793,605.159,101.793,606.741z M98.629,724.094
				c-1.583,0-3.165,1.318-3.165,3.165c0,1.846,1.319,3.164,3.165,3.164c1.846,0,3.165-1.318,3.165-3.164
				C101.793,725.412,100.475,724.094,98.629,724.094z"/>
			<path fill="#F05A28" d="M91.245,607.269c0.264,1.583-0.791,3.165-2.374,3.429c-1.582,0.264-3.165-0.791-3.428-2.373
				c-0.264-1.583,0.792-3.165,2.374-3.429C89.399,604.368,90.981,605.687,91.245,607.269z M108.65,723.039
				c-1.583,0.264-2.637,1.846-2.374,3.428c0.264,1.583,1.846,2.901,3.428,2.374c1.583-0.264,2.637-1.846,2.374-3.429
				C111.814,723.83,110.232,722.775,108.65,723.039z"/>
			<path fill="#F05A28" d="M80.96,609.379c0.527,1.582-0.264,3.428-1.846,3.955c-1.582,0.527-3.428-0.264-3.956-1.846
				s0.264-3.428,1.846-3.956C78.586,607.005,80.433,607.797,80.96,609.379z M118.144,720.666c-1.583,0.527-2.374,2.373-1.846,3.955
				s2.374,2.374,3.956,1.846c1.583-0.527,2.374-2.373,1.846-3.955C121.572,720.666,119.726,719.874,118.144,720.666z"/>
			<path fill="#F05A28" d="M71.203,613.334c0.791,1.583,0.264,3.429-1.055,4.22c-1.582,0.791-3.428,0.264-4.219-1.055
				c-0.791-1.582-0.264-3.429,1.055-4.22C68.565,611.488,70.411,612.016,71.203,613.334z M127.11,716.446
				c-1.583,0.791-1.846,2.637-1.055,4.22c0.792,1.582,2.637,1.846,4.22,1.055c1.582-0.791,1.846-2.638,1.055-4.22
				S128.692,715.392,127.11,716.446z"/>
			<path fill="#F05A28" d="M62.5,618.872c1.055,1.319,0.791,3.165-0.264,4.22s-3.165,0.791-4.22-0.264
				c-1.055-1.055-0.791-3.165,0.264-4.22C59.335,617.554,61.445,617.554,62.5,618.872z M135.285,710.645
				c-1.318,1.055-1.582,2.9-0.264,4.22c1.055,1.318,2.901,1.582,4.219,0.264c1.319-1.056,1.583-2.901,0.264-4.22
				C138.713,709.854,136.604,709.59,135.285,710.645z"/>
			<path fill="#F05A28" d="M54.588,625.992c1.319,1.056,1.583,2.901,0.264,4.22c-1.055,1.318-2.901,1.582-4.22,0.264
				c-1.318-1.318-1.582-2.9-0.264-4.22C51.688,624.938,53.27,624.938,54.588,625.992z M142.405,703.524
				c-1.055,1.318-0.792,3.164,0.264,4.22c1.318,1.055,3.165,0.791,4.219-0.265c1.055-1.318,0.791-3.164-0.264-4.219
				C145.306,702.206,143.46,702.206,142.405,703.524z"/>
			<path fill="#F05A28" d="M48.259,634.168c1.583,0.791,1.846,2.637,1.055,4.219c-0.792,1.583-2.637,1.847-4.22,1.056
				c-1.582-0.792-1.846-2.638-1.055-4.22C44.831,633.904,46.677,633.377,48.259,634.168z M148.207,695.35
				c-0.791,1.582-0.264,3.428,1.055,4.219c1.582,0.791,3.428,0.264,4.219-1.055s0.264-3.428-1.055-4.22
				C150.844,693.503,148.998,694.03,148.207,695.35z"/>
			<path fill="#F05A28" d="M43.249,643.661c1.582,0.527,2.374,2.374,1.846,3.956c-0.527,1.582-2.373,2.373-3.956,1.846
				c-1.582-0.527-2.374-2.373-1.846-3.955C40.084,643.661,41.667,642.87,43.249,643.661z M152.426,686.383
				c-0.527,1.582,0.264,3.429,1.846,3.956c1.583,0.527,3.428-0.264,3.956-1.847c0.527-1.582-0.264-3.428-1.846-3.955
				C154.536,684.01,152.954,684.801,152.426,686.383z"/>
			<path fill="#F05A28" d="M40.084,653.419c1.582,0.264,2.901,1.846,2.374,3.428c-0.264,1.583-1.846,2.638-3.429,2.374
				c-1.582-0.264-2.9-1.847-2.373-3.429C36.92,654.21,38.502,653.155,40.084,653.419z M154.8,676.89
				c-0.264,1.582,0.791,3.164,2.373,3.428c1.583,0.264,3.165-0.791,3.428-2.373c0.264-1.583-0.791-3.165-2.373-3.429
				C156.646,673.988,155.063,675.307,154.8,676.89z"/>
			<path fill="#F05A28" d="M38.502,663.967c1.583,0,3.165,1.319,3.165,3.165c0,1.582-1.318,3.165-3.165,3.165
				c-1.582,0-3.165-1.319-3.165-3.165S36.92,663.967,38.502,663.967z M155.854,666.868c0,1.582,1.318,3.165,3.165,3.165
				c1.582,0,3.165-1.319,3.165-3.165s-1.319-3.165-3.165-3.165C157.173,663.967,155.854,665.286,155.854,666.868z"/>
			<path fill="#F05A28" d="M39.029,674.252c1.583-0.264,3.165,0.791,3.429,2.374c0.264,1.582-0.792,3.164-2.374,3.428
				c-1.583,0.264-3.165-0.791-3.428-2.373C36.129,676.361,37.447,674.779,39.029,674.252z M154.8,657.11
				c0.264,1.583,1.846,2.638,3.428,2.374c1.582-0.264,2.901-1.846,2.373-3.429c-0.264-1.582-1.846-2.637-3.428-2.373
				C155.591,653.683,154.536,655.265,154.8,657.11z"/>
			<path fill="#F05A28" d="M41.139,684.537c1.583-0.527,3.428,0.264,3.956,1.846c0.528,1.582-0.264,3.429-1.846,3.956
				c-1.583,0.527-3.428-0.264-3.956-1.847C38.766,686.91,39.557,685.328,41.139,684.537z M152.426,647.354
				c0.527,1.582,2.374,2.373,3.956,1.846s2.374-2.373,1.846-3.955c-0.528-1.583-2.374-2.374-3.956-1.847
				C152.426,644.188,151.635,645.771,152.426,647.354z"/>
			<path fill="#F05A28" d="M45.095,694.294c1.583-0.791,3.428-0.264,4.22,1.056c0.791,1.582,0.264,3.428-1.055,4.219
				c-1.582,0.791-3.428,0.264-4.219-1.055C43.249,696.932,43.776,695.086,45.095,694.294z M148.207,638.387
				c0.792,1.583,2.637,1.847,4.22,1.056c1.582-0.792,1.846-2.638,1.055-4.22s-2.637-1.846-4.219-1.055
				C147.679,635.223,147.152,637.068,148.207,638.387z"/>
			<path fill="#F05A28" d="M50.633,703.261c1.319-1.055,3.165-0.791,4.22,0.264c1.055,1.318,0.791,3.164-0.264,4.22
				c-1.318,1.055-3.165,0.791-4.219-0.265C49.314,706.161,49.314,704.315,50.633,703.261z M142.405,630.212
				c1.055,1.318,2.9,1.582,4.219,0.264c1.318-1.055,1.582-2.9,0.264-4.22c-1.055-1.318-2.901-1.582-4.219-0.264
				C141.35,627.312,141.35,628.894,142.405,630.212z"/>
			<path fill="#F05A28" d="M57.753,710.908c1.055-1.318,2.901-1.582,4.22-0.264c1.318,1.055,1.582,2.9,0.264,4.22
				c-1.055,1.318-2.901,1.582-4.22,0.264C56.962,714.337,56.698,712.227,57.753,710.908z M135.285,623.355
				c1.319,1.055,3.165,0.791,4.22-0.264c1.055-1.318,0.791-3.165-0.264-4.22c-1.318-1.055-3.164-0.791-4.219,0.264
				C133.966,620.191,133.966,622.301,135.285,623.355z"/>
			<path fill="#F05A28" d="M65.928,717.501c0.791-1.582,2.637-1.846,4.219-1.055c1.583,0.791,1.846,2.637,1.055,4.22
				c-0.792,1.582-2.637,1.846-4.22,1.055C65.665,720.666,65.137,718.819,65.928,717.501z M127.11,617.554
				c1.582,0.791,3.428,0.264,4.219-1.055c0.791-1.582,0.264-3.429-1.055-4.22c-1.319-0.791-3.428-0.264-4.22,1.055
				C125.264,614.917,125.791,616.763,127.11,617.554z"/>
			<path fill="#F05A28" d="M75.422,722.248c0.527-1.582,2.374-2.374,3.956-1.846c1.583,0.527,2.374,2.373,1.846,3.955
				s-2.374,2.374-3.956,1.846C75.422,725.676,74.631,723.83,75.422,722.248z M118.144,613.334c1.582,0.527,3.428-0.264,3.956-1.846
				s-0.264-3.428-1.846-3.956c-1.582-0.527-3.428,0.265-3.956,1.847S116.561,612.807,118.144,613.334z"/>
			<path fill="#F05A28" d="M85.179,725.676c0.264-1.582,1.846-2.9,3.428-2.373c1.583,0.264,2.901,1.846,2.374,3.429
				c-0.264,1.582-1.846,2.637-3.428,2.373C85.97,728.841,84.916,727.259,85.179,725.676z M108.65,610.697
				c1.582,0.264,3.165-0.791,3.428-2.373c0.264-1.583-0.791-3.165-2.374-3.429c-1.582-0.264-3.165,0.791-3.428,2.373
				C105.749,608.852,107.067,610.434,108.65,610.697z"/>
		</g>
		<path fill="#F05A28" d="M36.393,643.134c-0.264,0-0.528,0-0.792-0.264c-2.637-1.055-15.295-7.12-11.603-22.151
			c0.791-2.901,2.109-5.538,3.692-8.176c3.165-5.802,4.747-9.229,1.318-12.395c-0.791-0.791-0.791-2.109,0-2.9s2.11-0.791,2.901,0
			c3.428,3.428,6.856,1.846,12.395-1.318c2.637-1.319,5.274-2.901,8.175-3.692c15.032-3.692,21.097,8.966,22.152,11.604
			c0.527,1.055,0,2.373-1.055,2.637c-1.055,0.527-2.374,0-2.637-1.055c-1.055-2.9-5.802-11.867-17.405-9.229
			c-2.374,0.527-4.747,1.846-7.12,3.164c-3.428,1.846-7.384,4.22-11.604,3.692c0.527,3.955-1.846,7.911-3.692,11.604
			c-1.319,2.373-2.637,4.746-3.165,7.12c-2.901,11.34,6.329,16.086,9.23,17.405c1.055,0.527,1.582,1.582,1.055,2.637
			C37.975,642.606,37.184,643.134,36.393,643.134z"/>
		<path fill="#F05A28" d="M139.504,742.554c-11.34,0-16.087-10.021-16.878-12.395c-0.527-1.055,0-2.373,1.055-2.637
			c1.055-0.527,2.373,0,2.637,1.055c1.055,2.9,5.802,11.867,17.405,9.229c2.374-0.527,4.747-1.846,7.12-3.164
			c3.428-1.846,7.384-4.22,11.604-3.692c-0.527-3.955,1.846-8.175,3.692-11.604c1.319-2.373,2.637-4.746,3.165-7.12
			c2.901-11.34-6.329-16.086-9.23-17.405c-1.055-0.527-1.582-1.582-1.055-2.637s1.582-1.582,2.637-1.055
			c2.637,1.055,15.295,7.12,11.603,22.151c-0.527,2.638-1.846,5.274-3.428,7.912c-3.165,5.802-4.747,9.229-1.318,12.658
			c0.791,0.791,0.791,2.109,0,2.9s-2.11,0.791-2.901,0c-3.428-3.428-6.856-1.846-12.395,1.318c-2.637,1.319-5.274,2.901-8.175,3.692
			C142.933,742.29,141.086,742.554,139.504,742.554z"/>
		<path fill="#F05A28" d="M28.745,696.404c-5.01,0-11.076-1.847-15.559-9.23c-1.582-2.637-2.374-5.538-3.165-8.438
			c-1.846-6.329-3.165-9.758-7.911-9.758c-1.055,0-2.11-1.055-2.11-2.109s1.055-2.109,2.11-2.109l0,0
			c4.747,0,6.065-3.429,7.911-9.758c0.791-2.9,1.583-5.802,3.165-8.438c7.912-13.186,21.361-8.703,23.998-7.384
			c1.055,0.527,1.582,1.582,1.055,2.637s-1.582,1.582-2.637,1.055c-2.901-1.055-12.658-4.22-18.724,5.802
			c-1.318,2.109-2.109,4.747-2.901,7.384c-1.055,3.692-2.373,8.176-5.538,10.812c3.165,2.637,4.483,6.856,5.538,10.812
			c0.792,2.637,1.583,5.274,2.901,7.384c6.065,10.021,15.823,6.856,18.724,5.802c1.055-0.527,2.374,0,2.637,1.055
			c0.527,1.055,0,2.373-1.055,2.637C35.865,695.35,32.7,696.404,28.745,696.404z"/>
		<path fill="#F05A28" d="M168.776,696.404c-3.956,0-7.384-1.318-8.439-1.583c-1.055-0.527-1.582-1.582-1.055-2.637
			s1.582-1.582,2.637-1.055c2.901,1.055,12.658,4.22,18.724-5.802c1.318-2.109,2.109-4.747,2.901-7.384
			c1.055-3.692,2.374-8.176,5.538-10.812c-3.164-2.637-4.483-6.856-5.538-10.812c-0.792-2.637-1.583-5.274-2.901-7.384
			c-6.065-10.021-15.823-6.856-18.724-5.802c-1.055,0.527-2.374,0-2.637-1.055c-0.527-1.055,0-2.373,1.055-2.637
			c2.637-1.056,15.823-5.802,23.998,7.384c1.583,2.637,2.374,5.538,3.165,8.438c1.846,6.329,3.165,9.758,7.911,9.758
			c1.055,0,2.11,1.055,2.11,2.109s-1.055,2.109-2.11,2.109c-4.747,0-6.065,3.429-7.911,9.758c-0.791,2.9-1.582,5.802-3.165,8.438
			C179.853,694.558,173.787,696.404,168.776,696.404z"/>
		<path fill="#F05A28" d="M57.753,742.554c-1.582,0-3.428-0.264-5.274-0.791c-2.901-0.791-5.538-2.109-8.175-3.692
			c-5.802-3.164-9.23-4.746-12.395-1.318c-0.791,0.791-2.11,0.791-2.901,0c-0.527-0.527-0.527-1.055-0.527-1.582
			s0.264-1.055,0.527-1.582c3.428-3.429,1.846-6.856-1.318-12.395c-1.319-2.638-2.901-5.274-3.692-8.176
			c-3.692-15.031,8.966-21.097,11.603-22.151c1.055-0.527,2.374,0,2.637,1.055c0.527,1.055,0,2.373-1.055,2.637
			c-2.901,1.056-11.867,5.802-9.23,17.405c0.527,2.374,1.846,4.747,3.165,7.12c1.846,3.429,4.219,7.384,3.692,11.604
			c3.956-0.527,8.175,1.847,11.604,3.692c2.374,1.318,4.747,2.637,7.12,3.164c11.34,2.901,16.086-6.329,17.405-9.229
			c0.527-1.055,1.582-1.582,2.637-1.055c1.055,0.527,1.582,1.582,1.055,2.637C73.84,732.533,69.093,742.554,57.753,742.554z"/>
		<path fill="#F05A28" d="M161.129,643.134c-0.792,0-1.583-0.527-1.846-1.318c-0.527-1.055,0-2.373,1.055-2.637
			c2.901-1.056,11.867-5.802,9.23-17.405c-0.527-2.374-1.846-4.747-3.165-7.12c-1.846-3.429-4.219-7.385-3.692-11.604
			c-3.956,0.527-7.911-1.847-11.604-3.692c-2.373-1.318-4.747-2.637-7.12-3.164c-11.34-2.901-16.086,6.329-17.405,9.229
			c-0.527,1.055-1.582,1.582-2.637,1.055c-1.055-0.527-1.583-1.582-1.055-2.637c1.055-2.638,7.121-15.296,22.152-11.604
			c2.637,0.527,5.274,2.109,7.912,3.429c5.802,3.164,9.23,4.746,12.395,1.318c0.791-0.791,2.11-0.791,2.901,0
			c0.527,0.527,0.527,1.055,0.527,1.582s-0.264,1.055-0.527,1.582c-3.428,3.429-1.846,6.856,1.318,12.395
			c1.319,2.638,2.901,5.274,3.692,8.176c3.692,15.031-8.966,21.097-11.603,22.151C161.656,643.134,161.393,643.134,161.129,643.134z
			"/>
		<path fill="#F05A28" d="M98.629,765.761L98.629,765.761c-1.055,0-2.11-1.055-2.11-2.11c0-4.746-3.428-6.064-9.757-7.911
			c-2.901-0.791-5.802-1.582-8.439-3.164c-13.186-7.912-8.703-21.361-7.384-23.998c0.527-1.055,1.582-1.582,2.637-1.055
			c1.055,0.527,1.582,1.582,1.055,2.637c-1.055,2.901-4.22,12.658,5.802,18.724c2.109,1.318,4.747,2.109,7.384,2.901
			c3.692,1.055,8.175,2.373,10.812,5.537c2.637-3.164,6.856-4.482,10.812-5.537c2.637-0.792,5.274-1.583,7.384-2.901
			c10.021-6.065,6.857-15.822,5.802-18.724c-0.527-1.055,0-2.373,1.055-2.637c1.055-0.527,2.373,0,2.637,1.055
			c1.055,2.637,5.802,15.822-7.384,23.998c-2.637,1.582-5.538,2.373-8.439,3.164c-6.329,1.847-9.757,3.165-9.757,7.911
			C100.738,764.706,99.947,765.761,98.629,765.761z"/>
		<path fill="#F05A28" d="M72.785,606.741c-0.791,0-1.582-0.527-1.846-1.318c-1.055-2.637-5.802-15.822,7.384-23.998
			c2.637-1.582,5.538-2.373,8.439-3.164c6.329-1.847,9.757-3.165,9.757-7.911c0-1.056,1.055-2.11,2.11-2.11l0,0
			c1.055,0,2.109,1.055,2.109,2.11c0,4.746,3.428,6.064,9.757,7.911c2.901,0.791,5.802,1.582,8.439,3.164
			c13.186,7.912,8.703,21.361,7.384,23.998c-0.527,1.055-1.582,1.582-2.637,1.055c-1.055-0.527-1.583-1.582-1.055-2.637
			c1.055-2.901,4.22-12.658-5.802-18.724c-2.109-1.318-4.747-2.109-7.384-2.901c-3.692-1.055-8.175-2.373-10.812-5.537
			c-2.637,3.164-6.857,4.482-10.812,5.537c-2.637,0.792-5.274,1.583-7.384,2.901c-10.021,6.065-6.856,15.822-5.802,18.724
			c0.527,1.055,0,2.373-1.055,2.637C73.312,606.478,73.048,606.741,72.785,606.741z"/>
	</g>
	<g>
		<g>
			<path fill="#231F20" d="M225.738,658.957v-59.072h3.692l38.239,44.04v-44.04h7.384v59.072h-3.428l-38.502-44.04v44.04H225.738z"
				/>
			<path fill="#231F20" d="M292.985,658.957v-59.336h7.384v59.336H292.985z"/>
			<path fill="#231F20" d="M317.774,658.957v-59.072h34.019c5.802,0,10.285,1.318,13.713,4.483c3.165,2.9,5.011,6.856,5.011,12.131
				c0,4.22-1.318,7.911-3.955,11.076c-2.638,3.164-6.065,5.011-10.285,5.802l14.768,25.844h-8.175l-14.768-25.844h-22.943v25.844
				h-7.384V658.957z M325.158,626.256h26.107c3.692,0,6.593-0.791,8.439-2.373c1.846-1.582,2.9-3.956,2.9-7.12
				c0-3.165-1.055-5.538-2.9-7.384c-1.847-1.847-4.483-2.638-8.176-2.638h-26.371V626.256L325.158,626.256z"/>
			<path fill="#231F20" d="M370.78,658.957l29.009-59.072h6.065l29.272,59.072h-7.912l-7.911-15.823h-32.7l-7.911,15.823H370.78z
				 M390.031,636.277h26.108l-13.187-26.107L390.031,636.277z"/>
			<path fill="#231F20" d="M433.544,658.957l29.009-59.072h6.065l29.272,59.072h-7.912l-7.911-15.823h-32.7l-7.911,15.823H433.544z
				 M452.531,636.277h26.108l-13.187-26.107L452.531,636.277z"/>
			<path fill="#231F20" d="M506.593,658.957v-59.072h6.856l23.998,36.129l23.998-36.129h6.593v59.072h-7.384v-46.15l-23.471,35.074
				l-23.471-35.074v46.15H506.593z"/>
			<path fill="#231F20" d="M576.213,658.957l29.009-59.072h6.065l29.271,59.072h-7.911l-7.911-15.823h-32.7l-7.911,15.823H576.213z
				 M595.464,636.277h26.108l-13.187-26.107L595.464,636.277z"/>
			<path fill="#231F20" d="M659.547,658.957v-29.536l-26.636-29.536h9.23l21.097,23.207l21.098-23.207h9.229l-26.635,29.536v29.536
				H659.547L659.547,658.957z"/>
			<path fill="#231F20" d="M685.654,658.957l29.008-59.072h6.065L750,658.957h-7.911l-7.911-15.823h-32.701l-7.911,15.823H685.654z
				 M704.905,636.277h26.107l-13.186-26.107L704.905,636.277z"/>
		</g>
		<g>
			<g>
				<path fill="#231F20" d="M286.393,733.061l23.207-47.205h5.01l23.471,47.205h-6.329l-6.329-12.658h-26.107l-6.329,12.658H286.393
					z M301.688,714.864h20.834l-10.549-20.834L301.688,714.864z"/>
				<path fill="#231F20" d="M352.848,733.061v-23.734l-21.36-23.471h7.384l16.878,18.724l16.878-18.724h7.384l-21.361,23.734v23.734
					h-5.802V733.061z"/>
				<path fill="#231F20" d="M387.658,685.855v30.591c0,5.011,1.055,8.175,2.637,9.757c1.847,1.583,5.538,2.638,10.812,2.638
					s8.967-0.791,10.812-2.638c1.846-1.582,2.637-5.01,2.637-9.757v-30.591h5.802v32.173c0,5.802-1.582,10.021-4.482,12.658
					c-2.901,2.638-7.912,3.692-15.032,3.692c-6.856,0-11.867-1.318-15.031-3.692c-2.901-2.637-4.483-6.593-4.483-12.658v-32.173
					H387.658z"/>
				<path fill="#231F20" d="M433.544,733.061v-47.205h27.163c4.746,0,8.175,1.055,10.812,3.429c2.638,2.373,3.956,5.537,3.956,9.757
					c0,3.429-1.055,6.329-3.164,8.703c-2.11,2.373-4.747,3.955-8.176,4.482l11.867,20.834h-6.593l-11.867-20.57h-18.46v20.57
					H433.544z M439.346,706.952h20.834c2.9,0,5.273-0.527,6.856-1.846c1.582-1.318,2.373-3.164,2.373-5.802
					c0-2.373-0.791-4.483-2.373-5.802c-1.583-1.318-3.692-2.109-6.329-2.109h-21.098v15.559H439.346z"/>
				<path fill="#231F20" d="M505.011,733.061h-3.692l-22.679-47.205h6.329l18.195,37.975l18.196-37.975h6.593L505.011,733.061z"/>
				<path fill="#231F20" d="M534.283,733.061v-47.205h37.184v5.538h-31.383v13.977h18.988v5.274h-18.988v17.142h33.229v5.538
					h-39.029V733.061z"/>
				<path fill="#231F20" d="M602.584,685.855c7.385,0,13.45,2.109,17.933,6.593c4.483,4.483,6.856,10.021,6.856,17.142
					s-2.373,12.922-6.856,17.142c-4.482,4.219-10.548,6.329-18.196,6.329h-20.306v-47.205H602.584z M602.584,691.13H588.08v36.393
					h14.504c5.802,0,10.285-1.583,13.714-5.011c3.428-3.165,5.01-7.647,5.01-13.186s-1.582-10.021-5.01-13.186
					C612.869,692.976,608.122,691.13,602.584,691.13z"/>
				<path fill="#231F20" d="M628.956,733.061l23.206-47.205h5.011l23.471,47.205h-6.329l-6.329-12.658h-26.107l-6.329,12.658
					H628.956z M644.251,714.864h20.833l-10.548-20.834L644.251,714.864z"/>
			</g>
		</g>
	</g>
</g>
</svg>
