<?xml version="1.0" encoding="utf-8"?>
<!-- Generator: Adobe Illustrator 16.0.4, SVG Export Plug-In . SVG Version: 6.00 Build 0)  -->
<!DOCTYPE svg PUBLIC "-//W3C//DTD SVG 1.0//EN" "http://www.w3.org/TR/2001/REC-SVG-20010904/DTD/svg10.dtd">
<svg version="1.0" id="Layer_1" xmlns="http://www.w3.org/2000/svg" xmlns:xlink="http://www.w3.org/1999/xlink" x="0px" y="0px"
	 width="701.985px" height="83.77px" viewBox="0 22.687 701.985 83.77" enable-background="new 0 22.687 701.985 83.77"
	 xml:space="preserve">
<g>
	<g>
		<path fill="#F05A28" d="M40.487,84.647c-0.335,0-0.559-0.112-0.783-0.447c-0.224-0.335-0.224-0.671,0-0.894
			c0-0.113,1.007-1.791,0-3.691c-0.335-0.559-1.006-1.342-1.789-2.348c-2.796-3.243-7.381-8.836-7.381-15.099
			c0-3.803,1.566-6.935,4.473-8.948c2.125-1.454,5.145-2.349,7.941-2.349c5.033,0,10.514,3.914,10.514,10.29
			c0,0.113,0.112,4.474-4.474,9.059c-4.026,4.026-5.48,7.83-5.48,10.066C43.395,82.859,41.717,84.535,40.487,84.647L40.487,84.647z
			 M42.835,52.549c-3.69,0-10.625,2.013-10.625,9.507c0,5.703,4.362,10.849,7.046,13.979c0.895,1.119,1.678,2.014,2.013,2.685
			c0.224,0.335,0.335,0.671,0.448,0.895c0.224-2.685,1.79-6.71,5.927-10.737c4.027-3.914,3.915-7.717,3.915-7.717
			C51.559,55.905,46.973,52.549,42.835,52.549z"/>
		<path fill="#F05A28" d="M41.158,84.312c-0.335,0-0.559-0.112-0.783-0.447c-0.224-0.448-0.112-1.007,0.335-1.23
			c9.507-5.592,8.5-14.764,8.5-15.099c-0.112-0.448,0.335-0.894,0.783-1.006c0.447-0.113,0.895,0.335,1.006,0.783
			c0,0.112,1.23,10.736-9.283,16.888C41.493,84.2,41.382,84.312,41.158,84.312z"/>
		<path fill="#F05A28" d="M47.756,53.891L47.756,53.891c-0.559,0-0.895-0.448-0.895-0.895c0,0,0-0.895-0.783-1.678
			c-0.783-0.782-2.125-1.229-3.915-1.229s-3.131,0.448-3.915,1.229c-0.783,0.783-0.783,1.566-0.783,1.678
			c0,0.448-0.336,0.895-0.895,0.895l0,0c-0.447,0-0.895-0.335-0.895-0.895c0-0.112,0-1.565,1.23-2.908
			c1.118-1.23,2.908-1.79,5.257-1.79s4.138,0.559,5.257,1.79c1.23,1.229,1.23,2.685,1.23,2.908
			C48.651,53.555,48.204,53.891,47.756,53.891z"/>
		<path fill="#F05A28" d="M45.184,49.977L45.184,49.977c-0.447,0-0.671-0.336-0.671-0.671c0-0.112-0.112-1.342-2.349-1.342
			c-0.895,0-1.678,0.223-2.013,0.559c-0.335,0.336-0.335,0.671-0.335,0.671c0,0.447-0.336,0.671-0.671,0.784
			c-0.447,0-0.672-0.336-0.783-0.671c0-0.112,0-1.006,0.783-1.79c0.671-0.671,1.677-1.007,3.02-1.007
			c1.342,0,2.349,0.335,3.02,1.007c0.783,0.783,0.783,1.677,0.783,1.79C45.855,49.64,45.632,49.977,45.184,49.977z"/>
		<path fill="#F05A28" d="M40.71,47.18c-0.335,0-0.559-0.223-0.559-0.559c0-0.112,0-0.783,0.559-1.342
			c0.336-0.335,0.895-0.559,1.454-0.559c0.671,0,1.119,0.223,1.454,0.559c0.559,0.559,0.559,1.229,0.559,1.342
			c0,0.335-0.223,0.559-0.559,0.559l0,0c-0.335,0-0.56-0.223-0.56-0.559c0-0.223-0.112-0.783-0.895-0.783
			c-0.335,0-0.56,0.112-0.671,0.224c-0.224,0.223-0.224,0.559-0.224,0.559C41.158,46.957,40.934,47.18,40.71,47.18L40.71,47.18z"/>
		<path fill="#F05A28" d="M41.829,87.779c-12.75,0-23.264-10.401-23.264-23.264c0-12.749,10.401-23.263,23.264-23.263
			c12.862,0,23.263,10.513,23.263,23.263C65.092,77.378,54.691,87.779,41.829,87.779z M41.829,43.154
			c-11.855,0-21.474,9.619-21.474,21.474c0,11.856,9.619,21.473,21.474,21.473s21.474-9.729,21.474-21.585
			C63.303,52.773,53.684,43.154,41.829,43.154z"/>
		<path fill="#F05A28" d="M41.829,94.042c-16.217,0-29.527-13.198-29.527-29.527c0-16.329,13.31-29.526,29.527-29.526
			c16.217,0,29.526,13.197,29.526,29.526C71.355,80.844,58.158,94.042,41.829,94.042z M41.829,36.779
			c-15.323,0-27.737,12.414-27.737,27.736s12.414,27.737,27.737,27.737c15.322,0,27.736-12.415,27.736-27.737
			C69.565,49.193,57.151,36.779,41.829,36.779z"/>
		<g>
			<path fill="#F05A28" d="M43.171,39.016c0,0.671-0.559,1.342-1.342,1.342s-1.342-0.559-1.342-1.342
				c0-0.671,0.56-1.342,1.342-1.342S43.171,38.344,43.171,39.016z M41.829,88.786c-0.671,0-1.342,0.559-1.342,1.342
				c0,0.783,0.56,1.341,1.342,1.341s1.342-0.558,1.342-1.341C43.171,89.345,42.612,88.786,41.829,88.786z"/>
			<path fill="#F05A28" d="M38.698,39.24c0.112,0.671-0.335,1.342-1.007,1.455c-0.671,0.112-1.342-0.335-1.454-1.006
				c-0.112-0.671,0.336-1.342,1.007-1.454C37.915,38.009,38.585,38.569,38.698,39.24z M46.079,88.339
				c-0.671,0.112-1.118,0.783-1.007,1.454c0.112,0.671,0.783,1.229,1.454,1.006c0.672-0.112,1.119-0.783,1.007-1.454
				S46.75,88.227,46.079,88.339z"/>
			<path fill="#F05A28" d="M34.335,40.135c0.224,0.671-0.112,1.454-0.783,1.677c-0.671,0.224-1.454-0.111-1.678-0.782
				s0.112-1.454,0.783-1.678S34.112,39.464,34.335,40.135z M50.105,87.332c-0.671,0.224-1.007,1.007-0.783,1.678
				c0.225,0.671,1.007,1.006,1.678,0.783c0.671-0.224,1.006-1.006,0.783-1.677C51.559,87.332,50.776,86.996,50.105,87.332z"/>
			<path fill="#F05A28" d="M30.198,41.811c0.335,0.672,0.112,1.455-0.448,1.79c-0.671,0.336-1.454,0.112-1.789-0.447
				c-0.335-0.671-0.112-1.454,0.447-1.79C29.079,41.029,29.862,41.253,30.198,41.811z M53.908,85.542
				c-0.672,0.335-0.783,1.118-0.447,1.79c0.335,0.671,1.118,0.784,1.79,0.448c0.67-0.336,0.783-1.12,0.447-1.791
				S54.579,85.095,53.908,85.542z"/>
			<path fill="#F05A28" d="M26.506,44.16c0.448,0.56,0.336,1.342-0.112,1.79c-0.447,0.447-1.342,0.335-1.79-0.112
				c-0.448-0.447-0.335-1.342,0.112-1.79S26.059,43.601,26.506,44.16z M57.375,83.082c-0.559,0.447-0.671,1.229-0.112,1.79
				c0.447,0.559,1.23,0.671,1.79,0.112c0.559-0.449,0.671-1.231,0.112-1.79C58.829,82.746,57.935,82.635,57.375,83.082z"/>
			<path fill="#F05A28" d="M23.151,47.18c0.56,0.448,0.671,1.23,0.112,1.79c-0.448,0.559-1.23,0.67-1.79,0.112
				c-0.559-0.559-0.671-1.229-0.112-1.79C21.921,46.733,22.592,46.733,23.151,47.18z M60.395,80.062
				c-0.447,0.56-0.336,1.342,0.112,1.79c0.559,0.448,1.342,0.335,1.79-0.113c0.447-0.559,0.335-1.342-0.112-1.789
				C61.625,79.503,60.842,79.503,60.395,80.062z"/>
			<path fill="#F05A28" d="M20.467,50.647c0.671,0.336,0.783,1.119,0.448,1.79c-0.336,0.671-1.119,0.783-1.79,0.448
				c-0.671-0.336-0.783-1.119-0.447-1.79C19.013,50.536,19.796,50.312,20.467,50.647z M62.855,76.595
				c-0.335,0.671-0.112,1.454,0.447,1.789c0.671,0.335,1.454,0.112,1.79-0.447c0.335-0.56,0.112-1.454-0.448-1.791
				C63.974,75.812,63.191,76.035,62.855,76.595z"/>
			<path fill="#F05A28" d="M18.342,54.674c0.671,0.223,1.007,1.007,0.783,1.678c-0.224,0.671-1.006,1.006-1.678,0.783
				c-0.671-0.224-1.007-1.006-0.783-1.677C17,54.674,17.671,54.338,18.342,54.674z M64.645,72.792
				c-0.224,0.671,0.112,1.455,0.783,1.677c0.671,0.224,1.454-0.112,1.678-0.783c0.223-0.671-0.112-1.454-0.783-1.677
				C65.54,71.786,64.869,72.121,64.645,72.792z"/>
			<path fill="#F05A28" d="M17,58.812c0.671,0.112,1.23,0.783,1.007,1.454c-0.112,0.671-0.783,1.119-1.455,1.007
				c-0.671-0.113-1.229-0.784-1.006-1.455C15.658,59.147,16.329,58.7,17,58.812z M65.651,68.766
				c-0.112,0.67,0.335,1.341,1.006,1.454c0.671,0.112,1.342-0.335,1.454-1.006c0.112-0.672-0.335-1.343-1.006-1.455
				C66.435,67.536,65.763,68.095,65.651,68.766z"/>
			<path fill="#F05A28" d="M16.329,63.286c0.672,0,1.342,0.559,1.342,1.342c0,0.671-0.559,1.342-1.342,1.342
				c-0.67,0-1.342-0.56-1.342-1.342C14.986,63.845,15.658,63.286,16.329,63.286z M66.099,64.515c0,0.671,0.559,1.343,1.342,1.343
				c0.671,0,1.342-0.56,1.342-1.343c0-0.783-0.56-1.342-1.342-1.342C66.658,63.286,66.099,63.845,66.099,64.515z"/>
			<path fill="#F05A28" d="M16.552,67.648c0.671-0.112,1.342,0.335,1.455,1.006c0.112,0.671-0.336,1.342-1.007,1.454
				c-0.671,0.113-1.342-0.335-1.454-1.006C15.323,68.542,15.881,67.871,16.552,67.648z M65.651,60.377
				c0.112,0.671,0.783,1.119,1.454,1.007s1.23-0.783,1.006-1.454c-0.112-0.671-0.783-1.119-1.454-1.007
				C65.987,58.924,65.54,59.595,65.651,60.377z"/>
			<path fill="#F05A28" d="M17.447,72.01c0.671-0.223,1.454,0.112,1.678,0.783s-0.112,1.455-0.783,1.678
				c-0.671,0.223-1.454-0.112-1.678-0.783C16.441,73.016,16.776,72.345,17.447,72.01z M64.645,56.24
				c0.224,0.671,1.007,1.006,1.678,0.783c0.671-0.223,1.007-1.007,0.783-1.677c-0.224-0.671-1.007-1.007-1.678-0.784
				C64.645,54.897,64.309,55.569,64.645,56.24z"/>
			<path fill="#F05A28" d="M19.125,76.147c0.672-0.335,1.454-0.112,1.79,0.449c0.335,0.671,0.112,1.454-0.447,1.789
				c-0.67,0.335-1.454,0.112-1.79-0.447C18.342,77.266,18.565,76.483,19.125,76.147z M62.855,52.437
				c0.336,0.671,1.118,0.783,1.79,0.448c0.671-0.336,0.783-1.119,0.448-1.79c-0.335-0.671-1.119-0.783-1.79-0.448
				C62.632,51.095,62.408,51.878,62.855,52.437z"/>
			<path fill="#F05A28" d="M21.474,79.95c0.56-0.447,1.342-0.335,1.79,0.113c0.447,0.559,0.335,1.342-0.112,1.789
				c-0.559,0.448-1.342,0.335-1.789-0.113C20.915,81.18,20.915,80.397,21.474,79.95z M60.395,48.97
				c0.448,0.559,1.23,0.67,1.79,0.112c0.559-0.447,0.671-1.229,0.112-1.79c-0.448-0.559-1.23-0.671-1.79-0.112
				C59.947,47.74,59.947,48.411,60.395,48.97z"/>
			<path fill="#F05A28" d="M24.493,83.194c0.448-0.559,1.23-0.671,1.79-0.112c0.559,0.447,0.671,1.229,0.112,1.789
				c-0.447,0.56-1.23,0.671-1.79,0.112C24.158,84.647,24.046,83.753,24.493,83.194z M57.375,46.062
				c0.56,0.447,1.342,0.335,1.79-0.112c0.448-0.559,0.335-1.342-0.112-1.79c-0.559-0.448-1.342-0.336-1.79,0.112
				C56.815,44.72,56.815,45.615,57.375,46.062z"/>
			<path fill="#F05A28" d="M27.96,85.989c0.335-0.671,1.118-0.783,1.789-0.447c0.672,0.335,0.783,1.118,0.448,1.79
				c-0.336,0.671-1.119,0.783-1.79,0.447C27.849,87.332,27.625,86.549,27.96,85.989z M53.908,43.601
				c0.67,0.336,1.454,0.112,1.79-0.447c0.335-0.671,0.111-1.454-0.448-1.79c-0.56-0.335-1.454-0.112-1.79,0.447
				C53.125,42.483,53.349,43.266,53.908,43.601z"/>
			<path fill="#F05A28" d="M31.987,88.003c0.224-0.671,1.007-1.007,1.678-0.782c0.671,0.222,1.007,1.006,0.783,1.677
				c-0.224,0.671-1.007,1.007-1.678,0.783C31.987,89.457,31.651,88.674,31.987,88.003z M50.105,41.811
				c0.671,0.224,1.454-0.111,1.678-0.782c0.224-0.671-0.112-1.454-0.783-1.678c-0.671-0.224-1.454,0.112-1.678,0.783
				C49.099,40.805,49.434,41.589,50.105,41.811z"/>
			<path fill="#F05A28" d="M36.125,89.457c0.112-0.671,0.783-1.23,1.454-1.006c0.671,0.112,1.23,0.783,1.007,1.455
				c-0.112,0.671-0.783,1.118-1.454,1.006C36.46,90.799,36.013,90.128,36.125,89.457z M46.079,40.694
				c0.671,0.112,1.342-0.335,1.454-1.007c0.112-0.671-0.335-1.342-1.007-1.455c-0.67-0.111-1.342,0.336-1.454,1.007
				C44.849,39.911,45.408,40.582,46.079,40.694z"/>
		</g>
		<path fill="#F05A28" d="M15.435,54.45c-0.112,0-0.224,0-0.336-0.112c-1.118-0.447-6.486-3.02-4.921-9.394
			c0.335-1.23,0.895-2.349,1.566-3.468c1.342-2.46,2.013-3.914,0.559-5.257c-0.335-0.335-0.335-0.895,0-1.23
			c0.336-0.335,0.895-0.335,1.23,0c1.454,1.454,2.908,0.783,5.257-0.559c1.118-0.559,2.237-1.23,3.467-1.566
			c6.375-1.565,8.947,3.803,9.395,4.922c0.224,0.447,0,1.006-0.447,1.118c-0.447,0.224-1.007,0-1.119-0.447
			c-0.447-1.23-2.46-5.033-7.381-3.914c-1.007,0.223-2.013,0.782-3.02,1.342c-1.454,0.783-3.132,1.79-4.921,1.565
			c0.223,1.677-0.783,3.355-1.566,4.921c-0.559,1.006-1.118,2.013-1.342,3.02c-1.23,4.809,2.684,6.822,3.915,7.381
			c0.447,0.223,0.671,0.671,0.447,1.119C16.105,54.226,15.77,54.45,15.435,54.45z"/>
		<path fill="#F05A28" d="M59.165,96.615c-4.81,0-6.823-4.25-7.158-5.257c-0.224-0.447,0-1.007,0.448-1.119
			c0.447-0.224,1.006,0,1.118,0.448c0.448,1.229,2.461,5.033,7.382,3.914c1.006-0.223,2.013-0.783,3.019-1.342
			c1.454-0.783,3.132-1.79,4.921-1.566c-0.223-1.677,0.783-3.466,1.566-4.921c0.559-1.006,1.118-2.013,1.342-3.021
			c1.23-4.809-2.684-6.822-3.915-7.381c-0.447-0.223-0.671-0.671-0.447-1.118s0.671-0.671,1.118-0.447
			c1.118,0.447,6.487,3.019,4.921,9.394c-0.224,1.119-0.783,2.237-1.454,3.355c-1.342,2.461-2.014,3.915-0.559,5.368
			c0.335,0.336,0.335,0.895,0,1.229c-0.335,0.336-0.895,0.336-1.23,0c-1.454-1.453-2.908-0.782-5.257,0.56
			c-1.118,0.56-2.237,1.23-3.467,1.566C60.619,96.503,59.835,96.615,59.165,96.615z"/>
		<path fill="#F05A28" d="M12.191,77.043c-2.125,0-4.697-0.784-6.599-3.915C4.921,72.01,4.585,70.779,4.25,69.55
			c-0.783-2.685-1.342-4.138-3.355-4.138C0.448,65.411,0,64.963,0,64.516c0-0.447,0.448-0.895,0.895-0.895l0,0
			c2.014,0,2.572-1.455,3.355-4.139c0.335-1.229,0.671-2.46,1.342-3.578c3.355-5.593,9.059-3.691,10.178-3.132
			c0.447,0.223,0.671,0.671,0.447,1.119c-0.224,0.447-0.671,0.67-1.118,0.447c-1.23-0.447-5.369-1.79-7.941,2.461
			c-0.559,0.894-0.895,2.013-1.23,3.131c-0.447,1.565-1.006,3.468-2.349,4.585c1.342,1.119,1.901,2.908,2.349,4.586
			c0.336,1.118,0.671,2.236,1.23,3.132c2.572,4.25,6.71,2.907,7.941,2.46c0.447-0.223,1.007,0,1.118,0.448
			c0.224,0.448,0,1.006-0.447,1.119C15.211,76.595,13.869,77.043,12.191,77.043z"/>
		<path fill="#F05A28" d="M71.579,77.043c-1.678,0-3.131-0.559-3.579-0.672c-0.447-0.223-0.671-0.671-0.447-1.118
			c0.223-0.447,0.671-0.671,1.118-0.447c1.23,0.447,5.369,1.789,7.941-2.461c0.559-0.894,0.895-2.013,1.23-3.131
			c0.448-1.566,1.007-3.468,2.349-4.585c-1.341-1.119-1.901-2.908-2.349-4.585c-0.336-1.119-0.671-2.237-1.23-3.132
			c-2.572-4.25-6.71-2.908-7.941-2.461c-0.447,0.224-1.007,0-1.118-0.448c-0.224-0.447,0-1.006,0.447-1.118
			c1.118-0.448,6.71-2.461,10.177,3.132c0.672,1.118,1.007,2.348,1.342,3.579c0.783,2.684,1.342,4.138,3.355,4.138
			c0.447,0,0.895,0.448,0.895,0.895c0,0.446-0.447,0.894-0.895,0.894c-2.013,0-2.572,1.454-3.355,4.138
			c-0.335,1.23-0.67,2.461-1.342,3.579C76.277,76.259,73.704,77.043,71.579,77.043z"/>
		<path fill="#F05A28" d="M24.493,96.615c-0.671,0-1.454-0.112-2.236-0.335c-1.23-0.335-2.349-0.894-3.467-1.565
			c-2.461-1.342-3.915-2.013-5.257-0.559c-0.335,0.335-0.895,0.335-1.23,0c-0.223-0.224-0.223-0.448-0.223-0.672
			c0-0.222,0.112-0.447,0.223-0.67c1.454-1.454,0.783-2.907-0.559-5.257c-0.56-1.119-1.23-2.236-1.566-3.467
			c-1.565-6.375,3.803-8.948,4.921-9.395c0.447-0.223,1.007,0,1.118,0.448c0.224,0.447,0,1.006-0.447,1.118
			c-1.23,0.448-5.033,2.461-3.915,7.381c0.224,1.007,0.783,2.014,1.342,3.021c0.783,1.454,1.789,3.131,1.566,4.921
			c1.678-0.224,3.467,0.783,4.921,1.565c1.007,0.559,2.013,1.119,3.02,1.342c4.809,1.23,6.822-2.684,7.381-3.914
			c0.224-0.447,0.671-0.671,1.119-0.447c0.447,0.223,0.671,0.671,0.447,1.118C31.316,92.365,29.303,96.615,24.493,96.615z"/>
		<path fill="#F05A28" d="M68.335,54.45c-0.335,0-0.671-0.223-0.783-0.559c-0.224-0.448,0-1.007,0.447-1.119
			c1.23-0.448,5.033-2.461,3.915-7.382c-0.223-1.006-0.783-2.013-1.342-3.02c-0.783-1.455-1.789-3.132-1.565-4.921
			c-1.678,0.223-3.355-0.784-4.921-1.566c-1.007-0.559-2.014-1.118-3.02-1.341c-4.81-1.23-6.822,2.684-7.382,3.914
			c-0.223,0.447-0.671,0.671-1.118,0.447c-0.447-0.223-0.672-0.671-0.447-1.118c0.447-1.119,3.02-6.487,9.395-4.922
			c1.119,0.224,2.236,0.895,3.355,1.454c2.46,1.342,3.915,2.013,5.257,0.559c0.335-0.335,0.895-0.335,1.23,0
			c0.223,0.224,0.223,0.448,0.223,0.671c0,0.224-0.112,0.448-0.223,0.671c-1.454,1.455-0.783,2.908,0.559,5.257
			c0.56,1.119,1.23,2.236,1.566,3.468c1.566,6.375-3.803,8.947-4.921,9.394C68.559,54.45,68.448,54.45,68.335,54.45z"/>
		<path fill="#F05A28" d="M41.829,106.457L41.829,106.457c-0.447,0-0.895-0.448-0.895-0.895c0-2.014-1.454-2.572-4.138-3.354
			c-1.23-0.336-2.461-0.671-3.579-1.342c-5.592-3.356-3.691-9.06-3.132-10.178c0.224-0.448,0.671-0.672,1.119-0.448
			c0.447,0.223,0.671,0.671,0.447,1.119c-0.447,1.23-1.79,5.369,2.46,7.941c0.895,0.559,2.014,0.894,3.132,1.23
			c1.566,0.447,3.467,1.007,4.585,2.348c1.118-1.341,2.908-1.9,4.585-2.348c1.118-0.337,2.237-0.672,3.131-1.23
			c4.25-2.572,2.908-6.709,2.461-7.941c-0.224-0.447,0-1.006,0.447-1.119c0.447-0.224,1.007,0,1.119,0.448
			c0.447,1.118,2.46,6.71-3.132,10.178c-1.119,0.671-2.349,1.006-3.579,1.342c-2.685,0.782-4.139,1.341-4.139,3.354
			C42.724,106.01,42.388,106.457,41.829,106.457z"/>
		<path fill="#F05A28" d="M30.869,39.016c-0.335,0-0.671-0.224-0.783-0.559c-0.447-1.119-2.46-6.71,3.132-10.178
			c1.118-0.671,2.349-1.006,3.579-1.342c2.684-0.783,4.138-1.342,4.138-3.355c0-0.448,0.448-0.895,0.895-0.895l0,0
			c0.447,0,0.895,0.448,0.895,0.895c0,2.013,1.454,2.572,4.138,3.355c1.23,0.335,2.461,0.671,3.579,1.342
			c5.592,3.355,3.691,9.059,3.131,10.178c-0.223,0.448-0.67,0.671-1.118,0.448c-0.448-0.224-0.672-0.671-0.448-1.119
			c0.448-1.23,1.79-5.369-2.46-7.941c-0.895-0.559-2.013-0.895-3.132-1.23c-1.566-0.448-3.467-1.007-4.585-2.349
			c-1.118,1.342-2.908,1.9-4.585,2.349c-1.118,0.335-2.237,0.671-3.131,1.23c-4.25,2.572-2.908,6.71-2.461,7.941
			c0.224,0.448,0,1.006-0.447,1.119C31.092,38.905,30.98,39.016,30.869,39.016z"/>
	</g>
	<g>
		<path fill="#231F20" d="M101.985,81.052V47.39h2.195l21.832,25.155V47.39h4.208v33.662h-2.134l-21.923-25.155v25.155H101.985z"/>
		<path fill="#231F20" d="M140.312,81.052V47.207h4.238v33.845H140.312z"/>
		<path fill="#231F20" d="M154.491,81.052V47.39h19.301c3.293,0,5.874,0.829,7.745,2.485c1.87,1.657,2.805,3.949,2.805,6.876
			c0,2.439-0.732,4.528-2.195,6.266c-1.463,1.738-3.395,2.82-5.793,3.248l8.416,14.788h-4.634l-8.416-14.727h-13.05v14.727H154.491z
			 M158.668,62.392h14.849c2.114,0,3.715-0.467,4.802-1.402c1.088-0.935,1.632-2.307,1.632-4.116c0-1.769-0.544-3.146-1.632-4.132
			c-1.087-0.986-2.617-1.479-4.588-1.479h-15.062V62.392z"/>
		<path fill="#231F20" d="M184.677,81.052l16.496-33.662h3.476l16.678,33.662h-4.543l-4.574-9.056h-18.6l-4.452,9.056H184.677z
			 M195.531,68.063h14.819l-7.44-14.91L195.531,68.063z"/>
		<path fill="#231F20" d="M220.29,81.052l16.496-33.662h3.476l16.678,33.662h-4.543l-4.574-9.056h-18.599l-4.452,9.056H220.29z
			 M231.145,68.063h14.818l-7.44-14.91L231.145,68.063z"/>
		<path fill="#231F20" d="M261.88,81.052V47.39h3.872l13.599,20.612l13.69-20.612h3.811v33.662h-4.146V54.769L279.351,74.68
			l-13.355-19.911v26.283H261.88z"/>
		<path fill="#231F20" d="M301.64,81.052l16.496-33.662h3.476l16.679,33.662h-4.543l-4.574-9.056h-18.599l-4.452,9.056H301.64z
			 M312.495,68.063h14.819l-7.44-14.91L312.495,68.063z"/>
		<path fill="#231F20" d="M349.022,81.052V64.191l-15.153-16.8h5.244l12.044,13.294L363.14,47.39h5.306L353.2,64.252v16.801H349.022
			z"/>
		<path fill="#231F20" d="M363.963,81.052l16.496-33.662h3.476l16.679,33.662h-4.543l-4.574-9.056h-18.599l-4.452,9.056H363.963z
			 M374.818,68.063h14.818l-7.439-14.91L374.818,68.063z"/>
		<path fill="#231F20" d="M421.469,81.052l16.496-33.662h3.476l16.679,33.662h-4.543l-4.574-9.056h-18.599l-4.452,9.056H421.469z
			 M432.324,68.063h14.818l-7.44-14.91L432.324,68.063z"/>
		<path fill="#231F20" d="M468.852,81.052V64.191l-15.153-16.8h5.244l12.044,13.294l11.982-13.294h5.306l-15.245,16.861v16.801
			H468.852z"/>
		<path fill="#231F20" d="M493.52,47.39v21.801c0,3.497,0.654,5.839,1.967,7.028c1.311,1.189,3.887,1.784,7.729,1.784
			s6.413-0.594,7.715-1.784c1.3-1.189,1.951-3.532,1.951-7.028V47.39h4.208V70.32c0,4.147-1.078,7.12-3.232,8.918
			c-2.155,1.799-5.702,2.699-10.642,2.699s-8.486-0.9-10.641-2.699c-2.155-1.799-3.232-4.771-3.232-8.918V47.39H493.52z"/>
		<path fill="#231F20" d="M526.205,81.052V47.39h19.301c3.293,0,5.874,0.829,7.745,2.485c1.87,1.657,2.805,3.949,2.805,6.876
			c0,2.439-0.731,4.528-2.195,6.266c-1.464,1.738-3.395,2.82-5.793,3.248l8.415,14.788h-4.635l-8.415-14.727h-13.05v14.727H526.205z
			 M530.383,62.392h14.849c2.114,0,3.715-0.467,4.802-1.402c1.088-0.935,1.632-2.307,1.632-4.116c0-1.769-0.544-3.146-1.632-4.132
			c-1.087-0.986-2.617-1.479-4.588-1.479h-15.062V62.392z"/>
		<path fill="#231F20" d="M577.033,81.052h-2.622L558.19,47.39h4.543l12.989,26.984l12.989-26.984h4.635L577.033,81.052z"/>
		<path fill="#231F20" d="M597.95,81.052V47.39h26.466v3.873h-22.288v9.879h13.477v3.872h-13.477V77.18h23.661v3.873H597.95z"/>
		<path fill="#231F20" d="M646.461,47.39c5.306,0,9.58,1.565,12.821,4.696c3.243,3.13,4.864,7.206,4.864,12.227
			c0,5.062-1.597,9.117-4.787,12.166c-3.191,3.049-7.491,4.574-12.898,4.574h-14.422V47.39H646.461z M646.461,51.263h-10.244V77.18
			h10.244c4.147,0,7.41-1.163,9.788-3.491c2.378-2.327,3.567-5.473,3.567-9.437c0-3.903-1.21-7.043-3.628-9.421
			C653.769,52.452,650.526,51.263,646.461,51.263z"/>
		<path fill="#231F20" d="M665.335,81.052l16.496-33.662h3.476l16.679,33.662h-4.543l-4.574-9.056H674.27l-4.452,9.056H665.335z
			 M676.19,68.063h14.818l-7.44-14.91L676.19,68.063z"/>
	</g>
</g>
</svg>
