<?xml version="1.0" encoding="utf-8"?>
<!-- Generator: Adobe Illustrator 21.1.0, SVG Export Plug-In . SVG Version: 6.00 Build 0)  -->
<svg version="1.1" id="Layer_1" xmlns="http://www.w3.org/2000/svg" xmlns:xlink="http://www.w3.org/1999/xlink" x="0px" y="0px"
	 viewBox="0 0 284.4 74.9" style="enable-background:new 0 0 284.4 74.9;" xml:space="preserve">
<style type="text/css">
	.st0{fill:#F05A28;}
	.st1{fill:#231F20;}
</style>
<g>
	<g>
		<path class="st0" d="M36.2,55.4c-0.3,0-0.5-0.1-0.7-0.4c-0.2-0.3-0.2-0.6,0-0.8c0-0.1,0.9-1.6,0-3.3c-0.3-0.5-0.9-1.2-1.6-2.1
			c-2.5-2.9-6.6-7.9-6.6-13.5c0-3.4,1.4-6.2,4-8c1.9-1.3,4.6-2.1,7.1-2.1c4.5,0,9.4,3.5,9.4,9.2c0,0.1,0.1,4-4,8.1
			c-3.6,3.6-4.9,7-4.9,9C38.8,53.8,37.3,55.3,36.2,55.4C36.2,55.4,36.2,55.4,36.2,55.4z M38.3,26.7c-3.3,0-9.5,1.8-9.5,8.5
			c0,5.1,3.9,9.7,6.3,12.5c0.8,1,1.5,1.8,1.8,2.4c0.2,0.3,0.3,0.6,0.4,0.8c0.2-2.4,1.6-6,5.3-9.6c3.6-3.5,3.5-6.9,3.5-6.9
			C46.1,29.7,42,26.7,38.3,26.7z"/>
		<path class="st0" d="M36.8,55.1c-0.3,0-0.5-0.1-0.7-0.4c-0.2-0.4-0.1-0.9,0.3-1.1c8.5-5,7.6-13.2,7.6-13.5
			c-0.1-0.4,0.3-0.8,0.7-0.9c0.4-0.1,0.8,0.3,0.9,0.7c0,0.1,1.1,9.6-8.3,15.1C37.1,55,37,55.1,36.8,55.1z"/>
		<path class="st0" d="M42.7,27.9C42.7,27.9,42.7,27.9,42.7,27.9c-0.5,0-0.8-0.4-0.8-0.8c0,0,0-0.8-0.7-1.5
			c-0.7-0.7-1.9-1.1-3.5-1.1c-1.6,0-2.8,0.4-3.5,1.1c-0.7,0.7-0.7,1.4-0.7,1.5c0,0.4-0.3,0.8-0.8,0.8c0,0,0,0,0,0
			c-0.4,0-0.8-0.3-0.8-0.8c0-0.1,0-1.4,1.1-2.6c1-1.1,2.6-1.6,4.7-1.6c2.1,0,3.7,0.5,4.7,1.6c1.1,1.1,1.1,2.4,1.1,2.6
			C43.5,27.6,43.1,27.9,42.7,27.9z"/>
		<path class="st0" d="M40.4,24.4C40.4,24.4,40.4,24.4,40.4,24.4c-0.4,0-0.6-0.3-0.6-0.6c0-0.1-0.1-1.2-2.1-1.2
			c-0.8,0-1.5,0.2-1.8,0.5c-0.3,0.3-0.3,0.6-0.3,0.6c0,0.4-0.3,0.6-0.6,0.7c-0.4,0-0.6-0.3-0.7-0.6c0-0.1,0-0.9,0.7-1.6
			c0.6-0.6,1.5-0.9,2.7-0.9c1.2,0,2.1,0.3,2.7,0.9c0.7,0.7,0.7,1.5,0.7,1.6C41,24.1,40.8,24.4,40.4,24.4z"/>
		<path class="st0" d="M36.4,21.9c-0.3,0-0.5-0.2-0.5-0.5c0-0.1,0-0.7,0.5-1.2c0.3-0.3,0.8-0.5,1.3-0.5c0.6,0,1,0.2,1.3,0.5
			c0.5,0.5,0.5,1.1,0.5,1.2c0,0.3-0.2,0.5-0.5,0.5c0,0,0,0,0,0c-0.3,0-0.5-0.2-0.5-0.5c0-0.2-0.1-0.7-0.8-0.7
			c-0.3,0-0.5,0.1-0.6,0.2c-0.2,0.2-0.2,0.5-0.2,0.5C36.8,21.7,36.6,21.9,36.4,21.9C36.4,21.9,36.4,21.9,36.4,21.9z"/>
		<path class="st0" d="M37.4,58.2c-11.4,0-20.8-9.3-20.8-20.8c0-11.4,9.3-20.8,20.8-20.8S58.2,26,58.2,37.4
			C58.2,48.9,48.9,58.2,37.4,58.2z M37.4,18.3c-10.6,0-19.2,8.6-19.2,19.2c0,10.6,8.6,19.2,19.2,19.2S56.6,48,56.6,37.4
			C56.6,26.9,48,18.3,37.4,18.3z"/>
		<path class="st0" d="M37.4,63.8C22.9,63.8,11,52,11,37.4S22.9,11,37.4,11s26.4,11.8,26.4,26.4S52,63.8,37.4,63.8z M37.4,12.6
			c-13.7,0-24.8,11.1-24.8,24.8s11.1,24.8,24.8,24.8s24.8-11.1,24.8-24.8S51.1,12.6,37.4,12.6z"/>
		<g>
			<path class="st0" d="M38.6,14.6c0,0.6-0.5,1.2-1.2,1.2s-1.2-0.5-1.2-1.2c0-0.6,0.5-1.2,1.2-1.2S38.6,14,38.6,14.6z M37.4,59.1
				c-0.6,0-1.2,0.5-1.2,1.2s0.5,1.2,1.2,1.2s1.2-0.5,1.2-1.2S38.1,59.1,37.4,59.1z"/>
			<path class="st0" d="M34.6,14.8c0.1,0.6-0.3,1.2-0.9,1.3c-0.6,0.1-1.2-0.3-1.3-0.9c-0.1-0.6,0.3-1.2,0.9-1.3
				C33.9,13.7,34.5,14.2,34.6,14.8z M41.2,58.7c-0.6,0.1-1,0.7-0.9,1.3c0.1,0.6,0.7,1.1,1.3,0.9c0.6-0.1,1-0.7,0.9-1.3
				S41.8,58.6,41.2,58.7z"/>
			<path class="st0" d="M30.7,15.6c0.2,0.6-0.1,1.3-0.7,1.5s-1.3-0.1-1.5-0.7c-0.2-0.6,0.1-1.3,0.7-1.5C29.8,14.7,30.5,15,30.7,15.6
				z M44.8,57.8c-0.6,0.2-0.9,0.9-0.7,1.5c0.2,0.6,0.9,0.9,1.5,0.7s0.9-0.9,0.7-1.5C46.1,57.8,45.4,57.5,44.8,57.8z"/>
			<path class="st0" d="M27,17.1c0.3,0.6,0.1,1.3-0.4,1.6c-0.6,0.3-1.3,0.1-1.6-0.4c-0.3-0.6-0.1-1.3,0.4-1.6
				C26,16.4,26.7,16.6,27,17.1z M48.2,56.2c-0.6,0.3-0.7,1-0.4,1.6s1,0.7,1.6,0.4c0.6-0.3,0.7-1,0.4-1.6
				C49.5,56,48.8,55.8,48.2,56.2z"/>
			<path class="st0" d="M23.7,19.2c0.4,0.5,0.3,1.2-0.1,1.6s-1.2,0.3-1.6-0.1s-0.3-1.2,0.1-1.6S23.3,18.7,23.7,19.2z M51.3,54
				c-0.5,0.4-0.6,1.1-0.1,1.6c0.4,0.5,1.1,0.6,1.6,0.1c0.5-0.4,0.6-1.1,0.1-1.6C52.6,53.7,51.8,53.6,51.3,54z"/>
			<path class="st0" d="M20.7,21.9c0.5,0.4,0.6,1.1,0.1,1.6c-0.4,0.5-1.1,0.6-1.6,0.1s-0.6-1.1-0.1-1.6S20.2,21.5,20.7,21.9z
				 M54,51.3c-0.4,0.5-0.3,1.2,0.1,1.6c0.5,0.4,1.2,0.3,1.6-0.1c0.4-0.5,0.3-1.2-0.1-1.6C55.1,50.8,54.4,50.8,54,51.3z"/>
			<path class="st0" d="M18.3,25c0.6,0.3,0.7,1,0.4,1.6c-0.3,0.6-1,0.7-1.6,0.4c-0.6-0.3-0.7-1-0.4-1.6C17,24.9,17.7,24.7,18.3,25z
				 M56.2,48.2c-0.3,0.6-0.1,1.3,0.4,1.6c0.6,0.3,1.3,0.1,1.6-0.4s0.1-1.3-0.4-1.6C57.2,47.5,56.5,47.7,56.2,48.2z"/>
			<path class="st0" d="M16.4,28.6c0.6,0.2,0.9,0.9,0.7,1.5s-0.9,0.9-1.5,0.7c-0.6-0.2-0.9-0.9-0.7-1.5
				C15.2,28.6,15.8,28.3,16.4,28.6z M57.8,44.8c-0.2,0.6,0.1,1.3,0.7,1.5c0.6,0.2,1.3-0.1,1.5-0.7c0.2-0.6-0.1-1.3-0.7-1.5
				C58.6,43.9,58,44.2,57.8,44.8z"/>
			<path class="st0" d="M15.2,32.3c0.6,0.1,1.1,0.7,0.9,1.3c-0.1,0.6-0.7,1-1.3,0.9c-0.6-0.1-1.1-0.7-0.9-1.3
				C14,32.6,14.6,32.2,15.2,32.3z M58.7,41.2c-0.1,0.6,0.3,1.2,0.9,1.3c0.6,0.1,1.2-0.3,1.3-0.9c0.1-0.6-0.3-1.2-0.9-1.3
				C59.4,40.1,58.8,40.6,58.7,41.2z"/>
			<path class="st0" d="M14.6,36.3c0.6,0,1.2,0.5,1.2,1.2c0,0.6-0.5,1.2-1.2,1.2c-0.6,0-1.2-0.5-1.2-1.2S14,36.3,14.6,36.3z
				 M59.1,37.4c0,0.6,0.5,1.2,1.2,1.2c0.6,0,1.2-0.5,1.2-1.2s-0.5-1.2-1.2-1.2C59.6,36.3,59.1,36.8,59.1,37.4z"/>
			<path class="st0" d="M14.8,40.2c0.6-0.1,1.2,0.3,1.3,0.9c0.1,0.6-0.3,1.2-0.9,1.3c-0.6,0.1-1.2-0.3-1.3-0.9
				C13.7,41,14.2,40.4,14.8,40.2z M58.7,33.7c0.1,0.6,0.7,1,1.3,0.9c0.6-0.1,1.1-0.7,0.9-1.3c-0.1-0.6-0.7-1-1.3-0.9
				C59,32.4,58.6,33,58.7,33.7z"/>
			<path class="st0" d="M15.6,44.1c0.6-0.2,1.3,0.1,1.5,0.7c0.2,0.6-0.1,1.3-0.7,1.5c-0.6,0.2-1.3-0.1-1.5-0.7
				C14.7,45,15,44.4,15.6,44.1z M57.8,30c0.2,0.6,0.9,0.9,1.5,0.7c0.6-0.2,0.9-0.9,0.7-1.5c-0.2-0.6-0.9-0.9-1.5-0.7
				C57.8,28.8,57.5,29.4,57.8,30z"/>
			<path class="st0" d="M17.1,47.8c0.6-0.3,1.3-0.1,1.6,0.4c0.3,0.6,0.1,1.3-0.4,1.6c-0.6,0.3-1.3,0.1-1.6-0.4
				C16.4,48.8,16.6,48.1,17.1,47.8z M56.2,26.6c0.3,0.6,1,0.7,1.6,0.4c0.6-0.3,0.7-1,0.4-1.6c-0.3-0.6-1-0.7-1.6-0.4
				C56,25.4,55.8,26.1,56.2,26.6z"/>
			<path class="st0" d="M19.2,51.2c0.5-0.4,1.2-0.3,1.6,0.1c0.4,0.5,0.3,1.2-0.1,1.6c-0.5,0.4-1.2,0.3-1.6-0.1
				C18.7,52.3,18.7,51.6,19.2,51.2z M54,23.5c0.4,0.5,1.1,0.6,1.6,0.1c0.5-0.4,0.6-1.1,0.1-1.6c-0.4-0.5-1.1-0.6-1.6-0.1
				S53.6,23,54,23.5z"/>
			<path class="st0" d="M21.9,54.1c0.4-0.5,1.1-0.6,1.6-0.1c0.5,0.4,0.6,1.1,0.1,1.6c-0.4,0.5-1.1,0.6-1.6,0.1
				C21.6,55.4,21.5,54.6,21.9,54.1z M51.3,20.9c0.5,0.4,1.2,0.3,1.6-0.1c0.4-0.5,0.3-1.2-0.1-1.6c-0.5-0.4-1.2-0.3-1.6,0.1
				C50.8,19.7,50.8,20.5,51.3,20.9z"/>
			<path class="st0" d="M25,56.6c0.3-0.6,1-0.7,1.6-0.4c0.6,0.3,0.7,1,0.4,1.6c-0.3,0.6-1,0.7-1.6,0.4C24.9,57.8,24.7,57.1,25,56.6z
				 M48.2,18.7c0.6,0.3,1.3,0.1,1.6-0.4c0.3-0.6,0.1-1.3-0.4-1.6s-1.3-0.1-1.6,0.4C47.5,17.7,47.7,18.4,48.2,18.7z"/>
			<path class="st0" d="M28.6,58.4c0.2-0.6,0.9-0.9,1.5-0.7c0.6,0.2,0.9,0.9,0.7,1.5c-0.2,0.6-0.9,0.9-1.5,0.7
				C28.6,59.7,28.3,59,28.6,58.4z M44.8,17.1c0.6,0.2,1.3-0.1,1.5-0.7c0.2-0.6-0.1-1.3-0.7-1.5s-1.3,0.1-1.5,0.7
				C43.9,16.2,44.2,16.9,44.8,17.1z"/>
			<path class="st0" d="M32.3,59.7c0.1-0.6,0.7-1.1,1.3-0.9c0.6,0.1,1.1,0.7,0.9,1.3c-0.1,0.6-0.7,1-1.3,0.9
				C32.6,60.9,32.2,60.3,32.3,59.7z M41.2,16.1c0.6,0.1,1.2-0.3,1.3-0.9c0.1-0.6-0.3-1.2-0.9-1.3s-1.2,0.3-1.3,0.9
				C40.1,15.4,40.6,16,41.2,16.1z"/>
		</g>
		<path class="st0" d="M13.8,28.4c-0.1,0-0.2,0-0.3-0.1c-1-0.4-5.8-2.7-4.4-8.4c0.3-1.1,0.8-2.1,1.4-3.1c1.2-2.2,1.8-3.5,0.5-4.7
			c-0.3-0.3-0.3-0.8,0-1.1c0.3-0.3,0.8-0.3,1.1,0c1.3,1.3,2.6,0.7,4.7-0.5c1-0.5,2-1.1,3.1-1.4c5.7-1.4,8,3.4,8.4,4.4
			c0.2,0.4,0,0.9-0.4,1c-0.4,0.2-0.9,0-1-0.4c-0.4-1.1-2.2-4.5-6.6-3.5c-0.9,0.2-1.8,0.7-2.7,1.2c-1.3,0.7-2.8,1.6-4.4,1.4
			c0.2,1.5-0.7,3-1.4,4.4c-0.5,0.9-1,1.8-1.2,2.7c-1.1,4.3,2.4,6.1,3.5,6.6c0.4,0.2,0.6,0.6,0.4,1C14.4,28.2,14.1,28.4,13.8,28.4z"
			/>
		<path class="st0" d="M52.9,66.1c-4.3,0-6.1-3.8-6.4-4.7c-0.2-0.4,0-0.9,0.4-1c0.4-0.2,0.9,0,1,0.4c0.4,1.1,2.2,4.5,6.6,3.5
			c0.9-0.2,1.8-0.7,2.7-1.2c1.3-0.7,2.8-1.6,4.4-1.4c-0.2-1.5,0.7-3.1,1.4-4.4c0.5-0.9,1-1.8,1.2-2.7c1.1-4.3-2.4-6.1-3.5-6.6
			c-0.4-0.2-0.6-0.6-0.4-1c0.2-0.4,0.6-0.6,1-0.4c1,0.4,5.8,2.7,4.4,8.4C65.5,56,65,57,64.4,58c-1.2,2.2-1.8,3.5-0.5,4.8
			c0.3,0.3,0.3,0.8,0,1.1s-0.8,0.3-1.1,0c-1.3-1.3-2.6-0.7-4.7,0.5c-1,0.5-2,1.1-3.1,1.4C54.2,66,53.5,66.1,52.9,66.1z"/>
		<path class="st0" d="M10.9,48.6c-1.9,0-4.2-0.7-5.9-3.5c-0.6-1-0.9-2.1-1.2-3.2c-0.7-2.4-1.2-3.7-3-3.7c-0.4,0-0.8-0.4-0.8-0.8
			s0.4-0.8,0.8-0.8l0,0c1.8,0,2.3-1.3,3-3.7c0.3-1.1,0.6-2.2,1.2-3.2c3-5,8.1-3.3,9.1-2.8c0.4,0.2,0.6,0.6,0.4,1
			c-0.2,0.4-0.6,0.6-1,0.4c-1.1-0.4-4.8-1.6-7.1,2.2c-0.5,0.8-0.8,1.8-1.1,2.8c-0.4,1.4-0.9,3.1-2.1,4.1c1.2,1,1.7,2.6,2.1,4.1
			c0.3,1,0.6,2,1.1,2.8c2.3,3.8,6,2.6,7.1,2.2c0.4-0.2,0.9,0,1,0.4c0.2,0.4,0,0.9-0.4,1C13.6,48.2,12.4,48.6,10.9,48.6z"/>
		<path class="st0" d="M64,48.6c-1.5,0-2.8-0.5-3.2-0.6c-0.4-0.2-0.6-0.6-0.4-1c0.2-0.4,0.6-0.6,1-0.4c1.1,0.4,4.8,1.6,7.1-2.2
			c0.5-0.8,0.8-1.8,1.1-2.8c0.4-1.4,0.9-3.1,2.1-4.1c-1.2-1-1.7-2.6-2.1-4.1c-0.3-1-0.6-2-1.1-2.8c-2.3-3.8-6-2.6-7.1-2.2
			c-0.4,0.2-0.9,0-1-0.4c-0.2-0.4,0-0.9,0.4-1c1-0.4,6-2.2,9.1,2.8c0.6,1,0.9,2.1,1.2,3.2c0.7,2.4,1.2,3.7,3,3.7
			c0.4,0,0.8,0.4,0.8,0.8s-0.4,0.8-0.8,0.8c-1.8,0-2.3,1.3-3,3.7c-0.3,1.1-0.6,2.2-1.2,3.2C68.2,47.9,65.9,48.6,64,48.6z"/>
		<path class="st0" d="M21.9,66.1c-0.6,0-1.3-0.1-2-0.3c-1.1-0.3-2.1-0.8-3.1-1.4c-2.2-1.2-3.5-1.8-4.7-0.5c-0.3,0.3-0.8,0.3-1.1,0
			c-0.2-0.2-0.2-0.4-0.2-0.6s0.1-0.4,0.2-0.6c1.3-1.3,0.7-2.6-0.5-4.7c-0.5-1-1.1-2-1.4-3.1c-1.4-5.7,3.4-8,4.4-8.4
			c0.4-0.2,0.9,0,1,0.4c0.2,0.4,0,0.9-0.4,1c-1.1,0.4-4.5,2.2-3.5,6.6c0.2,0.9,0.7,1.8,1.2,2.7c0.7,1.3,1.6,2.8,1.4,4.4
			c1.5-0.2,3.1,0.7,4.4,1.4c0.9,0.5,1.8,1,2.7,1.2c4.3,1.1,6.1-2.4,6.6-3.5c0.2-0.4,0.6-0.6,1-0.4c0.4,0.2,0.6,0.6,0.4,1
			C28,62.3,26.2,66.1,21.9,66.1z"/>
		<path class="st0" d="M61.1,28.4c-0.3,0-0.6-0.2-0.7-0.5c-0.2-0.4,0-0.9,0.4-1c1.1-0.4,4.5-2.2,3.5-6.6c-0.2-0.9-0.7-1.8-1.2-2.7
			c-0.7-1.3-1.6-2.8-1.4-4.4c-1.5,0.2-3-0.7-4.4-1.4c-0.9-0.5-1.8-1-2.7-1.2c-4.3-1.1-6.1,2.4-6.6,3.5c-0.2,0.4-0.6,0.6-1,0.4
			c-0.4-0.2-0.6-0.6-0.4-1c0.4-1,2.7-5.8,8.4-4.4C56,9.3,57,9.9,58,10.4c2.2,1.2,3.5,1.8,4.7,0.5c0.3-0.3,0.8-0.3,1.1,0
			c0.2,0.2,0.2,0.4,0.2,0.6s-0.1,0.4-0.2,0.6c-1.3,1.3-0.7,2.6,0.5,4.7c0.5,1,1.1,2,1.4,3.1c1.4,5.7-3.4,8-4.4,8.4
			C61.3,28.4,61.2,28.4,61.1,28.4z"/>
		<path class="st0" d="M37.4,74.9L37.4,74.9c-0.4,0-0.8-0.4-0.8-0.8c0-1.8-1.3-2.3-3.7-3c-1.1-0.3-2.2-0.6-3.2-1.2
			c-5-3-3.3-8.1-2.8-9.1c0.2-0.4,0.6-0.6,1-0.4c0.4,0.2,0.6,0.6,0.4,1c-0.4,1.1-1.6,4.8,2.2,7.1c0.8,0.5,1.8,0.8,2.8,1.1
			c1.4,0.4,3.1,0.9,4.1,2.1c1-1.2,2.6-1.7,4.1-2.1c1-0.3,2-0.6,2.8-1.1c3.8-2.3,2.6-6,2.2-7.1c-0.2-0.4,0-0.9,0.4-1
			c0.4-0.2,0.9,0,1,0.4c0.4,1,2.2,6-2.8,9.1c-1,0.6-2.1,0.9-3.2,1.2c-2.4,0.7-3.7,1.2-3.7,3C38.2,74.5,37.9,74.9,37.4,74.9z"/>
		<path class="st0" d="M27.6,14.6c-0.3,0-0.6-0.2-0.7-0.5c-0.4-1-2.2-6,2.8-9.1c1-0.6,2.1-0.9,3.2-1.2c2.4-0.7,3.7-1.2,3.7-3
			C36.6,0.4,37,0,37.4,0l0,0c0.4,0,0.8,0.4,0.8,0.8c0,1.8,1.3,2.3,3.7,3c1.1,0.3,2.2,0.6,3.2,1.2c5,3,3.3,8.1,2.8,9.1
			c-0.2,0.4-0.6,0.6-1,0.4c-0.4-0.2-0.6-0.6-0.4-1c0.4-1.1,1.6-4.8-2.2-7.1c-0.8-0.5-1.8-0.8-2.8-1.1c-1.4-0.4-3.1-0.9-4.1-2.1
			c-1,1.2-2.6,1.7-4.1,2.1c-1,0.3-2,0.6-2.8,1.1c-3.8,2.3-2.6,6-2.2,7.1c0.2,0.4,0,0.9-0.4,1C27.8,14.5,27.7,14.6,27.6,14.6z"/>
	</g>
	<g>
		<g>
			<path class="st1" d="M85.6,34.4V12H87l14.5,16.7V12h2.8v22.4H103L88.4,17.7v16.7H85.6z"/>
			<path class="st1" d="M111.1,34.4V11.9h2.8v22.5H111.1z"/>
			<path class="st1" d="M120.5,34.4V12h12.9c2.2,0,3.9,0.5,5.2,1.7c1.2,1.1,1.9,2.6,1.9,4.6c0,1.6-0.5,3-1.5,4.2
				c-1,1.2-2.3,1.9-3.9,2.2l5.6,9.8h-3.1l-5.6-9.8h-8.7v9.8H120.5z M123.3,22h9.9c1.4,0,2.5-0.3,3.2-0.9c0.7-0.6,1.1-1.5,1.1-2.7
				c0-1.2-0.4-2.1-1.1-2.8c-0.7-0.7-1.7-1-3.1-1h-10V22z"/>
			<path class="st1" d="M140.6,34.4l11-22.4h2.3l11.1,22.4h-3l-3-6h-12.4l-3,6H140.6z M147.9,25.8h9.9l-5-9.9L147.9,25.8z"/>
			<path class="st1" d="M164.4,34.4l11-22.4h2.3l11.1,22.4h-3l-3-6h-12.4l-3,6H164.4z M171.6,25.8h9.9l-5-9.9L171.6,25.8z"/>
			<path class="st1" d="M192.1,34.4V12h2.6l9.1,13.7l9.1-13.7h2.5v22.4h-2.8V16.9l-8.9,13.3l-8.9-13.3v17.5H192.1z"/>
			<path class="st1" d="M218.5,34.4l11-22.4h2.3l11.1,22.4h-3l-3-6h-12.4l-3,6H218.5z M225.8,25.8h9.9l-5-9.9L225.8,25.8z"/>
			<path class="st1" d="M250.1,34.4V23.2L240,12h3.5l8,8.8l8-8.8h3.5l-10.1,11.2v11.2H250.1z"/>
			<path class="st1" d="M260,34.4L271,12h2.3l11.1,22.4h-3l-3-6H266l-3,6H260z M267.3,25.8h9.9l-5-9.9L267.3,25.8z"/>
		</g>
		<g>
			<g>
				<path class="st1" d="M108.6,62.5l8.8-17.9h1.9l8.9,17.9h-2.4l-2.4-4.8h-9.9l-2.4,4.8H108.6z M114.4,55.6h7.9l-4-7.9L114.4,55.6z
					"/>
				<path class="st1" d="M133.8,62.5v-9l-8.1-8.9h2.8l6.4,7.1l6.4-7.1h2.8l-8.1,9v9H133.8z"/>
				<path class="st1" d="M147,44.6v11.6c0,1.9,0.4,3.1,1,3.7c0.7,0.6,2.1,1,4.1,1c2,0,3.4-0.3,4.1-1c0.7-0.6,1-1.9,1-3.7V44.6h2.2
					v12.2c0,2.2-0.6,3.8-1.7,4.8c-1.1,1-3,1.4-5.7,1.4c-2.6,0-4.5-0.5-5.7-1.4c-1.1-1-1.7-2.5-1.7-4.8V44.6H147z"/>
				<path class="st1" d="M164.4,62.5V44.6h10.3c1.8,0,3.1,0.4,4.1,1.3c1,0.9,1.5,2.1,1.5,3.7c0,1.3-0.4,2.4-1.2,3.3
					c-0.8,0.9-1.8,1.5-3.1,1.7l4.5,7.9h-2.5l-4.5-7.8h-7v7.8H164.4z M166.6,52.6h7.9c1.1,0,2-0.2,2.6-0.7c0.6-0.5,0.9-1.2,0.9-2.2
					c0-0.9-0.3-1.7-0.9-2.2c-0.6-0.5-1.4-0.8-2.4-0.8h-8V52.6z"/>
				<path class="st1" d="M191.5,62.5h-1.4l-8.6-17.9h2.4l6.9,14.4l6.9-14.4h2.5L191.5,62.5z"/>
				<path class="st1" d="M202.6,62.5V44.6h14.1v2.1h-11.9v5.3h7.2V54h-7.2v6.5h12.6v2.1H202.6z"/>
				<path class="st1" d="M228.5,44.6c2.8,0,5.1,0.8,6.8,2.5c1.7,1.7,2.6,3.8,2.6,6.5c0,2.7-0.9,4.9-2.6,6.5c-1.7,1.6-4,2.4-6.9,2.4
					h-7.7V44.6H228.5z M228.5,46.6H223v13.8h5.5c2.2,0,3.9-0.6,5.2-1.9c1.3-1.2,1.9-2.9,1.9-5c0-2.1-0.6-3.8-1.9-5
					C232.4,47.3,230.6,46.6,228.5,46.6z"/>
				<path class="st1" d="M238.5,62.5l8.8-17.9h1.9l8.9,17.9h-2.4l-2.4-4.8h-9.9l-2.4,4.8H238.5z M244.3,55.6h7.9l-4-7.9L244.3,55.6z
					"/>
			</g>
		</g>
	</g>
</g>
</svg>
