<?xml version="1.0" encoding="utf-8"?>
<!-- Generator: Adobe Illustrator 21.1.0, SVG Export Plug-In . SVG Version: 6.00 Build 0)  -->
<svg version="1.0" id="Layer_1" xmlns="http://www.w3.org/2000/svg" xmlns:xlink="http://www.w3.org/1999/xlink" x="0px" y="0px"
	 viewBox="0 0 109.2 93.3" style="enable-background:new 0 0 109.2 93.3;" xml:space="preserve">
<style type="text/css">
	.st0{fill:#E84E1B;}
	.st1{fill:#1D1D1B;}
</style>
<g>
	<g>
		<path class="st0" d="M52.7,43.4c-0.2,0-0.4-0.1-0.5-0.3c-0.1-0.2-0.1-0.5,0-0.7c0-0.1,0.7-1.2,0-2.6c-0.2-0.4-0.7-1-1.3-1.7
			c-1.9-2.3-5.2-6.2-5.2-10.6c0-2.7,1.1-4.8,3.1-6.2c1.5-1.1,3.6-1.7,5.5-1.7c3.5,0,7.4,2.8,7.4,7.2c0,0.1,0.1,3.1-3.1,6.3
			c-2.8,2.8-3.8,5.5-3.8,7C54.8,42.2,53.6,43.3,52.7,43.4C52.7,43.4,52.7,43.4,52.7,43.4z M54.3,21c-2.6,0-7.4,1.4-7.4,6.7
			c0,4,3.1,7.6,4.9,9.8c0.7,0.8,1.2,1.4,1.4,1.9c0.1,0.2,0.2,0.4,0.3,0.6c0.1-1.8,1.3-4.7,4.2-7.6c2.8-2.8,2.8-5.4,2.8-5.4
			C60.5,23.2,57.3,21,54.3,21z"/>
		<path class="st0" d="M53.2,43.2c-0.2,0-0.4-0.1-0.5-0.3c-0.2-0.3-0.1-0.7,0.2-0.9c6.7-3.9,6-10.3,5.9-10.6c0-0.3,0.2-0.7,0.5-0.7
			c0.3,0,0.7,0.2,0.7,0.5c0,0.1,0.9,7.5-6.5,11.9C53.4,43.1,53.3,43.2,53.2,43.2z"/>
		<path class="st0" d="M57.8,21.9C57.8,21.9,57.8,21.9,57.8,21.9c-0.4,0-0.6-0.3-0.6-0.6c0,0,0-0.6-0.5-1.1
			c-0.5-0.6-1.5-0.8-2.8-0.8c-1.3,0-2.2,0.3-2.8,0.8c-0.5,0.5-0.5,1.1-0.5,1.1c0,0.3-0.3,0.6-0.6,0.6c0,0,0,0,0,0
			c-0.3,0-0.6-0.3-0.6-0.6c0-0.1,0-1.1,0.9-2c0.8-0.8,2-1.2,3.7-1.2c1.7,0,2.9,0.4,3.7,1.2c0.9,0.9,0.9,1.9,0.9,2
			C58.4,21.6,58.1,21.9,57.8,21.9z"/>
		<path class="st0" d="M56,19.1C56,19.1,56,19.1,56,19.1c-0.3,0-0.5-0.2-0.5-0.5c0-0.1-0.1-0.9-1.7-0.9c-0.7,0-1.2,0.1-1.4,0.4
			c-0.2,0.2-0.2,0.5-0.2,0.5c0,0.3-0.2,0.5-0.5,0.5c-0.3,0-0.5-0.2-0.5-0.5c0-0.1,0-0.7,0.5-1.2c0.5-0.5,1.2-0.7,2.1-0.7
			c1,0,1.7,0.2,2.1,0.7c0.5,0.5,0.5,1.2,0.5,1.2C56.5,18.9,56.3,19.1,56,19.1z"/>
		<path class="st0" d="M52.9,17.1c-0.2,0-0.4-0.2-0.4-0.4c0-0.1,0-0.5,0.4-0.9c0.2-0.3,0.6-0.4,1-0.4c0.4,0,0.8,0.1,1,0.4
			c0.4,0.4,0.4,0.9,0.4,0.9c0,0.2-0.2,0.4-0.4,0.4c0,0,0,0,0,0c-0.2,0-0.4-0.2-0.4-0.4c0-0.2-0.1-0.5-0.6-0.5
			c-0.2,0-0.4,0.1-0.5,0.2c-0.1,0.1-0.1,0.4-0.1,0.4C53.2,17,53.1,17.1,52.9,17.1C52.9,17.1,52.9,17.1,52.9,17.1z"/>
		<path class="st0" d="M53.7,45.6c-9,0-16.3-7.3-16.3-16.3c0-9,7.3-16.3,16.3-16.3c9,0,16.3,7.3,16.3,16.3
			C69.9,38.3,62.7,45.6,53.7,45.6z M53.7,14.3c-8.3,0-15,6.7-15,15c0,8.3,6.7,15,15,15c8.3,0,15-6.7,15-15
			C68.7,21.1,62,14.3,53.7,14.3z"/>
		<path class="st0" d="M53.7,50C42.3,50,33,40.7,33,29.3c0-11.4,9.3-20.7,20.7-20.7s20.7,9.3,20.7,20.7C74.4,40.7,65.1,50,53.7,50z
			 M53.7,9.9c-10.7,0-19.4,8.7-19.4,19.4c0,10.7,8.7,19.4,19.4,19.4c10.7,0,19.4-8.7,19.4-19.4C73.1,18.6,64.4,9.9,53.7,9.9z"/>
		<g>
			<path class="st0" d="M54.6,11.5c0,0.5-0.4,0.9-0.9,0.9s-0.9-0.4-0.9-0.9c0-0.5,0.4-0.9,0.9-0.9S54.6,11,54.6,11.5z M53.7,46.3
				c-0.5,0-0.9,0.4-0.9,0.9c0,0.5,0.4,0.9,0.9,0.9s0.9-0.4,0.9-0.9C54.6,46.7,54.2,46.3,53.7,46.3z"/>
			<path class="st0" d="M51.5,11.6c0.1,0.5-0.2,1-0.7,1c-0.5,0.1-1-0.2-1-0.7c-0.1-0.5,0.2-1,0.7-1C50.9,10.8,51.4,11.1,51.5,11.6z
				 M56.6,46c-0.5,0.1-0.8,0.6-0.7,1.1c0.1,0.5,0.6,0.8,1,0.7c0.5-0.1,0.8-0.6,0.7-1.1C57.6,46.3,57.1,45.9,56.6,46z"/>
			<path class="st0" d="M48.4,12.2c0.2,0.5-0.1,1-0.5,1.2c-0.5,0.2-1-0.1-1.2-0.5c-0.2-0.5,0.1-1,0.5-1.2
				C47.7,11.5,48.3,11.8,48.4,12.2z M59.5,45.2c-0.5,0.2-0.7,0.7-0.5,1.2c0.2,0.5,0.7,0.7,1.2,0.5c0.5-0.2,0.7-0.7,0.5-1.2
				C60.5,45.3,60,45.1,59.5,45.2z"/>
			<path class="st0" d="M45.5,13.4c0.3,0.4,0.1,1-0.3,1.2c-0.4,0.3-1,0.1-1.2-0.3c-0.3-0.4-0.1-1,0.3-1.2
				C44.7,12.8,45.3,13,45.5,13.4z M62.2,44c-0.4,0.3-0.6,0.8-0.3,1.2c0.3,0.4,0.8,0.6,1.2,0.3c0.4-0.3,0.6-0.8,0.3-1.2
				C63.1,43.9,62.6,43.8,62.2,44z"/>
			<path class="st0" d="M42.9,15.1c0.3,0.4,0.3,1-0.1,1.3c-0.4,0.3-1,0.3-1.3-0.1c-0.3-0.4-0.3-1,0.1-1.3
				C42,14.6,42.6,14.7,42.9,15.1z M64.6,42.3c-0.4,0.3-0.4,0.9-0.1,1.3c0.3,0.4,0.9,0.4,1.3,0.1c0.4-0.3,0.4-0.9,0.1-1.3
				C65.5,42,65,42,64.6,42.3z"/>
			<path class="st0" d="M40.6,17.2c0.4,0.3,0.4,0.9,0.1,1.3c-0.3,0.4-0.9,0.4-1.3,0.1c-0.4-0.3-0.4-0.9-0.1-1.3
				C39.6,16.9,40.2,16.8,40.6,17.2z M66.7,40.2c-0.3,0.4-0.3,1,0.1,1.3c0.4,0.3,1,0.3,1.3-0.1c0.3-0.4,0.3-1-0.1-1.3
				C67.6,39.8,67,39.8,66.7,40.2z"/>
			<path class="st0" d="M38.7,19.6c0.4,0.3,0.6,0.8,0.3,1.2c-0.2,0.4-0.8,0.6-1.2,0.3c-0.4-0.3-0.6-0.8-0.3-1.2
				C37.7,19.5,38.2,19.4,38.7,19.6z M68.4,37.8c-0.3,0.4-0.1,1,0.3,1.2c0.4,0.3,1,0.1,1.2-0.3c0.3-0.4,0.1-1-0.3-1.2
				C69.2,37.2,68.6,37.4,68.4,37.8z"/>
			<path class="st0" d="M37.2,22.4c0.5,0.2,0.7,0.7,0.5,1.2c-0.2,0.5-0.7,0.7-1.2,0.5c-0.5-0.2-0.7-0.7-0.5-1.2
				C36.2,22.4,36.7,22.2,37.2,22.4z M69.6,35.1c-0.2,0.5,0.1,1,0.5,1.2c0.5,0.2,1-0.1,1.2-0.5c0.2-0.5-0.1-1-0.5-1.2
				C70.3,34.4,69.8,34.7,69.6,35.1z"/>
			<path class="st0" d="M36.3,25.3c0.5,0.1,0.8,0.6,0.7,1.1c-0.1,0.5-0.6,0.8-1,0.7c-0.5-0.1-0.8-0.6-0.7-1.1
				C35.3,25.6,35.8,25.3,36.3,25.3z M70.4,32.3c-0.1,0.5,0.2,1,0.7,1c0.5,0.1,1-0.2,1.1-0.7c0.1-0.5-0.2-1-0.7-1.1
				C70.9,31.4,70.5,31.8,70.4,32.3z"/>
			<path class="st0" d="M35.8,28.4c0.5,0,0.9,0.4,0.9,0.9c0,0.5-0.4,0.9-0.9,0.9c-0.5,0-0.9-0.4-0.9-0.9
				C34.9,28.8,35.3,28.4,35.8,28.4z M70.6,29.3c0,0.5,0.4,0.9,0.9,0.9c0.5,0,0.9-0.4,0.9-0.9c0-0.5-0.4-0.9-0.9-0.9
				C71,28.4,70.6,28.8,70.6,29.3z"/>
			<path class="st0" d="M36,31.5c0.5-0.1,1,0.2,1,0.7c0.1,0.5-0.2,1-0.7,1c-0.5,0.1-1-0.2-1.1-0.7C35.1,32.1,35.5,31.6,36,31.5z
				 M70.4,26.4c0.1,0.5,0.6,0.8,1,0.7c0.5-0.1,0.8-0.6,0.7-1.1c-0.1-0.5-0.6-0.8-1.1-0.7C70.6,25.4,70.3,25.9,70.4,26.4z"/>
			<path class="st0" d="M36.6,34.6c0.5-0.2,1,0.1,1.2,0.5c0.2,0.5-0.1,1-0.5,1.2c-0.5,0.2-1-0.1-1.2-0.5
				C35.9,35.3,36.1,34.8,36.6,34.6z M69.6,23.5c0.2,0.5,0.7,0.7,1.2,0.5c0.5-0.2,0.7-0.7,0.5-1.2c-0.2-0.5-0.7-0.7-1.2-0.5
				C69.7,22.5,69.4,23.1,69.6,23.5z"/>
			<path class="st0" d="M37.8,37.5c0.4-0.2,1-0.1,1.2,0.3c0.3,0.4,0.1,1-0.3,1.2c-0.4,0.3-1,0.1-1.2-0.3
				C37.2,38.3,37.3,37.7,37.8,37.5z M68.4,20.9c0.2,0.4,0.8,0.6,1.2,0.3c0.4-0.2,0.6-0.8,0.3-1.2c-0.2-0.4-0.8-0.6-1.2-0.3
				C68.3,19.9,68.1,20.4,68.4,20.9z"/>
			<path class="st0" d="M39.4,40.1c0.4-0.3,1-0.3,1.3,0.1c0.3,0.4,0.3,1-0.1,1.3c-0.4,0.3-1,0.3-1.3-0.1C39,41,39,40.4,39.4,40.1z
				 M66.7,18.4c0.3,0.4,0.9,0.4,1.3,0.1c0.4-0.3,0.4-0.9,0.1-1.3c-0.3-0.4-0.9-0.4-1.3-0.1C66.4,17.5,66.3,18.1,66.7,18.4z"/>
			<path class="st0" d="M41.5,42.4c0.3-0.4,0.9-0.4,1.3-0.1c0.4,0.3,0.4,0.9,0.1,1.3C42.6,44,42,44,41.6,43.7
				C41.2,43.4,41.2,42.8,41.5,42.4z M64.6,16.3c0.4,0.3,1,0.3,1.3-0.1c0.3-0.4,0.3-1-0.1-1.3c-0.4-0.3-1-0.3-1.3,0.1
				C64.1,15.5,64.2,16,64.6,16.3z"/>
			<path class="st0" d="M44,44.3c0.3-0.4,0.8-0.6,1.2-0.3c0.4,0.3,0.6,0.8,0.3,1.2c-0.3,0.4-0.8,0.6-1.2,0.3
				C43.9,45.3,43.7,44.8,44,44.3z M62.2,14.7c0.4,0.2,1,0.1,1.2-0.3c0.2-0.4,0.1-1-0.3-1.2c-0.4-0.3-1-0.1-1.2,0.3
				C61.6,13.9,61.7,14.4,62.2,14.7z"/>
			<path class="st0" d="M46.7,45.8c0.2-0.5,0.7-0.7,1.2-0.5c0.5,0.2,0.7,0.7,0.5,1.2c-0.2,0.5-0.7,0.7-1.2,0.5
				C46.8,46.8,46.6,46.3,46.7,45.8z M59.5,13.4c0.5,0.2,1-0.1,1.2-0.5c0.2-0.5-0.1-1-0.5-1.2c-0.5-0.2-1,0.1-1.2,0.5
				C58.8,12.7,59,13.2,59.5,13.4z"/>
			<path class="st0" d="M49.7,46.7c0.1-0.5,0.6-0.8,1.1-0.7c0.5,0.1,0.8,0.6,0.7,1.1c-0.1,0.5-0.6,0.8-1.1,0.7
				C49.9,47.7,49.6,47.2,49.7,46.7z M56.6,12.6c0.5,0.1,1-0.2,1-0.7c0.1-0.5-0.2-1-0.7-1.1c-0.5-0.1-1,0.2-1,0.7
				C55.8,12.1,56.1,12.6,56.6,12.6z"/>
		</g>
		<path class="st0" d="M35.1,22.3c-0.1,0-0.2,0-0.2,0c-0.8-0.3-4.5-2.1-3.4-6.6c0.2-0.8,0.7-1.6,1.1-2.4c0.9-1.7,1.4-2.7,0.4-3.7
			c-0.2-0.2-0.2-0.6,0-0.9c0.2-0.2,0.6-0.2,0.9,0c1,1,2,0.5,3.7-0.4c0.8-0.4,1.6-0.9,2.4-1.1c4.5-1.1,6.3,2.7,6.6,3.4
			c0.1,0.3,0,0.7-0.3,0.8c-0.3,0.1-0.7,0-0.8-0.3c-0.4-0.8-1.8-3.5-5.1-2.7c-0.7,0.2-1.4,0.6-2.1,1c-1,0.6-2.2,1.2-3.4,1.1
			c0.1,1.2-0.5,2.4-1.1,3.4c-0.4,0.7-0.8,1.4-1,2.1c-0.8,3.4,1.9,4.8,2.7,5.1c0.3,0.1,0.5,0.5,0.3,0.8
			C35.6,22.1,35.4,22.3,35.1,22.3z"/>
		<path class="st0" d="M65.8,51.8c-3.3,0-4.8-3-5-3.7c-0.1-0.3,0-0.7,0.3-0.8c0.3-0.1,0.7,0,0.8,0.3c0.4,0.8,1.8,3.6,5.1,2.7
			c0.7-0.2,1.4-0.6,2.1-1c1-0.6,2.2-1.2,3.4-1.1c-0.1-1.2,0.5-2.4,1.1-3.4c0.4-0.7,0.8-1.4,1-2.1c0.8-3.4-1.9-4.8-2.7-5.1
			c-0.3-0.1-0.5-0.5-0.3-0.8c0.1-0.3,0.5-0.5,0.8-0.3c0.8,0.3,4.6,2.1,3.4,6.6c-0.2,0.8-0.7,1.6-1.1,2.4c-0.9,1.7-1.4,2.7-0.4,3.7
			c0.2,0.2,0.2,0.6,0,0.9c-0.2,0.2-0.6,0.2-0.9,0c-1-1-2-0.5-3.7,0.4c-0.8,0.4-1.6,0.9-2.4,1.1C66.8,51.7,66.3,51.8,65.8,51.8z"/>
		<path class="st0" d="M32.9,38.1c-1.5,0-3.3-0.5-4.6-2.7c-0.4-0.7-0.7-1.6-1-2.5C26.8,31,26.4,30,25,30c-0.3,0-0.6-0.3-0.6-0.6
			c0-0.3,0.3-0.6,0.6-0.6l0,0c1.4,0,1.8-1.1,2.3-2.9c0.2-0.9,0.5-1.7,1-2.5c2.4-3.9,6.3-2.5,7.1-2.2c0.3,0.1,0.5,0.5,0.3,0.8
			c-0.1,0.3-0.5,0.5-0.8,0.3c-0.8-0.4-3.8-1.3-5.6,1.7c-0.4,0.6-0.6,1.4-0.8,2.2c-0.3,1.1-0.7,2.4-1.6,3.2c0.9,0.8,1.3,2.1,1.6,3.2
			c0.2,0.8,0.5,1.6,0.8,2.2c1.8,3,4.7,2.1,5.6,1.7c0.3-0.1,0.7,0,0.8,0.3c0.1,0.3,0,0.7-0.3,0.8C35,37.7,34.1,38.1,32.9,38.1z"/>
		<path class="st0" d="M74.5,38.1c-1.2,0-2.2-0.4-2.5-0.5c-0.3-0.1-0.5-0.5-0.3-0.8c0.1-0.3,0.5-0.5,0.8-0.3
			c0.8,0.3,3.8,1.3,5.6-1.7c0.4-0.6,0.6-1.4,0.8-2.2c0.3-1.1,0.7-2.4,1.6-3.2c-0.9-0.8-1.3-2.1-1.6-3.2c-0.2-0.8-0.5-1.6-0.8-2.2
			c-1.8-3-4.7-2.1-5.6-1.7c-0.3,0.1-0.7,0-0.8-0.3c-0.1-0.3,0-0.7,0.3-0.8c0.8-0.3,4.7-1.7,7.1,2.2c0.5,0.7,0.7,1.6,1,2.5
			c0.5,1.9,0.9,2.9,2.3,2.9c0.3,0,0.6,0.3,0.6,0.6c0,0.3-0.3,0.6-0.6,0.6C81,30,80.6,31,80,32.9c-0.2,0.9-0.5,1.7-1,2.5
			C77.8,37.5,76,38.1,74.5,38.1z"/>
		<path class="st0" d="M41.5,51.8c-0.5,0-1-0.1-1.6-0.2c-0.8-0.2-1.7-0.7-2.4-1.1c-1.7-0.9-2.7-1.4-3.7-0.4c-0.2,0.2-0.6,0.2-0.9,0
			c-0.1-0.1-0.2-0.3-0.2-0.4c0-0.2,0.1-0.3,0.2-0.4c1-1,0.5-2-0.4-3.7c-0.4-0.8-0.9-1.6-1.1-2.4c-1.1-4.5,2.7-6.3,3.4-6.6
			c0.3-0.1,0.7,0,0.8,0.3c0.1,0.3,0,0.7-0.3,0.8c-0.8,0.4-3.6,1.8-2.7,5.1c0.2,0.7,0.6,1.4,1,2.1c0.6,1,1.2,2.2,1.1,3.4
			c1.2-0.1,2.4,0.5,3.4,1.1c0.7,0.4,1.4,0.8,2.1,1c3.4,0.8,4.8-1.9,5.1-2.7c0.1-0.3,0.5-0.5,0.8-0.3c0.3,0.1,0.5,0.5,0.3,0.8
			C46.3,48.8,44.9,51.8,41.5,51.8z"/>
		<path class="st0" d="M72.2,22.3c-0.2,0-0.5-0.1-0.6-0.4c-0.1-0.3,0-0.7,0.3-0.8c0.8-0.4,3.5-1.8,2.7-5.1c-0.2-0.7-0.6-1.4-1-2.1
			c-0.6-1-1.2-2.2-1.1-3.4c-1.2,0.1-2.4-0.5-3.4-1.1c-0.7-0.4-1.4-0.8-2.1-1c-3.4-0.8-4.8,1.9-5.1,2.7c-0.1,0.3-0.5,0.5-0.8,0.3
			c-0.3-0.1-0.5-0.5-0.3-0.8c0.3-0.8,2.1-4.6,6.6-3.4c0.8,0.2,1.7,0.6,2.4,1.1c1.7,0.9,2.7,1.4,3.7,0.4c0.2-0.2,0.6-0.2,0.9,0
			c0.1,0.1,0.2,0.3,0.2,0.4c0,0.2-0.1,0.3-0.2,0.4c-1,1-0.5,2,0.4,3.7c0.4,0.8,0.9,1.6,1.1,2.4c1.1,4.5-2.7,6.3-3.4,6.6
			C72.4,22.3,72.3,22.3,72.2,22.3z"/>
		<path class="st0" d="M53.7,58.7L53.7,58.7c-0.3,0-0.6-0.3-0.6-0.6c0-1.4-1.1-1.8-2.9-2.3c-0.9-0.2-1.7-0.5-2.5-1
			c-3.9-2.4-2.5-6.3-2.2-7.1c0.1-0.3,0.5-0.5,0.8-0.3c0.3,0.1,0.5,0.5,0.3,0.8c-0.4,0.9-1.3,3.8,1.7,5.6c0.6,0.4,1.4,0.6,2.2,0.8
			c1.1,0.3,2.4,0.7,3.2,1.6c0.8-0.9,2.1-1.3,3.2-1.6c0.8-0.2,1.6-0.5,2.2-0.8c3-1.8,2.1-4.7,1.7-5.6c-0.1-0.3,0-0.7,0.3-0.8
			c0.3-0.1,0.7,0,0.8,0.3c0.3,0.8,1.7,4.7-2.2,7.1c-0.7,0.5-1.6,0.7-2.5,1c-1.9,0.5-2.9,0.9-2.9,2.3C54.3,58.4,54,58.7,53.7,58.7z"
			/>
		<path class="st0" d="M46,11.4c-0.2,0-0.5-0.1-0.6-0.4c-0.3-0.8-1.7-4.7,2.2-7.1c0.7-0.5,1.6-0.7,2.5-1C52,2.4,53.1,2,53.1,0.6
			c0-0.3,0.3-0.6,0.6-0.6l0,0c0.3,0,0.6,0.3,0.6,0.6c0,1.4,1.1,1.8,2.9,2.3c0.8,0.2,1.7,0.5,2.5,1c3.9,2.4,2.5,6.3,2.2,7.1
			c-0.1,0.3-0.5,0.5-0.8,0.3c-0.3-0.1-0.5-0.5-0.3-0.8c0.4-0.8,1.3-3.8-1.7-5.6c-0.6-0.4-1.4-0.6-2.2-0.8c-1.1-0.3-2.4-0.7-3.2-1.6
			c-0.8,0.9-2.1,1.3-3.2,1.6c-0.8,0.2-1.6,0.5-2.2,0.8c-3,1.8-2.1,4.7-1.7,5.6c0.1,0.3,0,0.7-0.3,0.8C46.2,11.4,46.1,11.4,46,11.4z"
			/>
	</g>
	<g>
		<g>
			<path class="st1" d="M0,77.6V65.3h0.8l8,9.2v-9.2h1.5v12.3H9.5l-8-9.2v9.2H0z"/>
			<path class="st1" d="M14,77.6V65.2h1.5v12.4H14z"/>
			<path class="st1" d="M19.2,77.6V65.3h7.1c1.2,0,2.1,0.3,2.8,0.9c0.7,0.6,1,1.4,1,2.5c0,0.9-0.3,1.7-0.8,2.3
				c-0.5,0.6-1.2,1-2.1,1.2l3.1,5.4h-1.7l-3.1-5.4h-4.8v5.4H19.2z M20.7,70.7h5.4c0.8,0,1.4-0.2,1.8-0.5c0.4-0.3,0.6-0.8,0.6-1.5
				c0-0.7-0.2-1.2-0.6-1.5c-0.4-0.4-1-0.5-1.7-0.5h-5.5V70.7z"/>
			<path class="st1" d="M30.2,77.6l6-12.3h1.3l6.1,12.3H42l-1.7-3.3h-6.8l-1.6,3.3H30.2z M34.2,72.8h5.4l-2.7-5.5L34.2,72.8z"/>
			<path class="st1" d="M43.3,77.6l6-12.3h1.3l6.1,12.3H55l-1.7-3.3h-6.8l-1.6,3.3H43.3z M47.2,72.8h5.4l-2.7-5.5L47.2,72.8z"/>
			<path class="st1" d="M58.5,77.6V65.3h1.4l5,7.5l5-7.5h1.4v12.3h-1.5V68l-4.9,7.3L60,68v9.6H58.5z"/>
			<path class="st1" d="M73,77.6l6-12.3h1.3l6.1,12.3h-1.7l-1.7-3.3h-6.8l-1.6,3.3H73z M77,72.8h5.4l-2.7-5.5L77,72.8z"/>
			<path class="st1" d="M90.3,77.6v-6.2l-5.5-6.1h1.9l4.4,4.9l4.4-4.9h1.9l-5.6,6.2v6.1H90.3z"/>
			<path class="st1" d="M95.8,77.6l6-12.3h1.3l6.1,12.3h-1.7l-1.7-3.3h-6.8l-1.6,3.3H95.8z M99.8,72.8h5.4l-2.7-5.5L99.8,72.8z"/>
		</g>
		<g>
			<g>
				<path class="st1" d="M12.6,93l4.8-9.9h1l4.9,9.9H22l-1.3-2.7h-5.4L14,93H12.6z M15.8,89.2h4.3L18,84.8L15.8,89.2z"/>
				<path class="st1" d="M26.5,93v-4.9l-4.4-4.9h1.5l3.5,3.9l3.5-3.9h1.6l-4.5,4.9V93H26.5z"/>
				<path class="st1" d="M33.7,83.1v6.4c0,1,0.2,1.7,0.6,2.1c0.4,0.4,1.1,0.5,2.3,0.5c1.1,0,1.9-0.2,2.3-0.5c0.4-0.3,0.6-1,0.6-2.1
					v-6.4h1.2v6.7c0,1.2-0.3,2.1-0.9,2.6C39,93,38,93.3,36.6,93.3c-1.4,0-2.5-0.3-3.1-0.8c-0.6-0.5-0.9-1.4-0.9-2.6v-6.7H33.7z"/>
				<path class="st1" d="M43.3,93v-9.9h5.6c1,0,1.7,0.2,2.3,0.7c0.5,0.5,0.8,1.2,0.8,2c0,0.7-0.2,1.3-0.6,1.8c-0.4,0.5-1,0.8-1.7,1
					l2.5,4.3h-1.4l-2.5-4.3h-3.8V93H43.3z M44.5,87.5h4.3c0.6,0,1.1-0.1,1.4-0.4c0.3-0.3,0.5-0.7,0.5-1.2c0-0.5-0.2-0.9-0.5-1.2
					c-0.3-0.3-0.8-0.4-1.3-0.4h-4.4V87.5z"/>
				<path class="st1" d="M58.2,93h-0.8l-4.7-9.9H54l3.8,7.9l3.8-7.9h1.4L58.2,93z"/>
				<path class="st1" d="M64.3,93v-9.9H72v1.1h-6.5v2.9h3.9v1.1h-3.9v3.6h6.9V93H64.3z"/>
				<path class="st1" d="M78.5,83.1c1.6,0,2.8,0.5,3.7,1.4c1,0.9,1.4,2.1,1.4,3.6c0,1.5-0.5,2.7-1.4,3.6C81.3,92.5,80,93,78.5,93
					h-4.2v-9.9H78.5z M78.5,84.3h-3v7.6h3c1.2,0,2.2-0.3,2.9-1c0.7-0.7,1-1.6,1-2.8c0-1.1-0.4-2.1-1.1-2.8
					C80.6,84.6,79.7,84.3,78.5,84.3z"/>
				<path class="st1" d="M84,93l4.8-9.9h1l4.9,9.9h-1.3L92,90.3h-5.4L85.3,93H84z M87.2,89.2h4.3l-2.2-4.4L87.2,89.2z"/>
			</g>
		</g>
	</g>
</g>
</svg>
