<?xml version="1.0" encoding="utf-8"?>
<!-- Generator: Adobe Illustrator 16.0.4, SVG Export Plug-In . SVG Version: 6.00 Build 0)  -->
<!DOCTYPE svg PUBLIC "-//W3C//DTD SVG 1.0//EN" "http://www.w3.org/TR/2001/REC-SVG-20010904/DTD/svg10.dtd">
<svg version="1.0" id="Layer_1" xmlns="http://www.w3.org/2000/svg" xmlns:xlink="http://www.w3.org/1999/xlink" x="0px" y="0px"
	 width="750px" height="197.521px" viewBox="0 0 750 197.521" enable-background="new 0 0 750 197.521" xml:space="preserve">
<g>
	<g>
		<path fill="#F05A28" d="M95.464,146.096c-0.791,0-1.318-0.264-1.846-1.055c-0.527-0.791-0.527-1.582,0-2.109
			c0-0.264,2.374-4.221,0-8.703c-0.791-1.318-2.374-3.164-4.219-5.537c-6.593-7.646-17.405-20.834-17.405-35.602
			c0-8.966,3.692-16.352,10.548-21.098c5.011-3.429,12.131-5.537,18.724-5.537c11.867,0,24.789,9.229,24.789,24.262
			c0,0.264,0.264,10.547-10.548,21.36c-9.494,9.494-12.922,18.461-12.922,23.734C102.321,141.878,98.365,145.833,95.464,146.096
			L95.464,146.096z M101.002,70.41c-8.702,0-25.053,4.747-25.053,22.416c0,13.448,10.285,25.581,16.614,32.963
			c2.109,2.639,3.956,4.748,4.747,6.33c0.527,0.791,0.791,1.582,1.055,2.109c0.528-6.33,4.22-15.822,13.977-25.316
			c9.494-9.23,9.23-18.196,9.23-18.196C121.572,78.323,110.759,70.41,101.002,70.41z"/>
		<path fill="#F05A28" d="M97.046,145.305c-0.791,0-1.318-0.264-1.846-1.055c-0.527-1.057-0.264-2.373,0.792-2.9
			c22.416-13.186,20.042-34.811,20.042-35.602c-0.264-1.057,0.791-2.109,1.846-2.373c1.055-0.266,2.109,0.791,2.373,1.846
			c0,0.264,2.901,25.316-21.888,39.82C97.837,145.042,97.574,145.305,97.046,145.305z"/>
		<path fill="#F05A28" d="M112.605,73.575L112.605,73.575c-1.318,0-2.11-1.056-2.11-2.109c0,0,0-2.11-1.846-3.956
			c-1.846-1.846-5.011-2.9-9.23-2.9c-4.22,0-7.384,1.056-9.23,2.9c-1.846,1.846-1.846,3.692-1.846,3.956
			c0,1.055-0.791,2.109-2.109,2.109l0,0c-1.055,0-2.11-0.791-2.11-2.109c0-0.264,0-3.692,2.901-6.856
			c2.637-2.9,6.856-4.22,12.395-4.22s9.757,1.318,12.395,4.22c2.901,2.9,2.901,6.329,2.901,6.856
			C114.715,72.784,113.66,73.575,112.605,73.575z"/>
		<path fill="#F05A28" d="M106.54,64.346L106.54,64.346c-1.055,0-1.582-0.792-1.582-1.583c0-0.264-0.264-3.164-5.538-3.164
			c-2.11,0-3.956,0.527-4.747,1.318s-0.791,1.582-0.791,1.582c0,1.055-0.791,1.582-1.582,1.847c-1.055,0-1.583-0.792-1.846-1.583
			c0-0.264,0-2.373,1.846-4.219c1.582-1.583,3.956-2.374,7.12-2.374s5.538,0.791,7.12,2.374c1.846,1.846,1.846,3.955,1.846,4.219
			C108.123,63.554,107.595,64.346,106.54,64.346z"/>
		<path fill="#F05A28" d="M95.992,57.752c-0.792,0-1.319-0.527-1.319-1.318c0-0.264,0-1.846,1.319-3.164
			c0.791-0.791,2.109-1.317,3.428-1.317c1.582,0,2.637,0.526,3.428,1.317c1.318,1.318,1.318,2.9,1.318,3.164
			c0,0.791-0.527,1.318-1.318,1.318l0,0c-0.791,0-1.319-0.527-1.319-1.318c0-0.526-0.264-1.846-2.109-1.846
			c-0.791,0-1.319,0.264-1.583,0.527c-0.527,0.526-0.527,1.317-0.527,1.317C97.046,57.225,96.519,57.752,95.992,57.752
			L95.992,57.752z"/>
		<path fill="#F05A28" d="M98.629,153.481c-30.063,0-54.853-24.525-54.853-54.853c0-30.063,24.525-54.854,54.853-54.854
			c30.327,0,54.852,24.789,54.852,54.854C153.481,128.956,128.956,153.481,98.629,153.481z M98.629,48.259
			c-27.954,0-50.633,22.68-50.633,50.633c0,27.955,22.68,50.632,50.633,50.632s50.633-22.941,50.633-50.895
			C149.262,70.939,126.582,48.259,98.629,48.259z"/>
		<path fill="#F05A28" d="M98.629,168.249c-38.239,0-69.621-31.119-69.621-69.621c0-38.502,31.382-69.62,69.621-69.62
			c38.238,0,69.62,31.118,69.62,69.62C168.249,137.13,137.131,168.249,98.629,168.249z M98.629,33.227
			c-36.129,0-65.401,29.272-65.401,65.401c0,36.128,29.272,65.4,65.401,65.4c36.128,0,65.4-29.271,65.4-65.4
			C164.029,62.499,134.757,33.227,98.629,33.227z"/>
		<g>
			<path fill="#F05A28" d="M101.793,38.501c0,1.583-1.318,3.165-3.164,3.165c-1.846,0-3.165-1.318-3.165-3.165
				c0-1.582,1.319-3.164,3.165-3.164C100.475,35.337,101.793,36.919,101.793,38.501z M98.629,155.854
				c-1.583,0-3.165,1.318-3.165,3.164c0,1.848,1.319,3.164,3.165,3.164c1.846,0,3.165-1.316,3.165-3.164
				C101.793,157.173,100.475,155.854,98.629,155.854z"/>
			<path fill="#F05A28" d="M91.245,39.029c0.264,1.583-0.791,3.165-2.374,3.43c-1.582,0.264-3.165-0.791-3.428-2.373
				c-0.264-1.583,0.792-3.165,2.374-3.429C89.399,36.128,90.981,37.448,91.245,39.029z M108.65,154.8
				c-1.583,0.264-2.637,1.846-2.374,3.428c0.264,1.582,1.846,2.9,3.428,2.373c1.583-0.264,2.637-1.846,2.374-3.428
				C111.814,155.591,110.232,154.536,108.65,154.8z"/>
			<path fill="#F05A28" d="M80.96,41.139c0.527,1.582-0.264,3.428-1.846,3.955c-1.582,0.527-3.428-0.264-3.956-1.846
				c-0.528-1.582,0.264-3.428,1.846-3.956C78.586,38.765,80.433,39.557,80.96,41.139z M118.144,152.427
				c-1.583,0.527-2.374,2.373-1.846,3.955c0.528,1.582,2.374,2.373,3.956,1.846c1.583-0.527,2.374-2.373,1.846-3.955
				C121.572,152.427,119.726,151.634,118.144,152.427z"/>
			<path fill="#F05A28" d="M71.203,45.094c0.791,1.583,0.264,3.429-1.055,4.22c-1.582,0.791-3.428,0.265-4.219-1.055
				c-0.791-1.582-0.264-3.429,1.055-4.22C68.565,43.248,70.411,43.776,71.203,45.094z M127.11,148.206
				c-1.583,0.791-1.846,2.637-1.055,4.221c0.792,1.582,2.637,1.846,4.22,1.055c1.582-0.791,1.846-2.639,1.055-4.221
				S128.692,147.151,127.11,148.206z"/>
			<path fill="#F05A28" d="M62.5,50.632c1.055,1.319,0.791,3.165-0.264,4.22c-1.055,1.055-3.165,0.791-4.22-0.264
				c-1.055-1.055-0.791-3.165,0.264-4.22C59.335,49.314,61.445,49.314,62.5,50.632z M135.285,142.405
				c-1.318,1.055-1.582,2.9-0.264,4.221c1.055,1.316,2.901,1.582,4.219,0.264c1.319-1.057,1.583-2.902,0.264-4.221
				C138.713,141.614,136.604,141.35,135.285,142.405z"/>
			<path fill="#F05A28" d="M54.588,57.752c1.319,1.056,1.583,2.9,0.264,4.22c-1.055,1.318-2.901,1.582-4.22,0.264
				c-1.318-1.317-1.582-2.899-0.264-4.22C51.688,56.698,53.27,56.698,54.588,57.752z M142.405,135.284
				c-1.055,1.318-0.792,3.164,0.264,4.221c1.318,1.055,3.165,0.791,4.219-0.266c1.055-1.318,0.791-3.164-0.264-4.219
				C145.306,133.966,143.46,133.966,142.405,135.284z"/>
			<path fill="#F05A28" d="M48.259,65.928c1.583,0.791,1.846,2.637,1.055,4.219c-0.792,1.583-2.637,1.848-4.22,1.057
				c-1.582-0.792-1.846-2.639-1.055-4.221C44.831,65.664,46.677,65.137,48.259,65.928z M148.207,127.11
				c-0.791,1.582-0.264,3.428,1.055,4.219c1.582,0.791,3.428,0.264,4.219-1.055s0.264-3.428-1.055-4.221
				C150.844,125.262,148.998,125.79,148.207,127.11z"/>
			<path fill="#F05A28" d="M43.249,75.421c1.582,0.526,2.374,2.374,1.846,3.956c-0.527,1.582-2.373,2.373-3.956,1.846
				c-1.582-0.527-2.374-2.373-1.846-3.955C40.084,75.421,41.667,74.63,43.249,75.421z M152.426,118.143
				c-0.527,1.582,0.264,3.43,1.846,3.955c1.583,0.527,3.428-0.264,3.956-1.846c0.527-1.582-0.264-3.428-1.846-3.955
				C154.536,115.77,152.954,116.561,152.426,118.143z"/>
			<path fill="#F05A28" d="M40.084,85.179c1.582,0.264,2.901,1.846,2.374,3.428c-0.264,1.583-1.846,2.639-3.429,2.374
				c-1.582-0.264-2.9-1.847-2.373-3.429C36.92,85.97,38.502,84.915,40.084,85.179z M154.8,108.649
				c-0.264,1.582,0.791,3.164,2.373,3.43c1.583,0.264,3.165-0.791,3.428-2.373c0.264-1.584-0.791-3.166-2.373-3.43
				C156.646,105.749,155.063,107.067,154.8,108.649z"/>
			<path fill="#F05A28" d="M38.502,95.727c1.583,0,3.165,1.319,3.165,3.165c0,1.582-1.318,3.166-3.165,3.166
				c-1.582,0-3.165-1.32-3.165-3.166C35.337,97.046,36.92,95.727,38.502,95.727z M155.854,98.628c0,1.582,1.318,3.166,3.165,3.166
				c1.582,0,3.165-1.32,3.165-3.166c0-1.847-1.319-3.165-3.165-3.165C157.173,95.727,155.854,97.046,155.854,98.628z"/>
			<path fill="#F05A28" d="M39.029,106.012c1.583-0.264,3.165,0.791,3.429,2.373s-0.792,3.164-2.374,3.428
				c-1.583,0.266-3.165-0.791-3.428-2.373C36.129,108.122,37.447,106.54,39.029,106.012z M154.8,88.87
				c0.264,1.583,1.846,2.638,3.428,2.374c1.582-0.265,2.901-1.847,2.373-3.43c-0.264-1.582-1.846-2.637-3.428-2.373
				C155.591,85.443,154.536,87.025,154.8,88.87z"/>
			<path fill="#F05A28" d="M41.139,116.298c1.583-0.527,3.428,0.264,3.956,1.846c0.528,1.582-0.264,3.43-1.846,3.955
				c-1.583,0.527-3.428-0.264-3.956-1.846C38.766,118.671,39.557,117.089,41.139,116.298z M152.426,79.114
				c0.527,1.582,2.374,2.373,3.956,1.847c1.582-0.527,2.374-2.373,1.846-3.955c-0.528-1.583-2.374-2.374-3.956-1.847
				C152.426,75.948,151.635,77.531,152.426,79.114z"/>
			<path fill="#F05A28" d="M45.095,126.053c1.583-0.791,3.428-0.264,4.22,1.057c0.791,1.582,0.264,3.428-1.055,4.219
				c-1.582,0.791-3.428,0.264-4.219-1.055C43.249,128.692,43.776,126.846,45.095,126.053z M148.207,70.147
				c0.792,1.583,2.637,1.848,4.22,1.057c1.582-0.792,1.846-2.639,1.055-4.221s-2.637-1.846-4.219-1.055
				C147.679,66.983,147.152,68.828,148.207,70.147z"/>
			<path fill="#F05A28" d="M50.633,135.02c1.319-1.055,3.165-0.791,4.22,0.266c1.055,1.316,0.791,3.164-0.264,4.219
				c-1.318,1.055-3.165,0.791-4.219-0.266C49.314,137.921,49.314,136.075,50.633,135.02z M142.405,61.972
				c1.055,1.318,2.9,1.582,4.219,0.264c1.318-1.055,1.582-2.899,0.264-4.22c-1.055-1.318-2.901-1.582-4.219-0.264
				C141.35,59.073,141.35,60.654,142.405,61.972z"/>
			<path fill="#F05A28" d="M57.753,142.669c1.055-1.318,2.901-1.582,4.22-0.264c1.318,1.055,1.582,2.898,0.264,4.219
				c-1.055,1.318-2.901,1.582-4.22,0.264C56.962,146.096,56.698,143.987,57.753,142.669z M135.285,55.115
				c1.319,1.055,3.165,0.791,4.22-0.265c1.055-1.317,0.791-3.165-0.264-4.22c-1.318-1.055-3.164-0.791-4.219,0.264
				C133.966,51.951,133.966,54.061,135.285,55.115z"/>
			<path fill="#F05A28" d="M65.928,149.26c0.791-1.582,2.637-1.846,4.219-1.055c1.583,0.791,1.846,2.637,1.055,4.221
				c-0.792,1.582-2.637,1.846-4.22,1.055C65.665,152.427,65.137,150.579,65.928,149.26z M127.11,49.314
				c1.582,0.791,3.428,0.265,4.219-1.055c0.791-1.582,0.264-3.429-1.055-4.22s-3.428-0.265-4.22,1.055
				C125.264,46.677,125.791,48.523,127.11,49.314z"/>
			<path fill="#F05A28" d="M75.422,154.009c0.527-1.582,2.374-2.375,3.956-1.846c1.583,0.525,2.374,2.373,1.846,3.955
				c-0.528,1.582-2.374,2.373-3.956,1.846C75.422,157.436,74.631,155.591,75.422,154.009z M118.144,45.094
				c1.582,0.527,3.428-0.264,3.956-1.846c0.528-1.582-0.264-3.429-1.846-3.956s-3.428,0.265-3.956,1.847
				C115.77,42.721,116.561,44.567,118.144,45.094z"/>
			<path fill="#F05A28" d="M85.179,157.436c0.264-1.582,1.846-2.9,3.428-2.373c1.583,0.264,2.901,1.846,2.374,3.43
				c-0.264,1.582-1.846,2.637-3.428,2.373C85.97,160.6,84.916,159.018,85.179,157.436z M108.65,42.457
				c1.582,0.264,3.165-0.791,3.428-2.373c0.264-1.583-0.791-3.165-2.374-3.43c-1.582-0.264-3.165,0.791-3.428,2.373
				C105.749,40.612,107.067,42.194,108.65,42.457z"/>
		</g>
		<path fill="#F05A28" d="M36.393,74.894c-0.264,0-0.528,0-0.792-0.264c-2.637-1.055-15.295-7.12-11.603-22.151
			c0.791-2.9,2.109-5.538,3.692-8.176c3.165-5.802,4.747-9.229,1.318-12.395c-0.791-0.791-0.791-2.109,0-2.9s2.11-0.791,2.901,0
			c3.428,3.428,6.856,1.846,12.395-1.318c2.637-1.318,5.274-2.9,8.175-3.691c15.032-3.692,21.097,8.966,22.152,11.604
			c0.527,1.055,0,2.373-1.055,2.637c-1.055,0.527-2.374,0-2.637-1.055c-1.055-2.9-5.802-11.867-17.405-9.229
			c-2.374,0.526-4.747,1.846-7.12,3.164c-3.428,1.846-7.384,4.22-11.604,3.691c0.527,3.955-1.846,7.911-3.692,11.604
			c-1.319,2.373-2.637,4.746-3.165,7.12c-2.901,11.34,6.329,16.086,9.23,17.404c1.055,0.527,1.582,1.582,1.055,2.638
			C37.975,74.366,37.184,74.894,36.393,74.894z"/>
		<path fill="#F05A28" d="M139.504,174.313c-11.34,0-16.087-10.02-16.878-12.395c-0.527-1.055,0-2.373,1.055-2.637
			c1.055-0.527,2.373,0,2.637,1.055c1.055,2.9,5.802,11.867,17.405,9.229c2.374-0.525,4.747-1.846,7.12-3.164
			c3.428-1.846,7.384-4.219,11.604-3.691c-0.527-3.955,1.846-8.174,3.692-11.604c1.319-2.373,2.637-4.746,3.165-7.121
			c2.901-11.34-6.329-16.086-9.23-17.404c-1.055-0.527-1.582-1.582-1.055-2.637s1.582-1.582,2.637-1.055
			c2.637,1.055,15.295,7.119,11.603,22.15c-0.527,2.639-1.846,5.273-3.428,7.912c-3.165,5.803-4.747,9.229-1.318,12.658
			c0.791,0.791,0.791,2.109,0,2.9s-2.11,0.791-2.901,0c-3.428-3.428-6.856-1.846-12.395,1.318c-2.637,1.318-5.274,2.9-8.175,3.691
			C142.933,174.05,141.086,174.313,139.504,174.313z"/>
		<path fill="#F05A28" d="M28.745,128.165c-5.01,0-11.076-1.848-15.559-9.23c-1.582-2.637-2.374-5.539-3.165-8.438
			c-1.846-6.33-3.165-9.758-7.911-9.758c-1.055,0-2.11-1.057-2.11-2.11c0-1.054,1.055-2.109,2.11-2.109l0,0
			c4.747,0,6.065-3.429,7.911-9.758c0.791-2.9,1.583-5.802,3.165-8.438c7.912-13.187,21.361-8.703,23.998-7.385
			c1.055,0.527,1.582,1.582,1.055,2.638c-0.527,1.055-1.582,1.582-2.637,1.055c-2.901-1.055-12.658-4.22-18.724,5.802
			c-1.318,2.109-2.109,4.747-2.901,7.384c-1.055,3.692-2.373,8.177-5.538,10.812c3.165,2.636,4.483,6.857,5.538,10.812
			c0.792,2.637,1.583,5.273,2.901,7.385c6.065,10.02,15.823,6.855,18.724,5.801c1.055-0.527,2.374,0,2.637,1.055
			c0.527,1.057,0,2.373-1.055,2.639C35.865,127.11,32.7,128.165,28.745,128.165z"/>
		<path fill="#F05A28" d="M168.776,128.165c-3.956,0-7.384-1.318-8.439-1.584c-1.055-0.527-1.582-1.582-1.055-2.637
			c0.527-1.055,1.582-1.582,2.637-1.055c2.901,1.055,12.658,4.219,18.724-5.803c1.318-2.109,2.109-4.746,2.901-7.383
			c1.055-3.693,2.374-8.178,5.538-10.813c-3.164-2.637-4.483-6.855-5.538-10.812c-0.792-2.638-1.583-5.274-2.901-7.385
			c-6.065-10.021-15.823-6.855-18.724-5.802c-1.055,0.527-2.374,0-2.637-1.055c-0.527-1.055,0-2.373,1.055-2.637
			c2.637-1.057,15.823-5.803,23.998,7.384c1.583,2.637,2.374,5.538,3.165,8.438c1.846,6.329,3.165,9.758,7.911,9.758
			c1.055,0,2.11,1.056,2.11,2.109c0,1.054-1.055,2.109-2.11,2.109c-4.747,0-6.065,3.43-7.911,9.758
			c-0.791,2.9-1.582,5.803-3.165,8.438C179.853,126.317,173.787,128.165,168.776,128.165z"/>
		<path fill="#F05A28" d="M57.753,174.313c-1.582,0-3.428-0.264-5.274-0.791c-2.901-0.791-5.538-2.107-8.175-3.691
			c-5.802-3.164-9.23-4.746-12.395-1.318c-0.791,0.791-2.11,0.791-2.901,0c-0.527-0.527-0.527-1.055-0.527-1.582
			c0-0.525,0.264-1.055,0.527-1.582c3.428-3.428,1.846-6.855-1.318-12.395c-1.319-2.639-2.901-5.273-3.692-8.176
			c-3.692-15.031,8.966-21.098,11.603-22.15c1.055-0.527,2.374,0,2.637,1.055c0.527,1.055,0,2.373-1.055,2.637
			c-2.901,1.057-11.867,5.803-9.23,17.404c0.527,2.375,1.846,4.748,3.165,7.121c1.846,3.428,4.219,7.383,3.692,11.604
			c3.956-0.527,8.175,1.848,11.604,3.691c2.374,1.318,4.747,2.639,7.12,3.164c11.34,2.902,16.086-6.328,17.405-9.229
			c0.527-1.055,1.582-1.582,2.637-1.055c1.055,0.527,1.582,1.582,1.055,2.637C73.84,164.294,69.093,174.313,57.753,174.313z"/>
		<path fill="#F05A28" d="M161.129,74.894c-0.792,0-1.583-0.526-1.846-1.317c-0.527-1.056,0-2.373,1.055-2.638
			c2.901-1.056,11.867-5.802,9.23-17.405c-0.527-2.373-1.846-4.746-3.165-7.119c-1.846-3.43-4.219-7.386-3.692-11.604
			c-3.956,0.527-7.911-1.847-11.604-3.692c-2.373-1.317-4.747-2.637-7.12-3.163c-11.34-2.901-16.086,6.328-17.405,9.229
			c-0.527,1.055-1.582,1.582-2.637,1.055c-1.055-0.526-1.583-1.582-1.055-2.637c1.055-2.638,7.121-15.296,22.152-11.604
			c2.637,0.526,5.274,2.108,7.912,3.429c5.802,3.164,9.23,4.746,12.395,1.318c0.791-0.791,2.11-0.791,2.901,0
			c0.527,0.526,0.527,1.055,0.527,1.581c0,0.527-0.264,1.056-0.527,1.582c-3.428,3.43-1.846,6.856,1.318,12.396
			c1.319,2.638,2.901,5.273,3.692,8.176c3.692,15.031-8.966,21.097-11.603,22.151C161.656,74.894,161.393,74.894,161.129,74.894z"/>
		<path fill="#F05A28" d="M98.629,197.52L98.629,197.52c-1.055,0-2.11-1.055-2.11-2.109c0-4.746-3.428-6.064-9.757-7.91
			c-2.901-0.791-5.802-1.582-8.439-3.164c-13.186-7.912-8.703-21.361-7.384-23.998c0.527-1.055,1.582-1.582,2.637-1.055
			c1.055,0.525,1.582,1.582,1.055,2.637c-1.055,2.9-4.22,12.658,5.802,18.723c2.109,1.318,4.747,2.109,7.384,2.902
			c3.692,1.055,8.175,2.373,10.812,5.537c2.637-3.164,6.856-4.482,10.812-5.537c2.637-0.793,5.274-1.584,7.384-2.902
			c10.021-6.064,6.857-15.82,5.802-18.723c-0.527-1.055,0-2.373,1.055-2.637c1.055-0.527,2.373,0,2.637,1.055
			c1.055,2.637,5.802,15.822-7.384,23.998c-2.637,1.582-5.538,2.373-8.439,3.164c-6.329,1.846-9.757,3.164-9.757,7.91
			C100.738,196.466,99.947,197.52,98.629,197.52z"/>
		<path fill="#F05A28" d="M72.785,38.501c-0.791,0-1.582-0.527-1.846-1.318c-1.055-2.637-5.802-15.822,7.384-23.998
			c2.637-1.582,5.538-2.373,8.439-3.164c6.329-1.847,9.757-3.165,9.757-7.911c0-1.056,1.055-2.109,2.11-2.109l0,0
			c1.055,0,2.109,1.055,2.109,2.109c0,4.746,3.428,6.064,9.757,7.911c2.901,0.791,5.802,1.582,8.439,3.164
			c13.186,7.912,8.703,21.361,7.384,23.998c-0.527,1.056-1.582,1.582-2.637,1.056c-1.055-0.527-1.583-1.582-1.055-2.638
			c1.055-2.9,4.22-12.658-5.802-18.724c-2.109-1.318-4.747-2.109-7.384-2.901c-3.692-1.055-8.175-2.373-10.812-5.537
			c-2.637,3.164-6.857,4.482-10.812,5.537c-2.637,0.792-5.274,1.583-7.384,2.901c-10.021,6.064-6.856,15.822-5.802,18.724
			c0.527,1.056,0,2.373-1.055,2.638C73.312,38.239,73.048,38.501,72.785,38.501z"/>
	</g>
	<g>
		<g>
			<path fill="#231F20" d="M225.738,90.717V31.645h3.692l38.239,44.04v-44.04h7.384v59.072h-3.428l-38.502-44.04v44.04H225.738z"/>
			<path fill="#231F20" d="M292.985,90.717V31.381h7.384v59.336H292.985z"/>
			<path fill="#231F20" d="M317.774,90.717V31.645h34.019c5.802,0,10.285,1.318,13.713,4.483c3.165,2.899,5.011,6.855,5.011,12.131
				c0,4.22-1.317,7.911-3.954,11.076c-2.639,3.164-6.065,5.011-10.285,5.802l14.768,25.844h-8.175l-14.769-25.844h-22.942v25.844
				h-7.384L317.774,90.717L317.774,90.717z M325.158,58.016h26.106c3.692,0,6.594-0.791,8.439-2.373s2.899-3.956,2.899-7.12
				c0-3.165-1.055-5.538-2.899-7.384c-1.847-1.847-4.483-2.638-8.176-2.638h-26.371L325.158,58.016L325.158,58.016z"/>
			<path fill="#231F20" d="M370.78,90.717l29.009-59.072h6.064l29.272,59.072h-7.912l-7.911-15.823h-32.7l-7.91,15.823H370.78z
				 M390.031,68.037h26.107L402.952,41.93L390.031,68.037z"/>
			<path fill="#231F20" d="M433.544,90.717l29.009-59.072h6.065l29.271,59.072h-7.911l-7.911-15.823h-32.7l-7.911,15.823H433.544z
				 M452.531,68.037h26.107L465.452,41.93L452.531,68.037z"/>
			<path fill="#231F20" d="M506.593,90.717V31.645h6.856l23.998,36.129l23.998-36.129h6.593v59.072h-7.384v-46.15l-23.472,35.074
				l-23.471-35.074v46.15H506.593z"/>
			<path fill="#231F20" d="M576.213,90.717l29.009-59.072h6.065l29.271,59.072h-7.911l-7.91-15.823h-32.7l-7.911,15.823H576.213z
				 M595.464,68.037h26.108L608.385,41.93L595.464,68.037z"/>
			<path fill="#231F20" d="M659.547,90.717V61.181l-26.636-29.536h9.229l21.098,23.207l21.098-23.207h9.229L666.93,61.181v29.536
				H659.547L659.547,90.717z"/>
			<path fill="#231F20" d="M685.654,90.717l29.008-59.072h6.064L750,90.717h-7.911l-7.911-15.823h-32.701l-7.91,15.823H685.654z
				 M704.905,68.037h26.106L717.826,41.93L704.905,68.037z"/>
		</g>
		<g>
			<g>
				<path fill="#231F20" d="M286.393,164.821l23.207-47.205h5.011l23.471,47.205h-6.329l-6.329-12.658h-26.106l-6.33,12.658H286.393
					z M301.688,146.624h20.834l-10.549-20.834L301.688,146.624z"/>
				<path fill="#231F20" d="M352.848,164.821v-23.734l-21.359-23.471h7.384l16.878,18.725l16.878-18.725h7.384l-21.36,23.734v23.734
					h-5.803L352.848,164.821L352.848,164.821z"/>
				<path fill="#231F20" d="M387.658,117.616v30.59c0,5.012,1.055,8.176,2.637,9.758c1.847,1.582,5.538,2.637,10.812,2.637
					c5.273,0,8.967-0.791,10.812-2.637c1.846-1.582,2.637-5.01,2.637-9.758v-30.59h5.803v32.172c0,5.803-1.582,10.021-4.482,12.658
					c-2.901,2.639-7.912,3.691-15.032,3.691c-6.855,0-11.867-1.318-15.031-3.691c-2.9-2.637-4.482-6.594-4.482-12.658v-32.172
					H387.658z"/>
				<path fill="#231F20" d="M433.544,164.821v-47.205h27.163c4.746,0,8.175,1.055,10.812,3.43c2.638,2.373,3.955,5.537,3.955,9.756
					c0,3.43-1.055,6.33-3.164,8.703s-4.746,3.955-8.176,4.482l11.867,20.834h-6.593l-11.867-20.57h-18.46v20.57H433.544z
					 M439.346,138.712h20.834c2.9,0,5.273-0.527,6.856-1.846c1.582-1.318,2.373-3.164,2.373-5.803c0-2.373-0.791-4.482-2.373-5.801
					c-1.583-1.318-3.692-2.109-6.329-2.109h-21.098v15.559H439.346z"/>
				<path fill="#231F20" d="M505.011,164.821h-3.691l-22.68-47.205h6.329l18.195,37.975l18.196-37.975h6.593L505.011,164.821z"/>
				<path fill="#231F20" d="M534.283,164.821v-47.205h37.184v5.537h-31.383v13.979h18.988v5.273h-18.988v17.143h33.229v5.537
					h-39.029L534.283,164.821L534.283,164.821z"/>
				<path fill="#231F20" d="M602.584,117.616c7.385,0,13.45,2.107,17.933,6.592c4.483,4.482,6.856,10.021,6.856,17.143
					s-2.373,12.922-6.856,17.143c-4.481,4.219-10.548,6.328-18.195,6.328h-20.307v-47.205H602.584L602.584,117.616z
					 M602.584,122.889H588.08v36.395h14.504c5.802,0,10.285-1.584,13.714-5.012c3.428-3.166,5.01-7.646,5.01-13.186
					s-1.581-10.021-5.01-13.188C612.869,124.735,608.122,122.889,602.584,122.889z"/>
				<path fill="#231F20" d="M628.956,164.821l23.206-47.205h5.011l23.471,47.205h-6.328l-6.329-12.658h-26.107l-6.329,12.658
					H628.956z M644.251,146.624h20.833l-10.548-20.834L644.251,146.624z"/>
			</g>
		</g>
	</g>
</g>
</svg>
