<?xml version="1.0" encoding="utf-8"?>
<!-- Generator: Adobe Illustrator 16.0.4, SVG Export Plug-In . SVG Version: 6.00 Build 0)  -->
<!DOCTYPE svg PUBLIC "-//W3C//DTD SVG 1.1//EN" "http://www.w3.org/Graphics/SVG/1.1/DTD/svg11.dtd">
<svg version="1.1" id="Capa_1" xmlns="http://www.w3.org/2000/svg" xmlns:xlink="http://www.w3.org/1999/xlink" x="0px" y="0px"
	 width="1740.927px" height="1590.347px" viewBox="0 0 1740.927 1590.347" enable-background="new 0 0 1740.927 1590.347"
	 xml:space="preserve">
<g>
	<path fill="#FFFAF1" d="M199.347,722.445c29.497,54.855,32.575,120.518,8.336,177.783c-15.352,36.264-40.748,68.513-60.354,103.169
		c-73.122,129.248-57.547,293.427,38.773,408.74c50.814,82.374,164.008,128.345,270.015,147.76h747.186
		c36.739-53.748,71.929-109.944,138.374-137.957c129.246-54.487,289.369-58.433,327.235-220.262
		c19.928-85.168-15.438-171.035-77.019-231.442c-63.042-61.841-160.563-113.055-161.137-196.658
		c-0.508-74.219,77.236-127.595,125.549-188.72c64.523-81.632,78.219-192.422,35.052-283.564
		c-43.165-91.142-141.78-159.653-252.402-175.354c-159.287-22.608-331.859,56.753-479.591,0.173
		c-59.648-22.844-106.742-65.515-164.633-91.6C640.137,9.914,577.828,1.009,516.329,0.08
		C362.302-2.247,200.346,46.343,95.315,156.749C-6.141,263.4-33.934,426.562,47.816,544.266
		C91.923,607.77,163.142,655.11,199.347,722.445z"/>
	<path fill="#471714" d="M1723.087,1158.624h-391.22c-9.812,0-17.84-8.027-17.84-17.839V589.656c0-9.812,8.028-17.84,17.84-17.84
		h391.22c9.812,0,17.84,8.028,17.84,17.84v551.129C1740.927,1150.597,1732.899,1158.624,1723.087,1158.624z"/>
	<path opacity="0.2" fill="#DCF2FD" d="M1323.304,1148.692V597.563c0-9.811,8.027-17.839,17.839-17.839h391.221
		c2.188,0,4.278,0.418,6.22,1.147c-3.078-5.392-8.875-9.055-15.496-9.055h-391.22c-9.812,0-17.84,8.028-17.84,17.84v551.129
		c0,7.623,4.856,14.15,11.619,16.691C1324.164,1154.878,1323.304,1151.883,1323.304,1148.692z"/>
	<path fill="#F2DBE3" d="M1700.778,1132.846h-333.312c-8.349,0-15.179-6.83-15.179-15.178V649.407
		c0-8.348,6.83-15.178,15.179-15.178h333.312c8.348,0,15.178,6.83,15.178,15.178v468.261
		C1715.956,1126.016,1709.126,1132.846,1700.778,1132.846z"/>
	<path fill="#FFFFFF" d="M1693.522,1124.834h-332.091c-8.334,0-15.151-6.818-15.151-15.151V641.369
		c0-8.333,6.817-15.151,15.151-15.151h332.091c8.334,0,15.151,6.818,15.151,15.151v468.314
		C1708.674,1118.016,1701.856,1124.834,1693.522,1124.834z"/>
	<path fill="#B8C5D5" d="M1632.939,658.434h-209.938c-4.846,0-8.772-3.928-8.772-8.772v-30.047c0-4.845,3.927-8.773,8.772-8.773
		h209.938c4.845,0,8.773,3.928,8.773,8.773v30.047C1641.713,654.506,1637.784,658.434,1632.939,658.434z"/>
	<path fill="#B8C5D5" d="M1583.124,622.026h-110.308c-3.076,0-5.569-2.494-5.569-5.57l9.131-25.63
		c0.774-2.646,3.447-4.732,5.99-4.732h91.204c2.544,0,5.216,2.087,5.99,4.732l9.131,25.63
		C1588.693,619.532,1586.199,622.026,1583.124,622.026z"/>
	<g>
		<g>
			<g>
				<circle fill="#C3946A" cx="1428.141" cy="758.33" r="46.648"/>
			</g>
		</g>
		<g>
			<rect x="1422.292" y="726.896" fill="#FFFFFF" width="11.699" height="62.867"/>
		</g>
		<g>
			<rect x="1396.708" y="752.479" fill="#FFFFFF" width="62.866" height="11.7"/>
		</g>
	</g>
	<path fill="#C3946A" d="M1527.97,1024.609h-146.477v-11.701h146.477V1024.609z M1667.412,988.202h-285.919v-11.701h285.919V988.202
		z M1667.412,951.794h-285.919v-11.701h285.919V951.794z M1667.412,915.387h-285.919v-11.701h285.919V915.387z M1667.412,878.979
		h-285.919v-11.701h285.919V878.979z M1667.412,801.302H1509.54v-11.701h157.872V801.302z M1667.412,764.18H1509.54v-11.701h157.872
		V764.18z M1667.412,727.059H1509.54v-11.701h157.872V727.059z"/>
	
		<line fill="none" stroke="#A7B8CB" stroke-width="2.0028" stroke-linecap="round" stroke-linejoin="round" stroke-miterlimit="10" x1="1437.325" y1="642.49" x2="1618.615" y2="642.49"/>
	
		<line fill="none" stroke="#A7B8CB" stroke-width="2.0028" stroke-linecap="round" stroke-linejoin="round" stroke-miterlimit="10" x1="1437.325" y1="626.218" x2="1618.615" y2="626.218"/>
	<g>
		<g>
			<path fill="#471714" d="M1189.004,1590.347H482.502c-31.021,0-56.4-25.381-56.4-56.4V328.888c0-31.021,25.38-56.401,56.4-56.401
				h706.502c31.021,0,56.4,25.38,56.4,56.401v1205.059C1245.404,1564.966,1220.024,1590.347,1189.004,1590.347z"/>
			<path fill="#DCF2FD" d="M1161.871,1476.865H509.635c-28.042,0-50.984-22.942-50.984-50.983V357.998
				c0-28.042,22.942-50.984,50.984-50.984h652.236c28.041,0,50.984,22.943,50.984,50.984v1067.884
				C1212.855,1453.923,1189.912,1476.865,1161.871,1476.865z"/>
			<path opacity="0.6" fill="#DCF2FD" d="M472.318,1434.99c6.167-94.72,25.594-188.369,54.539-278.676
				c30.256-94.398,70.722-185.525,118.398-272.382c48.452-88.269,104.571-172.173,166.518-251.522
				c60.847-77.94,127.583-151.354,199.709-219.002c39.827-37.354,81.39-72.938,124.584-106.394H509.635
				c-28.042,0-50.984,22.942-50.984,50.984v1067.883c0,12.671,4.713,24.272,12.436,33.214
				C471.411,1451.056,471.796,1443.02,472.318,1434.99z"/>
			<circle fill="#FFFAF1" cx="835.753" cy="1526.929" r="33.737"/>
			<path fill="#471714" d="M690.642,292.805v6.512c0,32.888,26.908,59.795,59.795,59.795h170.633
				c32.888,0,59.795-26.907,59.795-59.795v-6.512H690.642z"/>
			<circle fill="#FFFAF1" cx="772.701" cy="316.481" r="18.349"/>
			<circle fill="#FFFAF1" cx="898.804" cy="316.481" r="18.349"/>
		</g>
		<g>
			<g>
				<g>
					<g>
						<path fill="#945449" d="M1070.438,818.054c-4.006-16.565-16.896-54.273-27.739-86.289c-0.632-1.837-1.325-3.494-2.078-5.03
							c-2.229-4.668-4.819-8.313-6.415-13.192c-1.477-4.458-3.162-8.854-4.789-13.251c-2.078-5.572-4.006-11.174-5.421-16.927
							c-0.061-0.211-0.091-0.391-0.15-0.602c-2.229-9.427-2.591-19.336-2.952-28.974c-0.723-20.3,0.211-41.502-6.476-60.989
							c-9.307-27.136-25.991-59.634-43.34-82.463c-9.126-11.987-13.703-11.927-28.251-17.469
							c-12.891-4.878-26.474-7.92-40.026-10.24c-21.174-3.645-43.009-4.518-64.423-2.891c-34.395,2.59-68.158,11.144-102.613,12.468
							c-17.046,0.663-35.147-17.679-50.779-10.842c-29.817,13.011-52.947,39.545-68.458,67.525
							c-17.047,30.72-22.649,74.934-26.534,110.292c-0.693,6.476-1.084,13.042-2.5,19.426c-0.633,2.952-1.506,5.843-2.531,8.674
							c-1.596,4.458-3.554,8.824-5.602,13.102c-0.181,0.331-0.332,0.692-0.482,1.023c-3.102,6.506-6.837,11.897-10.752,16.957
							c-0.512,0.662-1.055,1.325-1.566,1.987c-9.668,12.198-20.149,22.92-25.42,42.798c-6.536,24.607-7.831,47.075-7.74,72.314
							c0.181,46.804,14.758,106.648,64.694,123.424c-4.849-8.493-6.325-18.823-4.006-28.312
							c1.235,10.029,7.048,19.396,15.451,24.998c12.198,8.162,28.13,11.145,42.165,12.62c17.167,1.807,38.582,4.638,54.755,5.301
							c10.3,0.422,20.601,1.114,30.871,1.807c0.181,0,0.331,0.03,0.512,0.03c3.494,0.241,6.957,0.452,10.451,0.693
							c13.945,0.934,27.89,1.746,41.864,1.897c6.385,0.06,12.8,0.06,19.246,0c3.103-0.03,6.205-0.061,9.336-0.121
							c2.44-0.06,4.879-0.12,7.319-0.181c2.048-0.06,4.066-0.15,6.114-0.211c10.18-0.361,20.39-0.964,30.57-1.867
							c16.053-1.295,32.016-3.343,47.678-6.265c9.426-1.687,22.889-0.09,29.214-8.976c1.867-2.649,3.042-5.722,4.187-8.764
							c3.523-9.276,7.048-18.553,10.541-27.829c-0.18,8.011-0.36,16.022-0.572,24.004c-0.09,3.855-0.15,7.831,1.266,11.415
							c4.247,10.691,23.01,4.818,31.835,3.102c11.655-2.288,23.04-6.144,33.521-11.716c21.233-11.294,38.069-29.605,46.382-52.285
							C1076.703,871.243,1077.215,845.914,1070.438,818.054z M1065.168,864.285c-1.416,30.781-13.223,55.839-39.335,69.784
							c14.186-15.782,24.787-35.72,29.516-56.411c4.639-20.36,4.127-44.695,3.043-65.959
							C1063.571,826.758,1065.921,848.354,1065.168,864.285z"/>
					</g>
					<g>
						<path fill="#885546" d="M558.124,747.868c-8.184,13.715-14.712,28.589-19.93,43.885c-5.199,15.331-9.177,31.057-11.273,47.122
							c-2.067,16.059-3.257,32.408-0.759,48.289c2.437,15.863,8.365,31.377,18.347,44.065c0.518,0.65,0.41,1.599-0.241,2.116
							c-0.637,0.507-1.564,0.406-2.09-0.208c-10.81-12.823-17.528-28.764-20.617-45.176c-3.158-16.537-2.522-33.354-0.988-49.829
							c1.55-16.565,5.153-32.943,9.973-48.847c4.865-15.92,11.073-31.489,19.237-46.25c1.288-2.33,4.222-3.174,6.552-1.885
							c2.329,1.289,3.173,4.223,1.885,6.552c-0.022,0.04-0.045,0.08-0.068,0.119L558.124,747.868z"/>
					</g>
					<g>
						<path fill="#885546" d="M1035.441,737.15c11.84-7.694,3.394-1.983,6.083-3.63l0.038,0.059l0.062,0.096l0.098,0.157
							l0.181,0.292l0.345,0.569l0.674,1.126l1.312,2.25l2.553,4.518c1.676,3.022,3.303,6.064,4.893,9.126
							c3.175,6.125,6.192,12.326,9.048,18.602c5.703,12.553,10.778,25.405,14.92,38.579c4.122,13.169,7.348,26.682,8.857,40.467
							c1.478,13.742,1.259,27.901-2.464,41.386c-0.222,0.801-1.051,1.271-1.853,1.051c-0.79-0.218-1.256-1.033-1.059-1.822
							c3.259-13.056,3.147-26.773,1.373-40.13c-1.804-13.396-5.286-26.552-9.654-39.379c-4.387-12.832-9.694-25.354-15.614-37.57
							c-2.964-6.107-6.086-12.138-9.357-18.082c-1.637-2.971-3.311-5.921-5.025-8.841l-2.604-4.353l-1.328-2.149l-0.669-1.06
							l-0.334-0.52l-0.163-0.25l-0.074-0.113l-0.026-0.038l-0.006-0.008c2.675-1.662-5.793,4.006,6.042-3.681
							c0.925,1.725,0.276,3.874-1.448,4.798C1038.515,739.524,1036.366,738.875,1035.441,737.15z"/>
					</g>
					<g>
						<path fill="#8C4844" d="M1029.96,874.127c-0.062,0-0.123-0.003-0.187-0.012c-0.825-0.102-1.412-0.854-1.309-1.68
							c2.471-19.991,5.026-40.662,4.01-61.089c-1.138-22.871-6.718-42.307-16.581-57.769c-0.446-0.702-0.242-1.632,0.459-2.08
							c0.703-0.45,1.633-0.242,2.079,0.459c10.149,15.909,15.886,35.84,17.052,59.239c1.028,20.687-1.544,41.49-4.03,61.609
							C1031.359,873.567,1030.71,874.127,1029.96,874.127z"/>
					</g>
					<g>
						<path fill="#8C4844" d="M1000.327,912.801c-0.003,0-0.005,0-0.007,0c-0.831-0.004-1.503-0.681-1.499-1.513
							c0.188-40.4,9.102-81.208,25.777-118.007c0.346-0.756,1.236-1.093,1.994-0.75c0.757,0.343,1.092,1.237,0.75,1.994
							c-16.502,36.415-25.322,76.796-25.51,116.777C1001.829,912.132,1001.155,912.801,1000.327,912.801z"/>
					</g>
					<g>
						<path fill="#8C4844" d="M628.857,937.111c-0.557,0-1.093-0.31-1.354-0.844c-23.71-48.414-33.705-102.387-28.902-156.083
							c0.075-0.827,0.79-1.446,1.634-1.367c0.83,0.074,1.44,0.807,1.367,1.634c-4.755,53.15,5.138,106.571,28.607,154.492
							c0.365,0.746,0.056,1.649-0.691,2.016C629.305,937.063,629.08,937.111,628.857,937.111z"/>
					</g>
					<g>
						<path fill="#8C4844" d="M603.914,873.095c-0.489,0-0.97-0.238-1.258-0.679c-23.08-35.077-34.149-77.46-31.168-119.343
							c0.059-0.828,0.748-1.466,1.608-1.394c0.83,0.059,1.455,0.779,1.394,1.608c-2.932,41.226,7.964,82.946,30.68,117.473
							c0.457,0.695,0.265,1.629-0.429,2.085C604.485,873.015,604.198,873.095,603.914,873.095z"/>
					</g>
					<g>
						<path fill="#8C4844" d="M680.144,944.302c-0.791,0-1.456-0.617-1.501-1.419c-1.287-22.123-0.128-54.123,2.755-76.09
							c0.108-0.825,0.846-1.406,1.688-1.298c0.826,0.108,1.406,0.865,1.297,1.688c-2.862,21.804-4.012,53.566-2.735,75.525
							c0.048,0.829-0.586,1.541-1.417,1.59C680.203,944.301,680.173,944.302,680.144,944.302z"/>
					</g>
					<g>
						<path fill="#E9E2E4" d="M1040.621,726.736c-2.048,5.963-5.451,12.017-10.06,16.324c-8.945,8.343-23.914,13.794-33.28,21.655
							c-18.673,15.661-21.053,34.063-35.841,53.249c-14.848,19.306-32.527,36.473-52.707,50.177
							c-16.505,11.204-34.334,20.601-42.436,39.545c-3.855,8.945-4.458,18.161-1.898,27.528c1.898,7.018,5.392,14.005,10.512,19.275
							c-4.066,0.422-8.102,0.813-12.168,1.175c-10.18,0.844-20.39,1.445-30.57,1.867c-2.048,0.061-4.066,0.15-6.114,0.211
							c-2.44,0.061-4.879,0.12-7.319,0.181c-3.132,0.061-6.234,0.09-9.336,0.121c-6.445,0.06-12.86,0.06-19.246,0
							c-13.975-0.151-27.919-0.964-41.864-1.898c-3.494-0.24-6.957-0.451-10.451-0.692c-0.181,0-0.331-0.03-0.512-0.03
							c1.566-2.229,3.223-4.427,4.819-6.686c3.072-4.397,4.699-9.156,5.24-14.487c0.633-6.023,0.452-12.349-1.234-18.191
							c-1.596-5.602-5.451-10.451-9.638-14.366c-9.396-8.734-20.841-15.119-31.804-21.595c-11.716-6.928-22.981-14.186-33.04-23.401
							c-14.307-13.132-27.347-28.131-36.383-45.418c-9.487-18.101-11.807-35.6-28.914-49.454c-4.91-3.916-10.271-7.229-15.18-11.144
							c-10.481-8.373-18.433-19.758-23.07-32.317c3.915-5.06,7.65-10.451,10.752-16.957c0.15-0.331,0.301-0.692,0.482-1.023
							c2.048-4.277,4.006-8.644,5.602-13.102c11.295,12.228,21.354,14.427,39.666,22.588c26.203,11.716,54.333,18.041,82.072,25.059
							c16.595,4.186,33.04,8.945,49.545,13.433c18.522,5.03,37.497,9.246,56.772,8.945c19.607-0.332,39.093-3.102,58.068-8.071
							c18.884-4.94,37.406-11.897,55.478-19.276c34.576-14.125,65.025-28.944,97.433-46.593c1.415,5.752,3.343,11.354,5.421,16.927
							c1.627,4.397,3.312,8.794,4.789,13.251C1035.802,718.423,1038.393,722.067,1040.621,726.736z"/>
					</g>
				</g>
				<g>
					<path fill="#FFFFFF" d="M976.75,983.679c3.921,21.149,7.201,41.253,10.811,61.244c3.579,19.938,7.343,39.598,11.669,58.801
						c4.33,19.166,9.149,38.021,15.011,55.535c2.925,8.738,6.111,17.146,9.567,24.775c3.429,7.592,5.581,12.733,8.465,11.44
						c2.904-1.278,3.472-1.779,6.852-3.832c6.795-4.121,13.944-9.398,20.969-15.162c7.043-5.772,14.016-12.096,20.839-18.715
						c13.649-13.264,26.75-27.704,39.034-42.749c12.262-15.041,23.836-30.773,33.789-46.717l0.162-0.259
						c9.255-14.827,28.777-19.344,43.604-10.088c14.233,8.885,18.916,27.319,11.084,41.891
						c-10.687,19.778-22.53,38.106-35.235,55.889c-12.73,17.749-26.338,34.832-41.273,51.31
						c-7.483,8.232-15.304,16.307-23.736,24.17c-8.45,7.861-17.414,15.535-27.797,22.842c-5.21,3.646-10.789,7.204-17.101,10.556
						c-6.325,3.329-13.453,6.517-22.283,8.892c-4.442,1.165-9.444,2.081-15.02,2.434c-5.539,0.361-11.973,0.021-18.678-1.544
						c-6.699-1.54-13.673-4.462-19.709-8.477c-3.047-2.007-5.76-4.218-8.302-6.568c-1.214-1.161-2.347-2.347-3.482-3.562
						l-0.839-0.916l-0.456-0.535l-0.888-1.051c-9.593-11.299-16.318-22.392-22.115-33.227c-5.729-10.841-10.46-21.509-14.728-32.097
						c-8.494-21.167-15.084-42.017-21.094-62.77c-5.975-20.74-11.182-41.354-16.106-61.776
						c-4.926-20.365-9.512-40.757-14.257-59.936l-0.017-0.067c-6.195-25.039,9.081-50.36,34.12-56.555
						c25.039-6.195,50.359,9.081,56.555,34.12C976.376,981.828,976.588,982.824,976.75,983.679z"/>
				</g>
				<g>
					<path fill="#F2BFA8" d="M896.45,951.335c0.598-1.72,1.097-3.545,0.672-5.303c-1.028-4.252-13.662-5.586-17.686-6.796
						c-7.743-2.329-16.437-4.819-23.395-8.997c-11.655-6.999-15.672-21.355-16.327-34.112c-0.408-7.935-1.289-15.821-1.104-23.812
						c0.05-2.195,1.215-24.457,3.256-24.445c-0.001,0-23.554-0.134-23.554-0.134c-1.782,0-3.563-0.051-5.343-0.139
						c-1.78,0.088-3.561,0.139-5.343,0.139c0,0-23.554,3.146-23.554,3.146c5.606,20.455,3.104,43.374-4.744,62.908
						c-4.197,10.447-13.565,17.214-23.472,21.791c-5.384,2.487-12.065,4.05-17.729,5.788c-4.417,1.354-11.724,1.734-11.398,7.674
						c0.23,4.216,1.144,8.395,2.693,12.322c1.471,3.728,3.501,7.209,5.677,10.575c8.985,13.905,20.661,26.042,34.109,35.688
						c6.725,4.822,13.895,9.025,21.398,12.517c6.282,2.923,12.255,6.484,18.686,9.09c6.689,2.709,12.573-1.625,18.673-4.729
						c12.838-6.53,24.929-14.612,35.54-24.376c14.485-13.329,26.188-29.871,32.808-48.409
						C896.359,951.594,896.405,951.465,896.45,951.335z"/>
				</g>
				<g>
					<path fill="#3B80AA" d="M938.218,1476.925c-13.915-23.219-41.279-36.476-69.425-31.136
						c-19.394,3.68-35.199,15.444-44.613,31.136H938.218z"/>
				</g>
				<g>
					<path fill="#3B80AA" d="M818.578,1476.925c-11.407-26.785-38.475-45.062-69.287-43.809
						c-28.735,1.171-52.849,19.005-63.426,43.809H818.578z"/>
				</g>
				<g>
					<path fill="#69C7C1" d="M967.151,1476.925c-3.799-21.75-8.899-46.978-15.336-58.035
						c-13.652-23.482-34.467-12.797-57.684-13.619c-44.166-1.567-77.22-2.481-121.242-0.239
						c-17.637,0.901-56.567-4.736-71.447,5.006c-15.256,9.984-18.113,24.494-19.329,41.553c-0.464,6.474-1.548,15.518-2.28,25.335
						H967.151z"/>
				</g>
				<g>
					<g>
						<path fill="#543C32" d="M957.346,1471.446c-25.086,0-52.088-19.543-59.7-44.213c-0.396-1.282,0.324-2.645,1.607-3.039
							c1.275-0.394,2.645,0.321,3.04,1.606c7.509,24.338,35.441,43.293,59.721,40.523c1.331-0.154,2.538,0.807,2.689,2.143
							c0.151,1.334-0.809,2.538-2.143,2.689C960.837,1471.351,959.096,1471.446,957.346,1471.446z"/>
					</g>
				</g>
				<g>
					<g>
						<path fill="#543C32" d="M737.893,1476.925c20.003-12.007,36.926-31.24,42.847-49.643c0.552-1.712-0.389-3.547-2.103-4.098
							c-1.712-0.557-3.546,0.389-4.097,2.104c-6.507,20.221-27.971,41.751-50.976,51.637H737.893z"/>
					</g>
				</g>
				<g>
					<path fill="#B4E3F6" d="M940.005,1314.814c-2.162-31.372-3.45-62.849-2.083-94.283c1.593-36.526,2.356-67.774,4.383-104.368
						c1.654-29.901,2.649-65.072,4.844-94.937c1.361-18.52,5.276-45.436,1.643-63.648c-0.38-1.908-0.896-3.917-2.301-5.263
						c-1.1-1.059-2.603-1.565-4.06-2.023c-22.729-7.154-50.987-11.552-74.606-16.902c-11.895-2.695-32.46,48.15-55.276,47.447
						c-23.227-0.716-56.388-46.662-62.095-45.23c-27.962,7.012-63.902,16.227-85.412,30.109
						c-28.232,18.222-7.681,72.208-7.681,99.066c0,35.198,3.812,49.33,6.718,84.403c7.418,89.232,5.673,119.393,1.659,166.061
						c-1.784,20.556-6.399,133.135,27.868,120.396c19.915-7.399,34.76-8.688,62.056-13.651c3.59-0.652,7.771-0.909,12.315-0.904
						c1.29,0.718,2.815,1.071,4.286,1.362c35.477,6.995,72.09,8.169,107.947,3.502c12.017-1.565,70.365,3.683,73.41-13.145
						C956.76,1395.466,940.962,1328.661,940.005,1314.814z"/>
				</g>
				<g>
					<path fill="#FFFFFF" d="M664.078,1149.199c7.409,89.209,4.488,144.477,0.512,191.129c-4.261,49.728-4.867,92.79-5.005,136.597
						H788.15c-16.397-241.57-34.738-511.216-42.693-543.523c-20.661,2.199-65.658,14.548-81.44,21.746
						c-30.57,13.914-12.438,83.427-12.438,110.293C651.579,1100.618,661.187,1114.111,664.078,1149.199z"/>
				</g>
				<g>
					<path fill="#E7F2F8" d="M662.228,1373.084c-0.072,1.214,5.334,5.957,6.273,7.074c2.282,2.714,4.505,5.478,6.809,8.173
						c5.503,6.436,8.575,13.51,13.147,20.441c2.984,4.524,5.457,9.306,9.096,13.37c8.353,9.327,24.729,9.947,36.282,13.567
						c17.042,5.34,34.57,9.778,52.335,12.062c-0.762-11.228-1.528-22.49-2.295-33.766c-11.088-2.581-22.13-5.347-32.955-8.915
						c-7.318-2.413-14.727-5.201-21.817-8.603c-0.09,0.024-0.161,0.065-0.253,0.087c-15.312,3.572-27.945-10.017-35.242-21.764
						c-1.764-2.841-3.256-5.805-4.549-8.886c-0.758-1.809-1.715-3.773-1.715-5.778c0-2.456,1.262-5.07,1.893-7.431
						c2.56-9.571,4.058-19.39,6.958-28.875c0.849-2.777,2.78-4.325,4.962-4.886c-2.718-5.645-5.278-11.368-7.608-17.197
						c-14.657-36.659-21.483-75.64-26.812-114.712c3.847,67.699,1.233,113.611-2.147,153.281
						C663.627,1351.56,662.854,1362.446,662.228,1373.084z"/>
				</g>
				<g>
					<path fill="#FFFFFF" d="M976.182,1476.925c-3.794-17.735-7.714-35.446-11.855-53.108c-1.085-4.608-2.199-9.187-3.313-13.734
						c-4.729-19.095-9.729-37.919-13.824-56.862c-2.741-12.711-5.09-25.48-6.656-38.461c-0.813-6.597-1.415-13.223-1.776-19.909
						c-1.325-24.727-1.928-49.544-0.844-74.331c1.597-36.503,2.379-67.766,4.397-104.359c1.476-26.534,2.259-53.099,3.825-79.603
						c0.903-14.938,13.944-78.337,4.427-85.535c-10.119-7.65-59.845-15.872-72.193-17.62
						c-5.805,27.092-11.891,299.477-18.729,543.523H976.182z"/>
				</g>
				<g>
					<path fill="#E7F2F8" d="M954.025,1405.716c3.287,23.604,5.267,47.377,6.533,71.209h15.623
						c-3.794-17.735-7.714-35.446-11.855-53.108c-1.085-4.608-2.199-9.187-3.313-13.734c-4.759-19.275-9.758-38.25-13.885-57.375
						c0.03,0.181,0.03,0.332,0.061,0.513C948.995,1370.778,951.586,1388.276,954.025,1405.716z"/>
				</g>
				<g>
					<path fill="#E7E8E6" d="M758.713,1143.341c-0.808,0-1.6-0.394-2.076-1.118l-2-3.04c-15.245-23.152-29.644-45.022-45.022-70.736
						c-0.387-0.647-0.459-1.436-0.194-2.143c0.263-0.705,0.835-1.254,1.552-1.49c4.07-1.333,8.881-3.222,13.975-5.22
						c5.656-2.22,11.435-4.487,16.809-6.249c-2.159-0.474-4.52-0.956-6.93-1.448c-11.473-2.342-24.476-4.995-31.505-9.449
						c-2.3-1.454-2.39-1.51,10.846-55.307c3.951-16.06,8.037-32.665,11.176-46.228c0.308-1.335,1.643-2.171,2.979-1.857
						c1.335,0.309,2.167,1.642,1.857,2.979c-3.146,13.595-7.236,30.218-11.191,46.293c-5.205,21.151-11.05,44.914-11.851,50.605
						c6.617,3.596,18.787,6.081,28.682,8.101c6.897,1.407,12.856,2.623,16.191,4.012c1.004,0.417,1.621,1.439,1.519,2.521
						c-0.101,1.084-0.897,1.976-1.961,2.199c-7.053,1.482-16.08,5.025-24.808,8.45c-4.002,1.569-7.831,3.071-11.309,4.31
						c14.734,24.495,28.639,45.614,43.33,67.928l2.001,3.04c0.753,1.146,0.437,2.684-0.709,3.438
						C759.654,1143.208,759.181,1143.341,758.713,1143.341z"/>
				</g>
				<g>
					<path fill="#E7E8E6" d="M872.5,1143.341c-0.43,0-0.866-0.112-1.263-0.348c-1.18-0.699-1.568-2.222-0.87-3.401
						c4.876-8.218,9.324-15.919,13.604-23.328c8.405-14.551,16.367-28.333,25.588-42.565c-12.329-7.278-18.677-12.299-25.374-17.596
						c-1.886-1.492-3.808-3.011-5.911-4.619c-0.806-0.617-1.156-1.662-0.884-2.639c0.272-0.979,1.112-1.691,2.121-1.802
						c1.781-0.195,3.623-0.407,5.509-0.625c8.087-0.934,17.139-1.978,25.198-2.082c-1.873-14.149-3.229-29.421-4.545-44.22
						c-1.913-21.551-3.723-41.905-6.982-59.188c-0.253-1.348,0.633-2.646,1.979-2.9c1.343-0.255,2.647,0.632,2.9,1.979
						c3.304,17.523,5.207,38.948,7.048,59.669c1.397,15.731,2.843,31.998,4.902,46.806c0.1,0.718-0.121,1.444-0.602,1.988
						c-0.481,0.542-1.215,0.84-1.901,0.835c-8.23-0.148-18.128,0.972-26.916,1.985c0.39,0.308,0.776,0.613,1.162,0.918
						c6.95,5.497,13.515,10.69,27.04,18.512c0.592,0.342,1.015,0.91,1.172,1.575c0.158,0.663,0.035,1.363-0.338,1.935
						c-9.758,14.896-18.069,29.284-26.868,44.517c-4.288,7.425-8.747,15.143-13.631,23.378
						C874.174,1142.906,873.349,1143.341,872.5,1143.341z"/>
				</g>
				<g>
					<path fill="#945449" d="M1030.297,661.483c-1.337-6.002-2.384-10.964-2.426-11.94c-0.851-19.972-2.469-39.911-4.848-59.76
						c-5.04-42.058-14.432-85.708-41.796-118.042c-33.699-39.82-93.465-55.109-142.146-36.364c-3.15,1.213-6.479,2.578-9.795,1.947
						c-2.366-0.45-4.412-1.869-6.449-3.155c-24.433-15.436-58.695-16.146-86.435-11.354c-33.561,5.798-67.983,32.891-91.714,56.329
						c-22.116,21.843-38.33,49.583-46.688,79.512c-9.433,33.774-4.852,68.516-7.963,102.997c-1.152,12.765-3.764,18.72,7.771,26.696
						c7.596,5.253,17.204,7.32,25.675,10.707c18.482,7.39,37.053,13.652,56.581,17.696c35.782,7.409,72.484,8.595,108.906,9.323
						c36.611,0.732,73.043,3.586,109.689,1.799c30.825-1.502,61.205-6.277,90.291-16.818c13.491-4.89,26.608-10.945,38.79-18.559
						c2.843-1.777,5.657-3.668,8.407-5.67C1036.136,686.834,1032.736,672.43,1030.297,661.483z"/>
				</g>
				<g>
					<path fill="#F2BFA8" d="M1001.792,659.567c0.352,82.24-40.762,158.848-115.598,197.545c-19.28,9.97-39.339,18.478-59.942,25.42
						c-4.273,1.44-8.643,2.827-13.157,2.958c-5.432,0.158-10.729-1.504-15.9-3.148c-23.708-7.538-46.313-14.583-68.317-25.614
						c-13.9-6.969-26.979-15.445-38.851-25.419c-27.785-23.346-47.941-54.229-59.547-88.236c-9.11-26.696-13.49-55.359-13.49-83.504
						c-1.859-144.787,86.141-202.058,192.401-202.058S1001.106,499.212,1001.792,659.567z"/>
				</g>
				<g>
					<g>
						
							<ellipse transform="matrix(-0.9829 -0.1841 0.1841 -0.9829 1866.3528 1581.7231)" fill="#F2BFA8" cx="1006.587" cy="704.241" rx="36.26" ry="44.26"/>
					</g>
					<g>
						<path fill="#EFA28A" d="M1026.003,712.859c-0.223,0-0.447-0.031-0.672-0.094c-1.296-0.371-2.046-1.721-1.677-3.018
							c2.103-7.362,1.064-15.159-2.776-20.856c-2.506-3.718-10.106-7.49-15.4-6.59c-1.337,0.229-2.59-0.669-2.814-1.997
							c-0.227-1.33,0.668-2.59,1.996-2.815c7.41-1.268,16.807,3.542,20.266,8.672c4.637,6.878,5.916,16.196,3.424,24.927
							C1028.043,712.161,1027.064,712.859,1026.003,712.859z"/>
					</g>
					<g>
						<path fill="#EFA28A" d="M1007.492,704.424c-0.299,0-0.6-0.055-0.895-0.171c-1.254-0.494-1.87-1.91-1.376-3.164
							c2.183-5.543,8.046-14.498,14.25-17.052c1.253-0.51,2.674,0.085,3.187,1.328c0.513,1.247-0.082,2.673-1.328,3.187
							c-4.168,1.715-9.44,8.926-11.567,14.325C1009.385,703.837,1008.464,704.424,1007.492,704.424z"/>
					</g>
				</g>
				<g>
					<g>
						
							<ellipse transform="matrix(0.9829 -0.1841 0.1841 0.9829 -119.1562 124.8121)" fill="#F2BFA8" cx="612.722" cy="704.241" rx="36.26" ry="44.26"/>
					</g>
					<g>
						<path fill="#EFA28A" d="M593.306,712.859c-1.062,0-2.04-0.699-2.346-1.771c-2.493-8.731-1.213-18.049,3.423-24.927
							c3.462-5.132,12.871-9.926,20.265-8.672c1.328,0.225,2.223,1.485,1.998,2.815c-0.225,1.327-1.486,2.229-2.815,1.997
							c-5.272-0.894-12.892,2.873-15.4,6.59c-3.841,5.697-4.879,13.494-2.777,20.856c0.37,1.297-0.38,2.647-1.676,3.018
							C593.752,712.828,593.527,712.859,593.306,712.859z"/>
					</g>
					<g>
						<path fill="#EFA28A" d="M611.816,704.424c-0.973,0-1.892-0.587-2.271-1.547c-2.171-5.514-7.337-12.585-11.566-14.325
							c-1.247-0.514-1.841-1.94-1.329-3.186c0.513-1.244,1.942-1.838,3.185-1.33c6.205,2.553,12.069,11.508,14.252,17.052
							c0.494,1.254-0.122,2.67-1.377,3.164C612.416,704.369,612.115,704.424,611.816,704.424z"/>
					</g>
				</g>
				<g>
					<path fill="#945449" d="M614.615,656.109c0.058,0.427,0.118,0.853,0.18,1.278c1.386,9.506,2.607,21.666,6.015,30.595
						c2.813,7.373,4.831,13.58,10.975,23.292c0.713-14.465,1.75-28.136,11.236-39.546c7.797-9.38,18.256-16.47,29.592-20.866
						c12.666-4.911,26.849-5.214,40.194-7.758c15.311-2.919,30.542-6.519,45.147-12.035c14.907-5.631,29.206-13.354,41.346-23.757
						c3.743-3.21,6.131-7.666,9.478-11.229c5.607-5.969,5.863-5.596,11.44,0.063c9.296,9.433,18.259,18.524,29.804,25.288
						c17.021,9.973,33.884,10.271,52.814,11.942c17.525,1.547,35.465,3.364,51.305,11.022c9.872,4.773,24.446,13.989,28.175,24.989
						c4.041,11.919,4.389,28.642,4.873,41.183c6.013-18.112,13.116-35.053,15.43-54.026c2.047-16.788,3.439-34.088,2.419-51.004
						c0-24.959-10.362-35.513-16.484-58.856c-14.41-54.938-31.874-76.031-84.044-94.305c-62.276-21.814-75.155-10.639-220.393,7.047
						c-16.198,1.972-25.183,20.844-34.91,33.929c-19.622,26.393-31.027,58.497-34.605,91.062
						C612.896,599.935,612.497,640.571,614.615,656.109z"/>
				</g>
				<g>
					<g>
						<path fill="#EFA28A" d="M818.071,754.576c-0.896,0-1.811-0.029-2.749-0.091c-1.479-0.096-2.601-1.374-2.504-2.855
							c0.097-1.481,1.349-2.625,2.855-2.504c4.582,0.296,15.557,0.047,18.381-8.734c0.859-2.673,0.721-5.121-0.412-7.276
							c-1.287-2.447-3.801-4.335-7.081-5.319c-4.146-1.244-8.964-0.81-13.562,1.223c-1.354,0.597-2.941-0.013-3.541-1.37
							c-0.601-1.356,0.013-2.941,1.371-3.542c5.766-2.551,11.905-3.071,17.277-1.456c4.672,1.401,8.326,4.229,10.29,7.965
							c1.804,3.431,2.07,7.379,0.77,11.419C836.577,750.089,828.958,754.576,818.071,754.576z"/>
					</g>
					<g>
						<g>
							<ellipse fill="#945449" cx="732.383" cy="719.995" rx="13.066" ry="20.212"/>
						</g>
						<g>
							<ellipse fill="#FFFFFF" cx="728.133" cy="709.578" rx="4.25" ry="5.233"/>
						</g>
					</g>
					<g>
						<g>
							<ellipse fill="#945449" cx="891.443" cy="719.995" rx="13.066" ry="20.212"/>
						</g>
						<g>
							<ellipse fill="#FFFFFF" cx="887.193" cy="709.578" rx="4.25" ry="5.233"/>
						</g>
					</g>
					<g>
						<path fill="#885546" d="M881.031,665.15c4.755-0.383,9.211-0.133,13.599,0.358c4.381,0.506,8.665,1.299,12.886,2.328
							c4.218,1.031,8.367,2.326,12.427,3.923c4.052,1.611,8.031,3.514,11.757,6.055c1.368,0.934,1.721,2.8,0.788,4.168
							c-0.857,1.256-2.5,1.657-3.823,0.992l-0.091-0.046c-6.862-3.441-14.839-5.178-22.7-6.134
							c-3.95-0.454-7.923-0.679-11.835-0.639c-3.897,0.044-7.783,0.353-11.264,1.09c-3.308,0.7-6.558-1.414-7.258-4.721
							c-0.701-3.308,1.413-6.558,4.721-7.258c0.248-0.053,0.496-0.089,0.742-0.11L881.031,665.15z"/>
					</g>
					<g>
						<path fill="#885546" d="M741.035,676.721c-3.5-0.631-7.395-0.822-11.292-0.749c-3.911,0.078-7.875,0.423-11.81,0.997
							c-7.828,1.193-15.749,3.171-22.504,6.818l-0.089,0.048c-1.458,0.787-3.277,0.244-4.064-1.214
							c-0.723-1.338-0.323-2.981,0.875-3.851c3.646-2.652,7.567-4.675,11.568-6.408c4.009-1.719,8.117-3.139,12.303-4.296
							c4.187-1.157,8.446-2.078,12.808-2.717c4.372-0.624,8.819-1.008,13.583-0.77l0.017,0.001c3.377,0.17,5.978,3.045,5.808,6.422
							c-0.169,3.377-3.044,5.977-6.422,5.808C741.561,676.797,741.278,676.763,741.035,676.721z"/>
					</g>
					<g>
						<path fill="#FFFFFF" d="M857.928,788.975c1.997-0.994,4.788-1.131,6.323,0.486c1.556,1.638,0.875,4.336-0.178,6.334
							c-7.032,13.354-17.061,23.119-31.723,24.805c-14.575,1.676-32.496-6.134-42.583-16.084c-2.498-2.463-7.771-9.162-5.146-12.32
							c3.419-4.115,12.125,0.792,14.809,1.833C818.615,801.481,839.49,798.153,857.928,788.975z"/>
					</g>
				</g>
				<g>
					<path fill="#F6EBEA" d="M839.018,865.162c-36.678,12.381-60.117,5.011-105.87-13.991c-20.401-8.473-41.132-19.1-57.928-33.749
						c4.664,4.874,9.602,9.513,14.807,13.886c11.872,9.975,24.951,18.451,38.851,25.419c22.004,11.031,44.61,18.076,68.317,25.614
						c5.172,1.645,10.469,3.307,15.9,3.148c4.514-0.131,8.884-1.518,13.157-2.957c20.603-6.943,40.662-15.451,59.942-25.421
						c56.583-29.259,93.869-80.196,108.549-138.849C967.583,783.311,905.664,842.666,839.018,865.162z"/>
				</g>
				<g>
					<g>
						<path fill="#F2BFA8" d="M1164.299,1032.804c4.707-11.194,12.877-20.517,20.909-29.624
							c8.329-9.444,16.658-18.889,24.986-28.333c4.255-4.824,10.109-10.135,16.23-8.16c12.914,4.167-1.263,19.962-5.924,24.674
							c-3.44,3.478-6.87,7.183-9.614,11.244c-1.692,2.505-2.215,3.039,0.506,4.026c2.841,1.03,6.139,1.089,9.061,2.129
							c2.275,0.81,4.525,1.846,6.276,3.508c1.752,1.662,2.951,4.043,2.721,6.446c3.382-0.322,6.884,1.085,9.102,3.658
							s3.094,6.244,2.276,9.541c2.657-0.112,5.089,1.806,6.277,4.184c1.189,2.379,1.35,5.135,1.255,7.793
							c-0.499,13.964-9.753,26.675-18.924,36.682c-18.567,20.257-43.167,16.463-59.607-4.288
							C1157.831,1061.139,1158.14,1047.451,1164.299,1032.804z"/>
					</g>
					<g>
						<path fill="#EFA28A" d="M1179.748,1081.073c-0.657,0-1.262-0.436-1.448-1.101c-0.226-0.8,0.242-1.632,1.044-1.855
							c9.741-2.728,17.723-8.431,21.349-15.256c2.459-4.626,2.846-9.561,1.148-14.667c-2.128-6.404-4.107-8.317-9.217-12.152
							c-0.507-0.379-0.721-1.033-0.54-1.637c0.181-0.605,0.721-1.033,1.35-1.071c3.662-0.225,14.802-0.907,19.501-2.521
							c2.607-0.897,5.771-2.516,6.042-5.13c0.193-1.852-1.205-3.551-2.678-4.412c-1.815-1.064-4.075-1.355-6.247-1.513
							c-12.832-0.919-25.9,2.324-36.807,9.152c-0.706,0.44-1.636,0.229-2.075-0.478c-0.44-0.705-0.228-1.634,0.478-2.075
							c11.443-7.163,25.158-10.58,38.621-9.603c2.536,0.182,5.205,0.54,7.554,1.916c2.77,1.623,4.437,4.564,4.151,7.322
							c-0.344,3.32-3.131,5.972-8.061,7.666c-3.701,1.273-10.468,1.982-16.377,2.419c3.377,2.867,5.293,5.537,7.164,11.166
							c1.967,5.92,1.514,11.649-1.348,17.03c-4.006,7.538-12.678,13.797-23.197,16.743
							C1180.021,1081.056,1179.884,1081.073,1179.748,1081.073z"/>
					</g>
				</g>
				<g>
					<g>
						<path fill="#F2BBA0" d="M656.368,1334.808c21.674,26.266,54.183,48.692,54.022,49.967c15.82-1.041,29.993-7.879,35.777-20.432
							c-11.99-20.003-41.613-48.144-63.277-64.912C672.313,1311.339,665.672,1321.925,656.368,1334.808z"/>
					</g>
					<g>
						<path fill="#F2BBA0" d="M705.555,1410.696c-1.646-8.372-1.722-24.281,3.361-31.199c8.499-11.573,23.855-18.389,39.03-17.546
							c11.55,0.643,22.086,11.376,29.635,19.242c3.082,3.207,7.136,6.352,10.312,9.772c16.335,17.617,2.587,37.423-11.287,19.35
							c11.172,13.438,0.925,19.717-5.484,22.281c-5.725,2.299-10.435-1.118-12.389-4.17c1.561,4.774-0.129,10.56-7.704,12.696
							c-11.507,3.247-14.82-2.85-15.855-13.365c2.354,9.306,1.189,12.422-3.15,14.236
							C725.716,1444.636,710.937,1438.209,705.555,1410.696z"/>
					</g>
				</g>
				<g>
					<path fill="#FFFFFF" d="M746.167,1346.974c-25.01-18.022-90.208-77.321-97.777-85.934
						c-20.667-23.518-9.875-58.056-1.162-84.066c5.907-17.633,13.271-35.515,21.206-53.252c3.27-7.219,6.695-14.428,10.208-21.622
						c-0.921-20.22-5.49-138.298-5.792-150.249c-12.078,3.04-22.885,10.849-29.163,22.733
						c-20.244,38.317-37.701,76.465-53.362,116.648c-7.705,20.119-14.9,40.586-20.856,62.174
						c-9.241,33.496-23.027,89.305-0.554,120.221c33.947,46.695,15.626,21.881,55.305,59.322
						c25.217,23.795,47.643,39.815,74.868,56.905C717.201,1379.896,735.019,1365.038,746.167,1346.974z"/>
				</g>
				<g>
					<path fill="#8C4844" d="M969.584,612.047c-0.428,0-0.853-0.181-1.151-0.534c-10.734-12.695-24.753-22.15-40.542-27.345
						c-12.503-4.115-25.946-5.455-38.946-6.75c-6.039-0.603-12.287-1.226-18.389-2.119c-24.763-3.624-41.88-11.858-52.329-25.174
						c-0.513-0.655-0.398-1.6,0.256-2.115c0.653-0.513,1.603-0.398,2.115,0.256c9.949,12.68,26.433,20.547,50.394,24.054
						c6.034,0.882,12.246,1.501,18.252,2.101c13.162,1.312,26.771,2.669,39.589,6.886c16.318,5.369,30.806,15.142,41.9,28.262
						c0.537,0.635,0.458,1.585-0.178,2.122C970.272,611.931,969.927,612.047,969.584,612.047z"/>
				</g>
				<g>
					<path fill="#8C4844" d="M999.919,558.401c-0.302,0-0.605-0.09-0.869-0.278c-10.29-7.293-21.953-15.56-34.914-19.405
						c-22.642-6.716-46.638,0.013-69.842,6.524c-23.835,6.688-48.993,12.525-71.554,4.253c-0.781-0.285-1.183-1.15-0.896-1.931
						c0.287-0.781,1.157-1.181,1.931-0.896c21.737,7.967,45.375,2.499,69.703-4.326c23.621-6.626,48.045-13.477,71.513-6.512
						c13.44,3.988,25.318,12.407,35.8,19.837c0.679,0.481,0.838,1.42,0.356,2.098C1000.855,558.18,1000.391,558.401,999.919,558.401
						z"/>
				</g>
				<g>
					<path fill="#8C4844" d="M979.22,508.899c-0.363,0-0.729-0.13-1.017-0.396c-20.45-18.722-41.454-32.528-62.432-41.036
						c-24.753-10.037-50.085-13.03-73.257-8.653c-0.813,0.158-1.604-0.381-1.758-1.201c-0.155-0.818,0.382-1.604,1.2-1.758
						c23.737-4.487,49.655-1.437,74.948,8.82c21.31,8.643,42.619,22.642,63.332,41.606c0.615,0.562,0.656,1.514,0.095,2.127
						C980.033,508.735,979.627,508.899,979.22,508.899z"/>
				</g>
				<g>
					<path fill="#8C4844" d="M636.64,558.401c-0.306,0-0.614-0.093-0.88-0.286c-0.673-0.488-0.825-1.429-0.338-2.103
						c3.148-4.354,6.222-8.926,9.194-13.345c6.206-9.232,12.625-18.778,20.245-27.158c12.667-13.931,21.528-23.046,37.75-32.142
						c12.427-6.966,31.207-17.494,48.344-19.547c21.818-2.616,43.584-1.493,64.69,3.334c0.812,0.185,1.318,0.993,1.133,1.803
						c-0.184,0.812-0.991,1.322-1.803,1.132c-20.77-4.747-42.19-5.85-63.662-3.278c-16.544,1.983-35.009,12.333-47.229,19.183
						c-15.824,8.874-24.533,17.836-36.995,31.542c-7.472,8.216-13.828,17.669-19.975,26.811c-2.985,4.441-6.072,9.032-9.251,13.43
						C637.568,558.185,637.108,558.401,636.64,558.401z"/>
				</g>
				<g>
					<path fill="#8C4844" d="M618.263,575.77c-0.369,0-0.738-0.134-1.028-0.406c-0.609-0.567-0.64-1.521-0.072-2.128
						c49.267-52.676,127.047-78.949,198.168-66.934c0.819,0.14,1.372,0.916,1.234,1.737c-0.14,0.818-0.9,1.366-1.737,1.234
						c-70.146-11.862-146.872,14.061-195.465,66.019C619.066,575.61,618.665,575.77,618.263,575.77z"/>
				</g>
				<g>
					<path fill="#8C4844" d="M636.19,653.766c-0.306,0-0.615-0.093-0.881-0.285c-0.673-0.489-0.825-1.43-0.338-2.103
						c9.077-12.547,23.669-18.739,37.781-24.726c5.393-2.288,10.968-4.653,16.117-7.33c9.604-4.994,18.527-11.569,27.155-17.928
						c6.604-4.868,13.434-9.902,20.578-14.243c18.661-11.339,40.027-18.259,61.791-20.012c0.837-0.051,1.556,0.553,1.623,1.381
						c0.066,0.828-0.552,1.555-1.381,1.622c-21.298,1.715-42.207,8.487-60.468,19.583c-7.031,4.272-13.805,9.265-20.356,14.092
						c-8.721,6.428-17.739,13.074-27.554,18.177c-5.251,2.731-10.882,5.119-16.328,7.43c-13.732,5.826-27.933,11.85-36.517,23.718
						C637.116,653.55,636.658,653.766,636.19,653.766z"/>
				</g>
				<g>
					<path fill="#E7E8E6" d="M711.892,1461.393c7.821,8.332,18.55,13.811,29.834,15.532h14.578
						c14.064-2.039,27.194-10.095,35.162-21.88c11.45-16.934,11.744-38.915,9.833-59.268c0.354,3.778-60.039,13.675-75.756,15.985
						c-9.666,1.421-35.022,1.054-35.022,1.054s7.784,28.623,12.214,36.047C705.392,1453.314,708.345,1457.613,711.892,1461.393z"/>
				</g>
			</g>
			<g>
				<g>
					<g>
						<path fill="#69C7C1" d="M779.329,913.791c0.292-0.726,0.561-1.466,0.837-2.2c-20.402,7.005-37.396,21.238-48.751,41.126
							c-24.137,42.277-21.827,94.489-17.767,140.111c0.212,2.384,2.212,4.177,4.559,4.177c0.137,0,0.273-0.006,0.412-0.018
							c2.521-0.226,4.383-2.45,4.159-4.971c-3.937-44.238-6.227-94.781,16.596-134.755c7.885-13.81,18.771-24.583,31.736-31.679
							C774.588,922.281,777.474,918.407,779.329,913.791z"/>
					</g>
					<g>
						<path fill="#69C7C1" d="M910.51,990.174c-4.686-22.847-14.86-41.745-29.426-54.652c-11.702-10.37-24.733-18.058-38.283-22.882
							c1.729,4.992,4.288,9.606,7.952,13.312c8.497,4.223,16.671,9.71,24.251,16.428c16.514,14.633,23.54,35.068,26.526,49.635
							c3.904,19.049,3.542,38.986,3.19,58.266c-0.045,2.531,1.97,4.619,4.499,4.666c0.029,0,0.057,0,0.085,0
							c2.493,0,4.536-1.997,4.581-4.498C914.245,1030.669,914.617,1010.217,910.51,990.174z"/>
					</g>
				</g>
				<g>
					<ellipse fill="#B8C5D5" cx="909.508" cy="1053.384" rx="21.466" ry="20.334"/>
				</g>
				<g>
					<ellipse fill="#69C7C1" cx="909.508" cy="1053.384" rx="10.568" ry="10.012"/>
				</g>
				<g>
					<g>
						<ellipse fill="#B8C5D5" cx="743.226" cy="1188.852" rx="7.832" ry="7.419"/>
					</g>
					<g>
						<ellipse fill="#B8C5D5" cx="700.788" cy="1191.302" rx="7.832" ry="7.419"/>
					</g>
					<g>
						<path fill="#69C7C1" d="M699.538,1192.674c-0.906,0-1.802-0.401-2.404-1.17c-13.457-17.146-20.931-49.565-20.139-69.767
							c1.107-28.249,34.936-29.304,46.052-29.649c12.259-0.398,21.588,2.788,27.731,9.424c7.391,7.987,10.043,20.5,8.109,38.26
							c-1.684,15.482-6.312,32.546-13.031,48.047c-0.67,1.548-2.469,2.261-4.018,1.588c-1.548-0.671-2.259-2.47-1.588-4.018
							c6.481-14.953,10.943-31.39,12.563-46.279c1.708-15.675-0.486-26.928-6.521-33.447c-4.884-5.278-12.635-7.775-23.055-7.468
							c-26.779,0.835-39.534,8.392-40.137,23.781c-0.753,19.203,6.637,50.208,18.839,65.756c1.042,1.327,0.81,3.248-0.517,4.289
							C700.863,1192.46,700.199,1192.674,699.538,1192.674z"/>
					</g>
					<g>
						<path fill="#69C7C1" d="M681.933,1124.368c-1.554,0-2.883-1.181-3.038-2.761c-0.164-1.68,1.066-3.174,2.745-3.337
							c24.295-2.361,48.982-4.354,73.375-5.923c1.678-0.121,3.137,1.169,3.244,2.853c0.109,1.684-1.169,3.136-2.853,3.244
							c-24.326,1.564-48.945,3.554-73.175,5.909C682.132,1124.362,682.032,1124.368,681.933,1124.368z"/>
					</g>
				</g>
			</g>
			<g>
				<path fill="#E7E8E6" d="M875.349,1476.925c0.346-30.755,0.616-61.607,0.889-92.949c0.44-50.783,0.896-103.294,1.725-156.897
					c0.021-1.37-1.073-2.498-2.444-2.52c-1.3,0.077-2.499,1.073-2.521,2.443c-0.828,53.619-1.283,106.141-1.725,156.931
					c-0.272,31.356-0.543,62.224-0.888,92.992H875.349z"/>
			</g>
		</g>
	</g>
</g>
</svg>
