<?xml version="1.0" encoding="utf-8"?>
<!-- Generator: Adobe Illustrator 16.0.4, SVG Export Plug-In . SVG Version: 6.00 Build 0)  -->
<!DOCTYPE svg PUBLIC "-//W3C//DTD SVG 1.1//EN" "http://www.w3.org/Graphics/SVG/1.1/DTD/svg11.dtd">
<svg version="1.1" id="Capa_1" xmlns="http://www.w3.org/2000/svg" xmlns:xlink="http://www.w3.org/1999/xlink" x="0px" y="0px"
	 width="600px" height="600px" viewBox="75 0 600 600" enable-background="new 75 0 600 600" xml:space="preserve">
<circle fill="#C3946A" cx="375" cy="300" r="300"/>
<g>
	<g>
		<path fill="#471714" d="M237.648,559.542V40.415c0-13.354,10.942-24.298,24.298-24.298h304.369
			c13.354,0,24.298,10.943,24.298,24.298v519.171c0,13.355-10.943,24.298-24.298,24.298H261.946
			C248.59,583.84,237.648,572.941,237.648,559.542z"/>
		<path fill="#DCF2FD" d="M251.692,513.015V52.952c0-12.062,9.865-21.972,21.971-21.972h280.975
			c12.063,0,21.972,9.865,21.972,21.972v460.063c0,12.062-9.865,21.972-21.972,21.972H273.664
			C261.558,534.987,251.692,525.078,251.692,513.015z"/>
		<path opacity="0.6" fill="#DCF2FD" enable-background="new    " d="M571.226,527.318c3.317-3.834,5.342-8.831,5.342-14.303V52.952
			c0-12.062-9.865-21.972-21.972-21.972H284.779c18.611,14.433,36.533,29.727,53.679,45.839
			c31.062,29.122,59.84,60.787,86.033,94.348c26.667,34.163,50.879,70.352,71.729,108.349
			c20.55,37.438,37.955,76.685,51.009,117.354c12.45,38.902,20.851,79.27,23.479,120.067
			C570.924,520.382,571.096,523.872,571.226,527.318z"/>
		<circle fill="#FFFAF1" cx="414.151" cy="556.527" r="14.518"/>
		<path fill="#471714" d="M476.662,24.863H351.641v2.8c0,14.174,11.589,25.763,25.763,25.763h73.496
			c14.174,0,25.763-11.589,25.763-25.763V24.863L476.662,24.863z"/>
		<circle fill="#FFFAF1" cx="441.293" cy="35.073" r="7.884"/>
		<circle fill="#FFFAF1" cx="386.967" cy="35.073" r="7.884"/>
	</g>
	<g>
		<path fill="#471714" d="M303.408,426.378H134.875c-4.222,0-7.668-3.446-7.668-7.668v-237.42c0-4.223,3.447-7.669,7.668-7.669
			h168.534c4.222,0,7.668,3.446,7.668,7.669v237.42C311.077,422.932,307.63,426.378,303.408,426.378z"/>
		<path opacity="0.2" fill="#DCF2FD" enable-background="new    " d="M131.213,422.157v-237.42c0-4.223,3.446-7.669,7.668-7.669
			h168.533c0.948,0,1.853,0.173,2.671,0.475c-1.335-2.327-3.834-3.921-6.678-3.921H134.832c-4.222,0-7.668,3.446-7.668,7.669v237.42
			c0,3.274,2.068,6.117,4.998,7.194C131.514,424.785,131.17,423.493,131.213,422.157z"/>
		<path fill="#945449" d="M293.801,415.307H150.168c-3.619,0-6.548-2.973-6.548-6.549V207.009c0-3.618,2.973-6.548,6.548-6.548
			h143.589c3.619,0,6.548,2.973,6.548,6.548v201.749C300.306,412.334,297.377,415.264,293.801,415.307z"/>
		<path fill="#FDDCBF" d="M290.656,411.861H147.541c-3.619,0-6.548-2.973-6.548-6.549V203.563c0-3.619,2.973-6.548,6.548-6.548
			h143.073c3.619,0,6.548,2.972,6.548,6.548v201.749C297.162,408.888,294.232,411.818,290.656,411.861z"/>
		<path fill="#B8C5D5" d="M264.549,210.93h-90.427c-2.111,0-3.791-1.724-3.791-3.791v-12.925c0-2.111,1.723-3.791,3.791-3.791
			h90.427c2.111,0,3.792,1.724,3.792,3.791v12.925C268.34,209.207,266.66,210.887,264.549,210.93z"/>
		<path fill="#B8C5D5" d="M243.095,195.249h-47.476c-1.335,0-2.413-1.077-2.413-2.413l3.92-11.028
			c0.345-1.12,1.508-2.024,2.585-2.024h39.29c1.12,0,2.24,0.904,2.585,2.024l3.92,11.028
			C245.507,194.128,244.43,195.206,243.095,195.249z"/>
		<g>
			<g>
				<g>
					<circle fill="#C3946A" cx="176.319" cy="253.925" r="20.076"/>
				</g>
			</g>
			<g>
				<rect x="173.82" y="240.397" fill="#FFFFFF" width="5.041" height="27.099"/>
			</g>
			<g>
				<rect x="162.748" y="251.426" fill="#FFFFFF" width="27.098" height="5.04"/>
			</g>
		</g>
		<path fill="#C3946A" d="M219.314,368.65H156.2v-5.04h63.114V368.65z M279.412,352.968H156.243v-5.04h123.169V352.968
			L279.412,352.968z M279.412,337.287H156.243v-5.04h123.169V337.287L279.412,337.287z M279.412,321.605H156.243v-5.04h123.169
			V321.605L279.412,321.605z M279.412,305.924H156.243v-5.041h123.169V305.924L279.412,305.924z M279.412,272.45h-68.025v-5.04
			h68.025V272.45z M279.412,256.466h-68.025v-5.04h68.025V256.466z M279.412,240.484h-68.025v-5.041h68.025V240.484z"/>
		
			<line fill="none" stroke="#A7B8CB" stroke-width="2.0028" stroke-linecap="round" stroke-linejoin="round" stroke-miterlimit="10" x1="180.282" y1="204.037" x2="258.388" y2="204.037"/>
		
			<line fill="none" stroke="#A7B8CB" stroke-width="2.0028" stroke-linecap="round" stroke-linejoin="round" stroke-miterlimit="10" x1="180.282" y1="197.015" x2="258.388" y2="197.015"/>
	</g>
	<g>
		<g>
			<g>
				<g>
					<path fill="#945449" d="M314.591,285.676c3.576,9.779,10.813,17.663,19.989,22.531c4.523,2.412,9.436,4.05,14.433,5.04
						c3.791,0.732,11.891,3.274,13.7-1.335c0.603-1.551,0.603-3.274,0.56-4.911c-0.086-3.447-0.172-6.894-0.259-10.34
						c1.508,4.007,3.016,8.013,4.523,11.977c0.475,1.292,0.991,2.628,1.81,3.791c2.715,3.834,8.53,3.145,12.58,3.877
						c6.764,1.25,13.613,2.154,20.55,2.715c4.395,0.388,8.788,0.646,13.183,0.818c0.861,0.043,1.767,0.086,2.628,0.086
						c1.034,0.043,2.111,0.043,3.145,0.086c1.336,0.043,2.672,0.043,4.007,0.043c2.758,0.044,5.558,0.044,8.271,0
						c6.031-0.086,12.02-0.431,18.051-0.818c1.509-0.086,3.017-0.215,4.524-0.302c0.086,0,0.129,0,0.215,0
						c4.438-0.301,8.875-0.603,13.312-0.775c6.979-0.301,16.198-1.508,23.608-2.283c6.031-0.646,12.924-1.938,18.18-5.428
						c3.619-2.413,6.118-6.462,6.678-10.771c0.991,4.093,0.345,8.53-1.723,12.192c21.497-7.238,27.787-33.001,27.873-53.162
						c0.043-10.856-0.517-20.55-3.317-31.148c-2.283-8.573-6.807-13.183-10.942-18.438c-0.216-0.302-0.474-0.56-0.689-0.861
						c-1.68-2.197-3.317-4.523-4.652-7.324c-0.086-0.129-0.13-0.302-0.216-0.431c-0.861-1.853-1.724-3.705-2.412-5.644
						c-0.431-1.206-0.819-2.456-1.077-3.748c-0.604-2.757-0.775-5.601-1.077-8.357c-1.681-15.251-4.093-34.293-11.417-47.519
						c-6.677-12.063-16.629-23.479-29.51-29.08c-6.721-2.93-14.519,4.954-21.886,4.652c-14.863-0.56-29.381-4.265-44.201-5.385
						c-9.22-0.689-18.611-0.345-27.744,1.249c-5.859,0.991-11.675,2.327-17.232,4.395c-6.247,2.369-8.229,2.369-12.192,7.539
						c-7.453,9.822-14.647,23.824-18.654,35.542c-2.886,8.401-2.498,17.534-2.8,26.279c-0.173,4.136-0.302,8.401-1.292,12.494
						c-0.044,0.086-0.044,0.172-0.087,0.258c-0.603,2.499-1.422,4.912-2.326,7.281c-0.689,1.896-1.422,3.791-2.067,5.729
						c-0.689,2.111-1.81,3.662-2.758,5.687c-0.345,0.646-0.604,1.379-0.904,2.154c-4.653,13.786-10.21,30.027-11.934,37.18
						C310.11,263.144,310.326,274.044,314.591,285.676z M318.209,248.411c-0.474,9.177-0.689,19.646,1.292,28.434
						c2.025,8.918,6.592,17.491,12.709,24.298c-11.244-5.988-16.328-16.802-16.931-30.07
						C314.979,264.221,316.013,254.916,318.209,248.411z"/>
				</g>
				<g>
					<path fill="#885546" d="M533.745,220.882c0,0,0-0.044-0.043-0.044c-0.561-0.99-0.173-2.283,0.818-2.843
						c0.99-0.561,2.283-0.173,2.843,0.818c3.533,6.376,6.204,13.054,8.271,19.946c2.068,6.851,3.619,13.915,4.309,21.023
						c0.646,7.108,0.947,14.347-0.431,21.455c-1.336,7.065-4.223,13.958-8.875,19.473c-0.216,0.259-0.646,0.302-0.904,0.086
						c-0.302-0.216-0.345-0.646-0.087-0.904c4.309-5.472,6.851-12.149,7.884-18.999c1.077-6.85,0.561-13.872-0.344-20.809
						c-0.905-6.936-2.629-13.699-4.869-20.291C540.077,233.247,537.277,226.827,533.745,220.882L533.745,220.882z"/>
				</g>
				<g>
					<path fill="#885546" d="M326.051,216.918c-0.732-0.388-1.034-1.336-0.604-2.068c5.084,3.317,1.465,0.862,2.585,1.595l0,0l0,0
						l-0.043,0.043l-0.086,0.129l-0.13,0.216l-0.302,0.474l-0.56,0.904l-1.12,1.896c-0.732,1.25-1.465,2.542-2.154,3.792
						c-1.422,2.541-2.757,5.169-4.049,7.797c-2.542,5.256-4.825,10.642-6.721,16.199c-1.896,5.514-3.403,11.201-4.179,16.974
						c-0.775,5.772-0.818,11.675,0.604,17.275c0.086,0.345-0.129,0.689-0.474,0.775s-0.689-0.129-0.818-0.474
						c-1.594-5.816-1.68-11.891-1.077-17.836c0.646-5.945,2.025-11.761,3.834-17.447c1.766-5.688,3.963-11.201,6.419-16.63
						c1.25-2.714,2.542-5.385,3.877-8.013c0.689-1.336,1.378-2.628,2.111-3.921l1.12-1.938l0.56-0.99l0.302-0.475l0.13-0.258
						l0.086-0.13l0.043-0.086l0.043-0.043v-0.043c1.163,0.689-2.499-1.767,2.628,1.551
						C327.73,217.047,326.783,217.306,326.051,216.918z"/>
				</g>
				<g>
					<path fill="#8C4844" d="M329.842,274.733c-1.077-8.659-2.197-17.62-1.724-26.538c0.518-10.08,2.973-18.653,7.367-25.504
						c0.172-0.301,0.603-0.388,0.904-0.215c0.302,0.172,0.388,0.603,0.216,0.904c-4.266,6.678-6.635,15.035-7.151,24.901
						c-0.431,8.788,0.646,17.706,1.723,26.322c0.043,0.345-0.215,0.689-0.56,0.732c-0.043,0-0.043,0-0.086,0
						C330.144,275.293,329.885,275.078,329.842,274.733z"/>
				</g>
				<g>
					<path fill="#8C4844" d="M342.594,291.32c-0.086-17.232-3.878-34.638-10.986-50.319c-0.129-0.345,0-0.732,0.345-0.861
						s0.689,0,0.862,0.345c7.194,15.854,11.028,33.431,11.114,50.836c0,0.345-0.301,0.646-0.646,0.646l0,0
						C342.896,291.965,342.594,291.665,342.594,291.32z"/>
				</g>
				<g>
					<path fill="#8C4844" d="M502.984,302.391c-0.301-0.172-0.474-0.56-0.301-0.861c10.124-20.636,14.389-43.642,12.321-66.561
						c-0.044-0.345,0.215-0.689,0.603-0.689c0.345-0.043,0.689,0.216,0.689,0.604c2.067,23.135-2.24,46.398-12.45,67.25
						c-0.13,0.215-0.345,0.345-0.604,0.345C503.157,302.434,503.071,302.434,502.984,302.391z"/>
				</g>
				<g>
					<path fill="#8C4844" d="M513.669,274.733c-0.302-0.215-0.388-0.603-0.173-0.904c9.78-14.863,14.476-32.828,13.227-50.62
						c-0.043-0.345,0.258-0.646,0.603-0.689c0.388-0.043,0.646,0.259,0.689,0.604c1.293,18.051-3.489,36.317-13.441,51.396
						c-0.129,0.172-0.345,0.302-0.56,0.302C513.884,274.863,513.755,274.82,513.669,274.733z"/>
				</g>
				<g>
					<path fill="#8C4844" d="M481.143,305.537c-0.345,0-0.646-0.345-0.604-0.689c0.561-9.478,0.044-23.135-1.163-32.526
						c-0.043-0.345,0.216-0.689,0.561-0.732s0.689,0.216,0.732,0.56c1.249,9.479,1.723,23.265,1.206,32.785
						C481.789,305.278,481.53,305.537,481.143,305.537C481.186,305.537,481.143,305.537,481.143,305.537z"/>
				</g>
				<g>
					<path fill="#E9E2E4" d="M328.636,206.105c0.646-1.938,1.378-3.834,2.067-5.729c0.904-2.413,1.724-4.825,2.326-7.281
						c13.959,7.583,27.099,14.002,41.961,20.076c7.798,3.188,15.769,6.16,23.91,8.314c8.186,2.154,16.587,3.317,25.03,3.489
						c8.314,0.13,16.5-1.68,24.471-3.834c7.107-1.938,14.217-3.963,21.324-5.772c11.934-3.016,24.083-5.73,35.37-10.813
						c7.884-3.533,12.235-4.48,17.104-9.736c0.688,1.938,1.551,3.791,2.412,5.644c0.086,0.129,0.129,0.302,0.216,0.431
						c1.335,2.801,2.93,5.127,4.652,7.324c-1.981,5.428-5.428,10.296-9.951,13.915c-2.111,1.68-4.438,3.102-6.549,4.782
						c-7.367,5.988-8.357,13.527-12.45,21.325c-3.878,7.452-9.521,13.915-15.682,19.559c-4.352,3.963-9.177,7.108-14.217,10.081
						c-4.739,2.8-9.65,5.558-13.7,9.306c-1.81,1.68-3.446,3.791-4.136,6.203c-0.732,2.499-0.818,5.256-0.517,7.841
						c0.215,2.283,0.947,4.352,2.24,6.247c0.689,0.99,1.422,1.938,2.067,2.887c-0.086,0-0.129,0-0.215,0
						c-1.508,0.086-3.016,0.215-4.523,0.301c-5.988,0.388-12.02,0.732-18.052,0.819c-2.757,0.043-5.514,0.043-8.271,0
						c-1.335,0-2.671-0.044-4.006-0.044c-1.034-0.043-2.111-0.043-3.146-0.086c-0.861-0.043-1.766-0.086-2.628-0.086
						c-4.395-0.172-8.788-0.431-13.183-0.818c-1.767-0.173-3.489-0.345-5.256-0.518c2.197-2.283,3.705-5.299,4.523-8.314
						c1.12-4.05,0.861-8.013-0.818-11.847c-3.489-8.143-11.158-12.192-18.267-17.018c-8.702-5.902-16.328-13.312-22.704-21.627
						c-6.376-8.271-7.409-16.198-15.423-22.919c-4.05-3.403-10.469-5.729-14.346-9.349c-1.981-1.853-3.446-4.48-4.352-7.022
						C326.826,209.81,327.946,208.216,328.636,206.105z"/>
				</g>
			</g>
			<g>
				<path fill="#FFFFFF" d="M353.665,321.347c2.672-10.771,13.571-17.361,24.385-14.69c10.812,2.671,17.361,13.57,14.69,24.384
					v0.043c-2.025,8.271-4.007,17.061-6.161,25.806c-2.11,8.788-4.351,17.663-6.936,26.624s-5.429,17.922-9.09,27.055
					c-1.853,4.567-3.878,9.177-6.333,13.829c-2.499,4.653-5.386,9.436-9.521,14.304l-0.388,0.474l-0.215,0.215l-0.345,0.388
					c-0.475,0.518-0.991,1.034-1.508,1.551c-1.077,0.991-2.284,1.982-3.576,2.844c-2.585,1.724-5.601,2.973-8.487,3.662
					c-2.886,0.689-5.644,0.818-8.056,0.646c-2.413-0.173-4.566-0.561-6.462-1.034c-3.792-1.034-6.894-2.413-9.607-3.834
					c-2.714-1.465-5.127-2.973-7.367-4.567c-4.48-3.145-8.314-6.462-11.977-9.822c-3.619-3.403-7.022-6.85-10.21-10.426
					c-6.419-7.108-12.278-14.475-17.792-22.101c-5.471-7.668-10.555-15.552-15.165-24.082c-3.36-6.29-1.335-14.217,4.782-18.051
					c6.376-4.007,14.777-2.025,18.784,4.351l0.086,0.13c4.308,6.85,9.263,13.656,14.562,20.118
					c5.299,6.463,10.942,12.709,16.802,18.396c2.929,2.844,5.945,5.558,8.961,8.057c3.016,2.499,6.117,4.739,9.047,6.548
					c1.465,0.905,1.68,1.12,2.973,1.638c1.249,0.56,2.154-1.638,3.662-4.911c1.508-3.274,2.843-6.894,4.136-10.685
					c2.542-7.539,4.609-15.682,6.462-23.91c1.853-8.271,3.489-16.759,5.04-25.331c1.552-8.616,2.973-17.276,4.653-26.366
					C353.45,322.123,353.579,321.692,353.665,321.347z"/>
			</g>
			<g>
				<path fill="#F2BFA8" d="M388.044,308.724c2.844,7.971,7.884,15.122,14.131,20.852c4.566,4.222,9.779,7.668,15.294,10.512
					c2.628,1.336,5.17,3.188,8.056,2.024c2.758-1.12,5.343-2.671,8.057-3.92c3.231-1.508,6.333-3.317,9.22-5.385
					c5.772-4.136,10.812-9.393,14.69-15.381c0.947-1.464,1.81-2.929,2.455-4.566c0.646-1.68,1.077-3.489,1.164-5.299
					c0.129-2.542-3.017-2.714-4.912-3.317c-2.455-0.732-5.299-1.422-7.625-2.498c-4.265-1.982-8.314-4.868-10.124-9.393
					c-3.36-8.4-4.48-18.309-2.024-27.098l-10.168-1.336c-0.775,0-1.551-0.043-2.283-0.043c-0.775,0.043-1.551,0.043-2.283,0.043
					l-10.167,0.044c0.861,0,1.379,9.606,1.422,10.512c0.086,3.446-0.302,6.85-0.474,10.253c-0.302,5.515-2.025,11.675-7.022,14.69
					c-3.016,1.81-6.764,2.887-10.081,3.878c-1.724,0.517-7.194,1.077-7.626,2.93c-0.172,0.775,0.044,1.551,0.302,2.283
					C388.001,308.638,388.044,308.681,388.044,308.724z"/>
			</g>
			<g>
				<path fill="#3B80AA" d="M419.105,534.987c-4.05-6.764-10.856-11.848-19.214-13.398c-12.105-2.283-23.91,3.403-29.898,13.398
					H419.105z"/>
			</g>
			<g>
				<path fill="#3B80AA" d="M478.729,534.987c-4.566-10.685-14.948-18.353-27.312-18.87c-13.27-0.56-24.944,7.324-29.855,18.87
					H478.729z"/>
			</g>
			<g>
				<path fill="#69C7C1" d="M357.543,534.987h123.771c-0.301-4.222-0.775-8.143-0.99-10.899c-0.518-7.367-1.767-13.614-8.315-17.922
					c-6.419-4.179-23.177-1.767-30.76-2.154c-18.955-0.947-33.215-0.561-52.214,0.086c-9.995,0.345-18.956-4.265-24.858,5.859
					C361.377,514.739,359.18,525.638,357.543,534.987L357.543,534.987z"/>
			</g>
			<g>
				<g>
					<path fill="#543C32" d="M359.524,532.531c-0.56-0.086-0.991-0.603-0.904-1.163c0.086-0.56,0.603-0.991,1.163-0.904
						c10.469,1.206,22.488-6.979,25.719-17.448c0.173-0.56,0.776-0.861,1.293-0.689c0.56,0.173,0.861,0.775,0.689,1.293
						c-3.274,10.641-14.906,19.042-25.72,19.042C360.989,532.617,360.257,532.617,359.524,532.531z"/>
				</g>
			</g>
			<g>
				<g>
					<path fill="#543C32" d="M462.488,534.987c-9.908-4.266-19.171-13.527-21.972-22.23c-0.258-0.731-1.033-1.163-1.766-0.904
						s-1.163,1.034-0.905,1.767c2.542,7.927,9.823,16.198,18.439,21.368H462.488z"/>
				</g>
			</g>
			<g>
				<path fill="#B4E3F6" d="M363.358,507.372c1.293,7.237,26.452,4.997,31.622,5.644c15.466,2.025,31.233,1.508,46.484-1.508
					c0.646-0.129,1.292-0.259,1.853-0.604c1.938,0,3.748,0.13,5.299,0.389c11.762,2.153,18.138,2.714,26.754,5.901
					c14.776,5.472,12.795-42.995,12.02-51.869c-1.724-20.119-2.499-33.087,0.732-71.559c1.249-15.121,2.886-21.195,2.886-36.36
					c0-11.589,8.875-34.81-3.317-42.693c-9.262-5.988-24.729-9.951-36.791-12.967c-2.455-0.604-16.759,19.171-26.753,19.473
					c-9.823,0.301-18.697-21.584-23.824-20.421c-10.167,2.283-22.359,4.179-32.139,7.28c-0.646,0.216-1.292,0.432-1.767,0.862
					c-0.603,0.56-0.818,1.465-0.99,2.283c-1.551,7.841,0.129,19.43,0.689,27.399c0.947,12.882,1.378,28.003,2.067,40.884
					c0.862,15.768,1.206,29.209,1.896,44.978c0.604,13.527,0.043,27.098-0.904,40.625
					C368.83,471.14,362.023,499.918,363.358,507.372z"/>
			</g>
			<g>
				<path fill="#FFFFFF" d="M493.464,357.708c0-11.589,7.798-41.53-5.342-47.519c-6.808-3.102-26.193-8.4-35.068-9.349
					c-3.446,13.915-11.33,130.105-18.396,234.146h55.402c-0.043-18.87-0.302-37.438-2.154-58.849
					c-1.724-20.119-2.973-43.9,0.216-82.328C489.328,378.688,493.464,372.873,493.464,357.708z"/>
			</g>
			<g>
				<path fill="#E7F2F8" d="M487.863,476.138c-1.465-17.104-2.585-36.878-0.904-66.044c-2.284,16.845-5.257,33.646-11.546,49.414
					c-0.991,2.499-2.111,4.997-3.274,7.41c0.948,0.259,1.767,0.904,2.154,2.11c1.249,4.093,1.896,8.315,3.016,12.451
					c0.258,1.034,0.818,2.154,0.818,3.188c0,0.862-0.431,1.724-0.732,2.499c-0.56,1.336-1.206,2.585-1.938,3.834
					c-3.146,5.041-8.573,10.899-15.165,9.392c-0.043,0-0.086-0.043-0.129-0.043c-3.059,1.465-6.247,2.671-9.392,3.705
					c-4.653,1.551-9.435,2.714-14.217,3.834c-0.345,4.868-0.646,9.693-0.991,14.562c7.669-0.99,15.208-2.886,22.531-5.213
					c4.998-1.551,12.021-1.809,15.639-5.858c1.551-1.767,2.628-3.791,3.921-5.773c1.981-2.973,3.273-6.031,5.644-8.788
					c0.991-1.163,1.938-2.369,2.93-3.533c0.388-0.474,2.714-2.541,2.714-3.059C488.639,485.659,488.294,481.006,487.863,476.138z"/>
			</g>
			<g>
				<path fill="#FFFFFF" d="M353.622,534.987h50.189c-2.929-105.118-5.557-222.472-8.056-234.146
					c-5.299,0.732-26.754,4.309-31.104,7.582c-4.093,3.103,1.508,30.416,1.896,36.835c0.689,11.416,0.99,22.876,1.637,34.292
					c0.861,15.769,1.206,29.253,1.896,44.978c0.475,10.684,0.216,21.368-0.345,32.009c-0.172,2.887-0.431,5.729-0.775,8.573
					c-0.689,5.601-1.68,11.072-2.886,16.586c-1.767,8.143-3.921,16.285-5.945,24.514c-0.475,1.938-0.948,3.92-1.422,5.902
					C356.982,519.736,355.26,527.361,353.622,534.987L353.622,534.987z"/>
			</g>
			<g>
				<path fill="#E7F2F8" d="M366.116,481.695c0-0.086,0-0.129,0.043-0.215c-1.767,8.229-3.921,16.414-5.988,24.729
					c-0.475,1.938-0.948,3.92-1.422,5.902c-1.767,7.625-3.489,15.25-5.127,22.876h6.721c0.561-10.254,1.379-20.507,2.801-30.674
					C364.221,496.817,365.341,489.278,366.116,481.695z"/>
			</g>
			<g>
				<path fill="#E7E8E6" d="M446.764,391.095c-0.474-0.345-0.646-0.99-0.302-1.465l0.862-1.292
					c6.333-9.607,12.321-18.697,18.653-29.252c-1.508-0.518-3.145-1.163-4.867-1.853c-3.749-1.465-7.669-3.016-10.685-3.619
					c-0.474-0.086-0.818-0.474-0.861-0.947c-0.043-0.475,0.215-0.905,0.646-1.077c1.422-0.604,4.007-1.12,6.979-1.724
					c4.265-0.861,9.521-1.938,12.364-3.489c-0.345-2.456-2.844-12.709-5.127-21.799c-1.723-6.937-3.446-14.088-4.825-19.947
					c-0.129-0.56,0.216-1.163,0.819-1.292c0.56-0.129,1.163,0.215,1.292,0.818c1.336,5.859,3.102,13.011,4.825,19.903
					c5.687,23.178,5.644,23.221,4.652,23.824c-3.016,1.938-8.616,3.059-13.57,4.05c-1.034,0.215-2.067,0.431-2.973,0.603
					c2.326,0.775,4.825,1.724,7.238,2.671c2.196,0.862,4.265,1.681,6.031,2.24c0.301,0.087,0.56,0.345,0.689,0.646
					c0.129,0.302,0.086,0.646-0.087,0.905c-6.634,11.071-12.838,20.506-19.387,30.458l-0.861,1.292
					c-0.215,0.302-0.56,0.475-0.904,0.475C447.108,391.268,446.937,391.225,446.764,391.095z"/>
			</g>
			<g>
				<path fill="#E7E8E6" d="M397.393,390.75c-2.11-3.532-4.007-6.893-5.858-10.081c-3.792-6.548-7.367-12.752-11.589-19.171
					c-0.173-0.258-0.216-0.56-0.13-0.818c0.086-0.302,0.259-0.517,0.518-0.689c5.815-3.36,8.659-5.601,11.632-7.97
					c0.172-0.129,0.345-0.259,0.517-0.388c-3.791-0.431-8.056-0.905-11.589-0.861c-0.302,0-0.603-0.13-0.818-0.345
					c-0.216-0.216-0.302-0.561-0.259-0.862c0.905-6.376,1.508-13.397,2.111-20.162c0.775-8.917,1.594-18.137,3.016-25.719
					c0.129-0.561,0.689-0.948,1.249-0.862c0.561,0.13,0.948,0.689,0.862,1.25c-1.422,7.453-2.197,16.198-3.016,25.504
					c-0.561,6.376-1.164,12.968-1.939,19.042c3.49,0.043,7.367,0.474,10.856,0.904c0.819,0.086,1.595,0.173,2.37,0.259
					c0.431,0.043,0.775,0.345,0.904,0.775s-0.043,0.861-0.388,1.12c-0.904,0.689-1.724,1.335-2.542,1.981
					c-2.886,2.283-5.601,4.438-10.942,7.582c3.964,6.118,7.41,12.063,11.028,18.354c1.853,3.188,3.748,6.505,5.859,10.037
					c0.302,0.518,0.129,1.163-0.388,1.465c-0.172,0.086-0.345,0.13-0.56,0.13C397.953,391.268,397.608,391.095,397.393,390.75z"/>
			</g>
			<g>
				<path fill="#945449" d="M327.816,194.602c1.207,0.862,2.413,1.681,3.619,2.456c5.256,3.274,10.899,5.902,16.716,8.013
					c12.536,4.523,25.633,6.592,38.902,7.238c15.768,0.775,31.492-0.475,47.26-0.776c15.682-0.301,31.492-0.818,46.915-4.006
					c8.401-1.724,16.414-4.438,24.384-7.626c3.662-1.464,7.798-2.369,11.072-4.609c4.954-3.446,3.834-5.988,3.36-11.503
					c-1.336-14.862,0.646-29.812-3.446-44.373c-3.619-12.882-10.599-24.858-20.119-34.25c-10.21-10.081-25.073-21.756-39.506-24.254
					c-11.933-2.068-26.71-1.767-37.222,4.911c-0.861,0.56-1.767,1.163-2.757,1.378c-1.422,0.259-2.844-0.301-4.223-0.818
					c-20.98-8.056-46.699-1.508-61.218,15.682c-11.805,13.915-15.854,32.742-18.008,50.836c-1.034,8.53-1.724,17.146-2.068,25.763
					c0,0.431-0.474,2.541-1.034,5.126C329.281,188.399,327.816,194.602,327.816,194.602z"/>
			</g>
			<g>
				<path fill="#F2BFA8" d="M425.481,95.817c45.796,0,83.707,24.686,82.889,87.067c0,12.105-1.896,24.47-5.816,35.973
					c-4.997,14.647-13.699,27.96-25.633,37.998c-5.127,4.308-10.771,7.97-16.759,10.942c-9.478,4.739-19.214,7.798-29.425,11.028
					c-2.24,0.689-4.523,1.422-6.85,1.336c-1.938-0.043-3.834-0.646-5.687-1.293c-8.875-2.973-17.534-6.677-25.806-10.942
					c-32.225-16.672-49.975-49.673-49.802-85.085C342.896,113.782,379.729,95.817,425.481,95.817z"/>
			</g>
			<g>
				<g>
					
						<ellipse transform="matrix(-0.1841 -0.9829 0.9829 -0.1841 204.5645 574.0024)" fill="#F2BFA8" cx="340.522" cy="202.097" rx="19.084" ry="15.638"/>
				</g>
				<g>
					<path fill="#EFA28A" d="M331.177,205.071c-1.077-3.748-0.517-7.754,1.465-10.727c1.508-2.197,5.558-4.266,8.746-3.748
						c0.56,0.086,0.947,0.646,0.861,1.206c-0.086,0.56-0.646,0.947-1.206,0.861c-2.283-0.388-5.558,1.249-6.635,2.844
						c-1.637,2.455-2.111,5.815-1.206,9.004c0.172,0.56-0.173,1.12-0.732,1.292c-0.086,0.043-0.173,0.043-0.302,0.043
						C331.737,205.846,331.307,205.545,331.177,205.071z"/>
				</g>
				<g>
					<path fill="#EFA28A" d="M339.19,201.539c-0.905-2.326-3.188-5.429-4.998-6.161c-0.517-0.215-0.775-0.818-0.56-1.378
						c0.215-0.518,0.818-0.775,1.379-0.561c2.671,1.12,5.212,4.954,6.16,7.367c0.216,0.56-0.043,1.163-0.604,1.379
						c-0.129,0.043-0.258,0.086-0.388,0.086C339.75,202.185,339.319,201.926,339.19,201.539z"/>
				</g>
			</g>
			<g>
				<g>
					
						<ellipse transform="matrix(-0.9829 -0.1841 0.1841 -0.9829 974.4897 494.6855)" fill="#F2BFA8" cx="510.212" cy="202.1" rx="15.638" ry="19.085"/>
				</g>
				<g>
					<path fill="#EFA28A" d="M518.278,205.803c-0.56-0.172-0.861-0.732-0.732-1.292c0.905-3.188,0.475-6.549-1.206-9.004
						c-1.077-1.595-4.352-3.231-6.635-2.844c-0.56,0.086-1.12-0.302-1.206-0.861c-0.086-0.561,0.302-1.12,0.861-1.206
						c3.188-0.561,7.238,1.508,8.746,3.748c1.981,2.973,2.542,6.979,1.465,10.727c-0.13,0.475-0.561,0.775-0.991,0.775
						C518.494,205.846,518.407,205.803,518.278,205.803z"/>
				</g>
				<g>
					<path fill="#EFA28A" d="M510.223,202.141c-0.561-0.215-0.819-0.818-0.604-1.378c0.948-2.37,3.446-6.247,6.161-7.367
						c0.517-0.216,1.163,0.043,1.378,0.561c0.216,0.517-0.043,1.163-0.56,1.378c-1.81,0.732-4.05,3.791-4.998,6.161
						c-0.172,0.431-0.56,0.646-0.99,0.646C510.48,202.185,510.352,202.185,510.223,202.141z"/>
				</g>
			</g>
			<g>
				<path fill="#945449" d="M509.403,150.487c-1.551-14.044-6.462-27.873-14.905-39.246c-4.179-5.644-8.057-13.786-15.036-14.604
					c-62.554-7.626-68.11-12.451-94.95-3.016c-22.488,7.883-29.984,16.974-36.188,40.625c-2.628,10.038-7.108,14.604-7.108,25.375
					c-0.431,7.28,0.173,14.733,1.034,21.972c0.991,8.185,4.05,15.466,6.635,23.264c0.215-5.386,0.345-12.623,2.11-17.75
					c1.595-4.738,7.884-8.702,12.149-10.771c6.807-3.316,14.562-4.092,22.101-4.738c8.143-0.732,15.423-0.861,22.747-5.127
					c4.954-2.93,8.831-6.85,12.838-10.899c2.412-2.456,2.499-2.585,4.911-0.043c1.422,1.551,2.456,3.446,4.093,4.825
					c5.213,4.48,11.373,7.798,17.792,10.253c6.29,2.37,12.839,3.921,19.43,5.17c5.73,1.077,11.848,1.206,17.319,3.36
					c4.868,1.896,9.392,4.954,12.752,9.004c4.093,4.911,4.523,10.813,4.825,17.018c2.628-4.18,3.532-6.851,4.738-10.038
					c1.465-3.835,1.981-9.091,2.585-13.184c0.043-0.172,0.043-0.388,0.086-0.56C510.309,174.699,510.136,157.165,509.403,150.487z"
					/>
			</g>
			<g>
				<g>
					<path fill="#EFA28A" d="M412.687,218.383c-0.56-1.724-0.431-3.446,0.345-4.911c0.861-1.595,2.412-2.844,4.438-3.447
						c2.326-0.688,4.954-0.474,7.453,0.646c0.603,0.259,0.861,0.948,0.603,1.508c-0.258,0.604-0.947,0.862-1.508,0.604
						c-1.981-0.861-4.049-1.077-5.858-0.518c-1.422,0.432-2.499,1.25-3.059,2.284c-0.475,0.947-0.561,1.981-0.173,3.145
						c1.206,3.791,5.945,3.877,7.927,3.748c0.646-0.043,1.206,0.431,1.25,1.077c0.043,0.646-0.432,1.206-1.077,1.249
						c-0.388,0.043-0.818,0.043-1.163,0.043C417.081,223.811,413.807,221.873,412.687,218.383z"/>
				</g>
				<g>
					<g>
						<ellipse fill="#945449" cx="458.654" cy="208.905" rx="5.644" ry="8.703"/>
					</g>
					<g>
						<ellipse fill="#FFFFFF" cx="460.507" cy="204.425" rx="1.853" ry="2.24"/>
					</g>
				</g>
				<g>
					<g>
						<ellipse fill="#945449" cx="390.155" cy="208.905" rx="5.644" ry="8.703"/>
					</g>
					<g>
						<ellipse fill="#FFFFFF" cx="391.965" cy="204.425" rx="1.853" ry="2.24"/>
					</g>
				</g>
				<g>
					<path fill="#885546" d="M394.636,185.296c0.086,0,0.215,0.044,0.302,0.044c1.421,0.301,2.326,1.723,2.024,3.145
						s-1.724,2.326-3.145,2.024c-1.508-0.301-3.188-0.431-4.868-0.474c-1.681,0-3.403,0.086-5.084,0.259
						c-3.403,0.431-6.807,1.163-9.779,2.628h-0.043c-0.561,0.302-1.293,0.129-1.638-0.431c-0.388-0.604-0.258-1.379,0.345-1.81
						c1.595-1.077,3.317-1.896,5.084-2.628c1.767-0.689,3.532-1.25,5.342-1.681s3.662-0.775,5.558-0.99
						C390.672,185.21,392.567,185.125,394.636,185.296L394.636,185.296z"/>
				</g>
				<g>
					<path fill="#885546" d="M454.604,190.294c-1.465,0.086-2.714-1.034-2.757-2.499c-0.087-1.465,1.033-2.714,2.498-2.757l0,0
						c2.068-0.087,3.964,0.043,5.859,0.345c1.896,0.258,3.705,0.688,5.515,1.163c1.81,0.517,3.575,1.12,5.299,1.853
						c1.723,0.732,3.403,1.637,4.997,2.757c0.518,0.388,0.689,1.077,0.388,1.681c-0.345,0.646-1.12,0.861-1.766,0.517h-0.043
						c-2.93-1.551-6.333-2.412-9.693-2.93c-1.681-0.259-3.404-0.388-5.084-0.431s-3.36,0.043-4.868,0.302
						C454.82,190.294,454.733,190.294,454.604,190.294z"/>
				</g>
				<g>
					<path fill="#FFFFFF" d="M429.79,240.786c1.163-0.431,4.911-2.542,6.376-0.775c1.12,1.378-1.12,4.265-2.197,5.299
						c-4.352,4.308-12.062,7.668-18.353,6.936c-6.333-0.732-10.641-4.954-13.657-10.684c-0.474-0.862-0.732-2.025-0.086-2.714
						c0.646-0.689,1.853-0.646,2.714-0.216C412.515,242.595,421.519,244.016,429.79,240.786z"/>
				</g>
			</g>
			<g>
				<path fill="#F6EBEA" d="M345.652,208.173c6.333,25.288,22.402,47.217,46.743,59.796c8.314,4.309,16.931,7.971,25.806,10.943
					c1.853,0.603,3.705,1.206,5.687,1.292c2.326,0.086,4.609-0.646,6.85-1.336c10.211-3.23,19.947-6.289,29.425-11.028
					c5.988-3.016,11.632-6.635,16.759-10.942c2.24-1.896,4.351-3.878,6.376-5.988c-7.238,6.29-16.155,10.899-24.944,14.519
					c-19.731,8.185-29.812,11.373-45.623,6.031C384.038,261.766,357.327,236.175,345.652,208.173z"/>
			</g>
			<g>
				<g>
					<path fill="#F2BFA8" d="M270.217,362.404c-7.065,8.961-17.664,10.555-25.676,1.853c-3.964-4.309-7.927-9.779-8.143-15.812
						c-0.043-1.163,0.043-2.326,0.56-3.36c0.517-1.033,1.551-1.853,2.714-1.809c-0.345-1.422,0.043-3.016,0.991-4.093
						c0.948-1.12,2.456-1.724,3.92-1.595c-0.086-1.033,0.431-2.067,1.163-2.757c0.775-0.732,1.723-1.163,2.714-1.508
						c1.25-0.431,2.671-0.474,3.92-0.904c1.164-0.432,0.948-0.646,0.216-1.724c-1.164-1.767-2.671-3.36-4.136-4.825
						c-2.024-2.024-8.099-8.832-2.542-10.641c2.628-0.862,5.169,1.421,6.979,3.532c3.576,4.05,7.195,8.143,10.771,12.192
						c3.446,3.92,6.979,7.927,9.004,12.752C275.258,349.996,275.387,355.855,270.217,362.404z"/>
				</g>
				<g>
					<path fill="#EFA28A" d="M265.78,364.428c-4.523-1.249-8.271-3.964-9.995-7.194c-1.25-2.326-1.422-4.782-0.56-7.324
						c0.818-2.412,1.637-3.575,3.102-4.825c-2.542-0.172-5.471-0.474-7.065-1.033c-2.111-0.732-3.317-1.853-3.49-3.317
						c-0.129-1.206,0.603-2.456,1.809-3.146c0.991-0.603,2.154-0.732,3.274-0.818c5.816-0.431,11.718,1.034,16.629,4.136
						c0.301,0.173,0.388,0.604,0.215,0.905c-0.172,0.301-0.603,0.388-0.905,0.215c-4.696-2.93-10.339-4.351-15.854-3.963
						c-0.948,0.086-1.896,0.172-2.671,0.646c-0.646,0.388-1.249,1.12-1.163,1.896c0.129,1.12,1.465,1.81,2.585,2.197
						c2.025,0.689,6.807,0.991,8.401,1.077c0.258,0,0.517,0.216,0.56,0.474c0.086,0.259,0,0.561-0.216,0.689
						c-2.197,1.638-3.059,2.456-3.963,5.256c-0.732,2.197-0.56,4.309,0.474,6.333c1.551,2.93,4.997,5.386,9.176,6.592
						c0.345,0.086,0.56,0.474,0.431,0.818c-0.086,0.302-0.345,0.474-0.603,0.474C265.866,364.471,265.823,364.471,265.78,364.428z"
						/>
				</g>
			</g>
			<g>
				<g>
					<path fill="#F2BBA0" d="M479.979,458.517c-9.349,7.238-22.101,19.344-27.271,27.96c2.499,5.429,8.616,8.358,15.423,8.789
						c-0.086-0.561,13.915-10.211,23.264-21.541C487.433,468.21,484.546,463.644,479.979,458.517z"/>
				</g>
				<g>
					<path fill="#F2BBA0" d="M458.826,519.952c-1.853-0.776-2.369-2.111-1.378-6.118c-0.431,4.523-1.853,7.151-6.851,5.773
						c-3.273-0.905-4.006-3.403-3.317-5.472c-0.861,1.336-2.886,2.801-5.342,1.81c-2.757-1.12-7.194-3.791-2.369-9.607
						c-5.988,7.798-11.891-0.732-4.868-8.314c1.379-1.465,3.102-2.844,4.438-4.222c3.23-3.403,7.798-8.014,12.752-8.271
						c6.548-0.345,13.14,2.585,16.802,7.539c2.197,2.973,2.153,9.822,1.465,13.441C467.917,518.314,461.541,521.072,458.826,519.952
						z"/>
				</g>
			</g>
			<g>
				<path fill="#FFFFFF" d="M473,497.506c11.719-7.367,21.411-14.26,32.269-24.514c17.103-16.112,9.219-5.428,23.823-25.547
					c9.693-13.312,3.748-37.352-0.259-51.784c-2.584-9.305-5.687-18.137-9.004-26.796c-6.764-17.318-14.26-33.732-23.005-50.232
					c-2.714-5.127-7.367-8.487-12.58-9.779c-0.129,5.169-2.11,56.005-2.498,64.708c1.508,3.102,2.973,6.203,4.394,9.305
					c3.404,7.626,6.592,15.337,9.134,22.963c3.748,11.201,8.4,26.063-0.518,36.23c-3.273,3.705-31.362,29.253-42.133,37.007
					C457.534,486.779,465.202,493.198,473,497.506z"/>
			</g>
			<g>
				<path fill="#8C4844" d="M356.078,162.249c-0.259-0.216-0.302-0.646-0.086-0.905c4.781-5.644,11.028-9.865,18.051-12.191
					c5.515-1.81,11.373-2.413,17.06-2.973c2.585-0.259,5.256-0.518,7.884-0.904c10.34-1.508,17.405-4.912,21.714-10.383
					c0.215-0.302,0.646-0.345,0.904-0.13c0.302,0.216,0.345,0.646,0.129,0.905c-4.48,5.729-11.891,9.263-22.531,10.856
					c-2.628,0.388-5.299,0.646-7.927,0.904c-5.601,0.561-11.374,1.12-16.759,2.93c-6.807,2.24-12.838,6.29-17.448,11.761
					c-0.129,0.173-0.301,0.216-0.517,0.216C356.337,162.377,356.207,162.334,356.078,162.249z"/>
			</g>
			<g>
				<path fill="#8C4844" d="M342.896,139.028c-0.216-0.302-0.13-0.689,0.172-0.905c4.523-3.188,9.65-6.807,15.423-8.529
					c10.124-3.016,20.636-0.043,30.804,2.8c10.469,2.93,20.679,5.299,30.027,1.853c0.345-0.129,0.689,0.043,0.818,0.388
					s-0.043,0.689-0.388,0.818c-9.736,3.576-20.55,1.034-30.846-1.853c-9.995-2.8-20.335-5.687-30.071-2.8
					c-5.601,1.637-10.598,5.213-15.035,8.357c-0.129,0.086-0.259,0.13-0.388,0.13C343.196,139.287,343.024,139.2,342.896,139.028z"
					/>
			</g>
			<g>
				<path fill="#8C4844" d="M351.856,117.746c-0.259-0.259-0.216-0.689,0.043-0.904c8.917-8.186,18.094-14.217,27.27-17.922
					c10.9-4.438,22.058-5.73,32.269-3.791c0.345,0.086,0.603,0.387,0.517,0.775c-0.086,0.344-0.388,0.603-0.775,0.517
					c-9.995-1.896-20.895-0.604-31.578,3.748c-9.047,3.662-18.095,9.607-26.883,17.663c-0.129,0.129-0.302,0.173-0.431,0.173
					C352.157,117.96,351.985,117.875,351.856,117.746z"/>
			</g>
			<g>
				<path fill="#8C4844" d="M499.409,139.028c-1.379-1.896-2.715-3.878-4.007-5.773c-2.628-3.92-5.385-8.013-8.616-11.546
					c-5.385-5.901-9.133-9.779-15.94-13.57c-5.256-2.973-13.226-7.41-20.334-8.271c-9.263-1.12-18.481-0.646-27.442,1.422
					c-0.345,0.086-0.689-0.129-0.775-0.474c-0.087-0.345,0.129-0.689,0.474-0.775c9.09-2.068,18.481-2.585,27.873-1.422
					c7.367,0.904,15.467,5.428,20.809,8.4c6.979,3.921,10.813,7.841,16.285,13.829c3.273,3.619,6.031,7.712,8.702,11.719
					c1.292,1.896,2.585,3.877,3.963,5.729c0.216,0.302,0.13,0.689-0.129,0.904c-0.129,0.086-0.259,0.13-0.388,0.13
					C499.711,139.287,499.538,139.2,499.409,139.028z"/>
			</g>
			<g>
				<path fill="#8C4844" d="M507.379,146.567c-20.938-22.402-53.98-33.561-84.224-28.434c-0.345,0.043-0.689-0.173-0.732-0.517
					c-0.043-0.345,0.173-0.689,0.517-0.732c30.631-5.17,64.148,6.16,85.388,28.821c0.258,0.258,0.215,0.688-0.043,0.904
					c-0.13,0.129-0.302,0.173-0.432,0.173C507.681,146.783,507.509,146.696,507.379,146.567z"/>
			</g>
			<g>
				<path fill="#8C4844" d="M499.581,180.083c-3.705-5.126-9.822-7.711-15.725-10.21c-2.326-0.99-4.781-2.024-7.021-3.188
					c-4.223-2.197-8.1-5.041-11.891-7.841c-2.844-2.068-5.73-4.223-8.789-6.074c-7.884-4.782-16.888-7.712-26.063-8.444
					c-0.345-0.043-0.604-0.345-0.604-0.689c0.043-0.345,0.345-0.603,0.689-0.603c9.392,0.775,18.567,3.748,26.624,8.615
					c3.059,1.853,6.031,4.05,8.875,6.118c3.705,2.757,7.582,5.558,11.718,7.711c2.197,1.164,4.609,2.154,6.936,3.146
					c6.075,2.585,12.364,5.256,16.285,10.641c0.216,0.302,0.129,0.689-0.129,0.905c-0.13,0.086-0.259,0.129-0.388,0.129
					C499.926,180.385,499.711,180.256,499.581,180.083z"/>
			</g>
			<g>
				<path fill="#E7E8E6" d="M471.449,522.924c1.896-3.188,5.256-15.51,5.256-15.51s-10.942,0.173-15.078-0.474
					c-6.764-0.991-32.785-5.256-32.655-6.894c-0.819,8.789-0.689,18.224,4.222,25.548c3.446,5.083,9.09,8.53,15.164,9.435h6.29
					c4.868-0.732,9.479-3.102,12.838-6.678C469.037,526.672,470.286,524.82,471.449,522.924z"/>
			</g>
		</g>
		<g>
			<g>
				<g>
					<path fill="#69C7C1" d="M441.981,297.48c5.601,3.059,10.297,7.712,13.657,13.657c9.822,17.232,8.831,38.988,7.151,58.073
						c-0.086,1.077,0.689,2.024,1.81,2.154c0.043,0,0.129,0,0.172,0c0.991,0,1.853-0.776,1.982-1.81
						c1.766-19.646,2.757-42.134-7.669-60.356c-4.911-8.573-12.191-14.691-21.023-17.707c0.129,0.302,0.215,0.646,0.345,0.948
						C439.268,294.378,440.474,296.058,441.981,297.48z"/>
				</g>
				<g>
					<path fill="#69C7C1" d="M380.462,351.246c0,1.077,0.904,1.938,1.981,1.938h0.043c1.077,0,1.939-0.904,1.939-2.024
						c-0.173-8.315-0.302-16.889,1.378-25.116c1.293-6.29,4.309-15.079,11.417-21.369c3.273-2.886,6.807-5.256,10.469-7.064
						c1.594-1.595,2.671-3.576,3.446-5.73c-5.859,2.068-11.46,5.386-16.5,9.866c-6.29,5.557-10.642,13.699-12.666,23.565
						C380.16,333.927,380.333,342.758,380.462,351.246z"/>
				</g>
			</g>
			<g>
				<ellipse fill="#B8C5D5" cx="382.357" cy="352.538" rx="9.263" ry="8.746"/>
			</g>
			<g>
				<ellipse fill="#69C7C1" cx="382.357" cy="352.538" rx="4.566" ry="4.308"/>
			</g>
			<g>
				<g>
					<ellipse fill="#B8C5D5" cx="454.001" cy="410.913" rx="3.36" ry="3.188"/>
				</g>
				<g>
					<ellipse fill="#B8C5D5" cx="472.268" cy="411.947" rx="3.36" ry="3.188"/>
				</g>
				<g>
					<path fill="#69C7C1" d="M472.01,412.249c-0.561-0.431-0.689-1.293-0.216-1.853c5.256-6.678,8.444-20.076,8.1-28.348
						c-0.259-6.635-5.773-9.865-17.275-10.253c-4.48-0.13-7.841,0.947-9.952,3.23c-2.585,2.801-3.532,7.669-2.801,14.39
						c0.689,6.419,2.628,13.484,5.429,19.946c0.302,0.646,0,1.422-0.689,1.724c-0.646,0.301-1.422,0-1.723-0.689
						c-2.887-6.678-4.868-14.045-5.601-20.679c-0.819-7.669,0.301-13.054,3.489-16.501c2.628-2.843,6.678-4.222,11.934-4.049
						c4.782,0.129,19.343,0.603,19.86,12.752c0.345,8.702-2.887,22.66-8.659,30.07c-0.259,0.345-0.646,0.517-1.034,0.517
						C472.526,412.55,472.268,412.463,472.01,412.249z"/>
				</g>
				<g>
					<path fill="#69C7C1" d="M480.281,383.125c-10.426-1.034-21.024-1.853-31.536-2.542c-0.732-0.043-1.292-0.689-1.249-1.378
						c0.043-0.732,0.689-1.293,1.379-1.25c10.512,0.689,21.152,1.551,31.621,2.542c0.732,0.086,1.25,0.732,1.163,1.422
						c-0.086,0.689-0.646,1.206-1.292,1.206C480.367,383.125,480.324,383.125,480.281,383.125z"/>
				</g>
			</g>
		</g>
		<g>
			<path fill="#E7E8E6" d="M399.202,534.987c-0.129-13.27-0.259-26.538-0.388-40.065c-0.172-21.886-0.388-44.503-0.732-67.595
				c0-0.603-0.517-1.034-1.077-1.034c-0.603,0-1.077,0.518-1.034,1.077c0.345,23.092,0.561,45.709,0.732,67.595
				c0.13,13.484,0.216,26.796,0.388,40.022H399.202z"/>
		</g>
	</g>
</g>
</svg>
