<?xml version="1.0" encoding="utf-8"?>
<!-- Generator: Adobe Illustrator 21.1.0, SVG Export Plug-In . SVG Version: 6.00 Build 0)  -->
<svg version="1.1" id="Capa_1" xmlns="http://www.w3.org/2000/svg" xmlns:xlink="http://www.w3.org/1999/xlink" x="0px" y="0px"
	 viewBox="0 0 1740.9 1590.3" style="enable-background:new 0 0 1740.9 1590.3;" xml:space="preserve">
<style type="text/css">
	.st0{fill:#C3946A;}
	.st1{fill:#471714;}
	.st2{opacity:0.2;fill:#DCF2FD;enable-background:new    ;}
	.st3{fill:#F2DBE3;}
	.st4{fill:#FFFFFF;}
	.st5{fill:#B8C5D5;}
	.st6{fill:none;stroke:#A7B8CB;stroke-width:2.0028;stroke-linecap:round;stroke-linejoin:round;stroke-miterlimit:10;}
	.st7{fill:#DCF2FD;}
	.st8{opacity:0.6;fill:#DCF2FD;enable-background:new    ;}
	.st9{fill:#FFFAF1;}
	.st10{fill:#945449;}
	.st11{fill:#885546;}
	.st12{fill:#8C4844;}
	.st13{fill:#E9E2E4;}
	.st14{fill:#F2BFA8;}
	.st15{fill:#3B80AA;}
	.st16{fill:#69C7C1;}
	.st17{fill:#543C32;}
	.st18{fill:#B4E3F6;}
	.st19{fill:#E7F2F8;}
	.st20{fill:#E7E8E6;}
	.st21{fill:#EFA28A;}
	.st22{fill:#F6EBEA;}
	.st23{fill:#F2BBA0;}
</style>
<g>
	<path class="st0" d="M1693.1,544.3c81.8-117.7,54-280.9-47.5-387.5c-105-110.4-267-159-421-156.7c-61.5,0.9-123.8,9.8-178.4,34.4
		c-57.9,26.1-105,68.8-164.6,91.6c-147.7,56.6-320.3-22.8-479.6-0.2c-110.6,15.7-209.2,84.2-252.4,175.4
		c-43.2,91.1-29.5,201.9,35.1,283.6c48.3,61.1,126.1,114.5,125.5,188.7c-0.6,83.6-98.1,134.8-161.1,196.7
		c-61.6,60.4-96.9,146.3-77,231.4c37.9,161.8,198,165.8,327.2,220.3c66.4,28,101.6,84.2,138.4,138h747.2
		c106-19.4,219.2-65.4,270-147.8c96.3-115.3,111.9-279.5,38.8-408.7c-19.6-34.7-45-66.9-60.4-103.2c-24.2-57.3-21.2-122.9,8.3-177.8
		C1577.8,655.1,1649,607.8,1693.1,544.3z"/>
	<path class="st1" d="M0,1140.8l0-551.1c0-9.8,8-17.8,17.8-17.8h391.2c9.8,0,17.8,8,17.8,17.8v551.1c0,9.8-8,17.8-17.8,17.8H17.8
		C8,1158.6,0,1150.6,0,1140.8z"/>
	<path class="st2" d="M415.3,1157.5c6.8-2.5,11.6-9.1,11.6-16.7V589.7c0-9.8-8-17.8-17.8-17.8H17.8c-6.6,0-12.4,3.7-15.5,9.1
		c1.9-0.7,4-1.1,6.2-1.1h391.2c9.8,0,17.8,8,17.8,17.8v551.1C417.6,1151.9,416.8,1154.9,415.3,1157.5z"/>
	<path class="st3" d="M25,1117.7V649.4c0-8.3,6.8-15.2,15.2-15.2h333.3c8.3,0,15.2,6.8,15.2,15.2v468.3c0,8.3-6.8,15.2-15.2,15.2
		H40.1C31.8,1132.8,25,1126,25,1117.7z"/>
	<path class="st4" d="M32.3,1109.7V641.4c0-8.3,6.8-15.2,15.2-15.2h332.1c8.3,0,15.2,6.8,15.2,15.2v468.3c0,8.3-6.8,15.2-15.2,15.2
		H47.4C39.1,1124.8,32.3,1118,32.3,1109.7z"/>
	<path class="st5" d="M99.2,649.7v-30c0-4.8,3.9-8.8,8.8-8.8h209.9c4.8,0,8.8,3.9,8.8,8.8v30c0,4.8-3.9,8.8-8.8,8.8H108
		C103.1,658.4,99.2,654.5,99.2,649.7z"/>
	<path class="st5" d="M152.2,616.5l9.1-25.6c0.8-2.6,3.4-4.7,6-4.7h91.2c2.5,0,5.2,2.1,6,4.7l9.1,25.6c0,3.1-2.5,5.6-5.6,5.6H157.8
		C154.7,622,152.2,619.5,152.2,616.5z"/>
	<g>
		<g>
			<g>
				<circle class="st0" cx="312.8" cy="758.3" r="46.6"/>
			</g>
		</g>
		<g>
			<rect x="306.9" y="726.9" class="st4" width="11.7" height="62.9"/>
		</g>
		<g>
			<rect x="281.4" y="752.5" class="st4" width="62.9" height="11.7"/>
		</g>
	</g>
	<path class="st0" d="M213,1012.9h146.5v11.7H213V1012.9z M73.5,988.2v-11.7h285.9v11.7H73.5L73.5,988.2z M73.5,951.8v-11.7h285.9
		v11.7H73.5L73.5,951.8z M73.5,915.4v-11.7h285.9v11.7H73.5L73.5,915.4z M73.5,879v-11.7h285.9V879H73.5L73.5,879z M73.5,789.6
		h157.9v11.7H73.5V789.6z M73.5,752.5h157.9v11.7H73.5V752.5z M73.5,715.4h157.9v11.7H73.5V715.4z"/>
	<line class="st6" x1="122.3" y1="642.5" x2="303.6" y2="642.5"/>
	<line class="st6" x1="122.3" y1="626.2" x2="303.6" y2="626.2"/>
	<g>
		<g>
			<path class="st1" d="M495.5,1533.9V328.9c0-31,25.4-56.4,56.4-56.4h706.5c31,0,56.4,25.4,56.4,56.4v1205.1
				c0,31-25.4,56.4-56.4,56.4H551.9C520.9,1590.3,495.5,1565,495.5,1533.9z"/>
			<path class="st7" d="M528.1,1425.9V358c0-28,22.9-51,51-51h652.2c28,0,51,22.9,51,51v1067.9c0,28-22.9,51-51,51H579.1
				C551,1476.9,528.1,1453.9,528.1,1425.9z"/>
			<path class="st8" d="M1269.8,1459.1c7.7-8.9,12.4-20.5,12.4-33.2V358c0-28-22.9-51-51-51H604.9c43.2,33.5,84.8,69,124.6,106.4
				c72.1,67.6,138.9,141.1,199.7,219c61.9,79.3,118.1,163.3,166.5,251.5c47.7,86.9,88.1,178,118.4,272.4
				c28.9,90.3,48.4,184,54.5,278.7C1269.1,1443,1269.5,1451.1,1269.8,1459.1z"/>
			<circle class="st9" cx="905.2" cy="1526.9" r="33.7"/>
			<path class="st1" d="M1050.3,292.8H760.1v6.5c0,32.9,26.9,59.8,59.8,59.8h170.6c32.9,0,59.8-26.9,59.8-59.8V292.8L1050.3,292.8z"
				/>
			<circle class="st9" cx="968.2" cy="316.5" r="18.3"/>
			<circle class="st9" cx="842.1" cy="316.5" r="18.3"/>
		</g>
		<g>
			<g>
				<g>
					<g>
						<path class="st10" d="M674.1,898.2c8.3,22.7,25.1,41,46.4,52.3c10.5,5.6,21.9,9.4,33.5,11.7c8.8,1.7,27.6,7.6,31.8-3.1
							c1.4-3.6,1.4-7.6,1.3-11.4c-0.2-8-0.4-16-0.6-24c3.5,9.3,7,18.6,10.5,27.8c1.1,3,2.3,6.1,4.2,8.8c6.3,8.9,19.8,7.3,29.2,9
							c15.7,2.9,31.6,5,47.7,6.3c10.2,0.9,20.4,1.5,30.6,1.9c2,0.1,4.1,0.2,6.1,0.2c2.4,0.1,4.9,0.1,7.3,0.2
							c3.1,0.1,6.2,0.1,9.3,0.1c6.4,0.1,12.9,0.1,19.2,0c14-0.2,27.9-1,41.9-1.9c3.5-0.2,7-0.5,10.5-0.7c0.2,0,0.3,0,0.5,0
							c10.3-0.7,20.6-1.4,30.9-1.8c16.2-0.7,37.6-3.5,54.8-5.3c14-1.5,30-4.5,42.2-12.6c8.4-5.6,14.2-15,15.5-25
							c2.3,9.5,0.8,19.8-4,28.3c49.9-16.8,64.5-76.6,64.7-123.4c0.1-25.2-1.2-47.7-7.7-72.3c-5.3-19.9-15.8-30.6-25.4-42.8
							c-0.5-0.7-1.1-1.3-1.6-2c-3.9-5.1-7.7-10.5-10.8-17c-0.2-0.3-0.3-0.7-0.5-1c-2-4.3-4-8.6-5.6-13.1c-1-2.8-1.9-5.7-2.5-8.7
							c-1.4-6.4-1.8-13-2.5-19.4c-3.9-35.4-9.5-79.6-26.5-110.3c-15.5-28-38.6-54.5-68.5-67.5c-15.6-6.8-33.7,11.5-50.8,10.8
							c-34.5-1.3-68.2-9.9-102.6-12.5c-21.4-1.6-43.2-0.8-64.4,2.9c-13.6,2.3-27.1,5.4-40,10.2c-14.5,5.5-19.1,5.5-28.3,17.5
							c-17.3,22.8-34,55.3-43.3,82.5c-6.7,19.5-5.8,40.7-6.5,61c-0.4,9.6-0.7,19.5-3,29c-0.1,0.2-0.1,0.4-0.2,0.6
							c-1.4,5.8-3.3,11.4-5.4,16.9c-1.6,4.4-3.3,8.8-4.8,13.3c-1.6,4.9-4.2,8.5-6.4,13.2c-0.8,1.5-1.4,3.2-2.1,5
							c-10.8,32-23.7,69.7-27.7,86.3C663.7,845.9,664.2,871.2,674.1,898.2z M682.5,811.7c-1.1,21.3-1.6,45.6,3,66
							c4.7,20.7,15.3,40.6,29.5,56.4c-26.1-13.9-37.9-39-39.3-69.8C675,848.4,677.4,826.8,682.5,811.7z"/>
					</g>
					<g>
						<path class="st11" d="M1182.8,747.8c0,0,0-0.1-0.1-0.1c-1.3-2.3-0.4-5.3,1.9-6.6c2.3-1.3,5.3-0.4,6.6,1.9
							c8.2,14.8,14.4,30.3,19.2,46.3c4.8,15.9,8.4,32.3,10,48.8c1.5,16.5,2.2,33.3-1,49.8c-3.1,16.4-9.8,32.4-20.6,45.2
							c-0.5,0.6-1.5,0.7-2.1,0.2c-0.7-0.5-0.8-1.5-0.2-2.1c10-12.7,15.9-28.2,18.3-44.1c2.5-15.9,1.3-32.2-0.8-48.3
							c-2.1-16.1-6.1-31.8-11.3-47.1C1197.5,776.5,1191,761.6,1182.8,747.8L1182.8,747.8z"/>
					</g>
					<g>
						<path class="st11" d="M700.7,738.6c-1.7-0.9-2.4-3.1-1.4-4.8c11.8,7.7,3.4,2,6,3.7l0,0l0,0l-0.1,0.1l-0.2,0.3l-0.3,0.5
							l-0.7,1.1l-1.3,2.1l-2.6,4.4c-1.7,2.9-3.4,5.9-5,8.8c-3.3,5.9-6.4,12-9.4,18.1c-5.9,12.2-11.2,24.7-15.6,37.6
							c-4.4,12.8-7.9,26-9.7,39.4c-1.8,13.4-1.9,27.1,1.4,40.1c0.2,0.8-0.3,1.6-1.1,1.8c-0.8,0.2-1.6-0.3-1.9-1.1
							c-3.7-13.5-3.9-27.6-2.5-41.4c1.5-13.8,4.7-27.3,8.9-40.5c4.1-13.2,9.2-26,14.9-38.6c2.9-6.3,5.9-12.5,9-18.6
							c1.6-3.1,3.2-6.1,4.9-9.1l2.6-4.5l1.3-2.3l0.7-1.1l0.3-0.6l0.2-0.3l0.1-0.2l0.1-0.1l0-0.1c2.7,1.6-5.8-4.1,6.1,3.6
							C704.6,738.9,702.4,739.5,700.7,738.6z"/>
					</g>
					<g>
						<path class="st12" d="M709.5,872.8c-2.5-20.1-5.1-40.9-4-61.6c1.2-23.4,6.9-43.3,17.1-59.2c0.4-0.7,1.4-0.9,2.1-0.5
							c0.7,0.4,0.9,1.4,0.5,2.1c-9.9,15.5-15.4,34.9-16.6,57.8c-1,20.4,1.5,41.1,4,61.1c0.1,0.8-0.5,1.6-1.3,1.7c-0.1,0-0.1,0-0.2,0
							C710.2,874.1,709.6,873.6,709.5,872.8z"/>
					</g>
					<g>
						<path class="st12" d="M739.1,911.3c-0.2-40-9-80.4-25.5-116.8c-0.3-0.8,0-1.7,0.8-2c0.8-0.3,1.6,0,2,0.8
							c16.7,36.8,25.6,77.6,25.8,118c0,0.8-0.7,1.5-1.5,1.5c0,0,0,0,0,0C739.8,912.8,739.1,912.1,739.1,911.3z"/>
					</g>
					<g>
						<path class="st12" d="M1111.4,937c-0.7-0.4-1.1-1.3-0.7-2c23.5-47.9,33.4-101.3,28.6-154.5c-0.1-0.8,0.5-1.6,1.4-1.6
							c0.8-0.1,1.6,0.5,1.6,1.4c4.8,53.7-5.2,107.7-28.9,156.1c-0.3,0.5-0.8,0.8-1.4,0.8C1111.8,937.1,1111.6,937.1,1111.4,937z"/>
					</g>
					<g>
						<path class="st12" d="M1136.2,872.8c-0.7-0.5-0.9-1.4-0.4-2.1c22.7-34.5,33.6-76.2,30.7-117.5c-0.1-0.8,0.6-1.5,1.4-1.6
							c0.9-0.1,1.5,0.6,1.6,1.4c3,41.9-8.1,84.3-31.2,119.3c-0.3,0.4-0.8,0.7-1.3,0.7C1136.7,873.1,1136.4,873,1136.2,872.8z"/>
					</g>
					<g>
						<path class="st12" d="M1060.7,944.3c-0.8,0-1.5-0.8-1.4-1.6c1.3-22,0.1-53.7-2.7-75.5c-0.1-0.8,0.5-1.6,1.3-1.7
							c0.8-0.1,1.6,0.5,1.7,1.3c2.9,22,4,54,2.8,76.1C1062.2,943.7,1061.6,944.3,1060.7,944.3
							C1060.8,944.3,1060.7,944.3,1060.7,944.3z"/>
					</g>
					<g>
						<path class="st13" d="M706.7,713.5c1.5-4.5,3.2-8.9,4.8-13.3c2.1-5.6,4-11.2,5.4-16.9c32.4,17.6,62.9,32.5,97.4,46.6
							c18.1,7.4,36.6,14.3,55.5,19.3c19,5,38.5,7.7,58.1,8.1c19.3,0.3,38.3-3.9,56.8-8.9c16.5-4.5,33-9.2,49.5-13.4
							c27.7-7,55.9-13.3,82.1-25.1c18.3-8.2,28.4-10.4,39.7-22.6c1.6,4.5,3.6,8.8,5.6,13.1c0.2,0.3,0.3,0.7,0.5,1
							c3.1,6.5,6.8,11.9,10.8,17c-4.6,12.6-12.6,23.9-23.1,32.3c-4.9,3.9-10.3,7.2-15.2,11.1c-17.1,13.9-19.4,31.4-28.9,49.5
							c-9,17.3-22.1,32.3-36.4,45.4c-10.1,9.2-21.3,16.5-33,23.4c-11,6.5-22.4,12.9-31.8,21.6c-4.2,3.9-8,8.8-9.6,14.4
							c-1.7,5.8-1.9,12.2-1.2,18.2c0.5,5.3,2.2,10.1,5.2,14.5c1.6,2.3,3.3,4.5,4.8,6.7c-0.2,0-0.3,0-0.5,0c-3.5,0.2-7,0.5-10.5,0.7
							c-13.9,0.9-27.9,1.7-41.9,1.9c-6.4,0.1-12.8,0.1-19.2,0c-3.1,0-6.2-0.1-9.3-0.1c-2.4-0.1-4.9-0.1-7.3-0.2
							c-2-0.1-4.1-0.2-6.1-0.2c-10.2-0.4-20.4-1-30.6-1.9c-4.1-0.4-8.1-0.8-12.2-1.2c5.1-5.3,8.6-12.3,10.5-19.3
							c2.6-9.4,2-18.6-1.9-27.5c-8.1-18.9-25.9-28.3-42.4-39.5c-20.2-13.7-37.9-30.9-52.7-50.2c-14.8-19.2-17.2-37.6-35.8-53.2
							c-9.4-7.9-24.3-13.3-33.3-21.7c-4.6-4.3-8-10.4-10.1-16.3C702.5,722.1,705.1,718.4,706.7,713.5z"/>
					</g>
				</g>
				<g>
					<path class="st4" d="M764.8,981c6.2-25,31.5-40.3,56.6-34.1s40.3,31.5,34.1,56.6l0,0.1c-4.7,19.2-9.3,39.6-14.3,59.9
						c-4.9,20.4-10.1,41-16.1,61.8c-6,20.8-12.6,41.6-21.1,62.8c-4.3,10.6-9,21.3-14.7,32.1c-5.8,10.8-12.5,21.9-22.1,33.2l-0.9,1.1
						l-0.5,0.5l-0.8,0.9c-1.1,1.2-2.3,2.4-3.5,3.6c-2.5,2.3-5.3,4.6-8.3,6.6c-6,4-13,6.9-19.7,8.5c-6.7,1.6-13.1,1.9-18.7,1.5
						c-5.6-0.4-10.6-1.3-15-2.4c-8.8-2.4-16-5.6-22.3-8.9c-6.3-3.4-11.9-6.9-17.1-10.6c-10.4-7.3-19.3-15-27.8-22.8
						c-8.4-7.9-16.3-15.9-23.7-24.2c-14.9-16.5-28.5-33.6-41.3-51.3c-12.7-17.8-24.5-36.1-35.2-55.9c-7.8-14.6-3.1-33,11.1-41.9
						c14.8-9.3,34.3-4.7,43.6,10.1l0.2,0.3c10,15.9,21.5,31.7,33.8,46.7c12.3,15,25.4,29.5,39,42.7c6.8,6.6,13.8,12.9,20.8,18.7
						c7,5.8,14.2,11,21,15.2c3.4,2.1,3.9,2.6,6.9,3.8c2.9,1.3,5-3.8,8.5-11.4c3.5-7.6,6.6-16,9.6-24.8c5.9-17.5,10.7-36.4,15-55.5
						c4.3-19.2,8.1-38.9,11.7-58.8c3.6-20,6.9-40.1,10.8-61.2C764.3,982.8,764.6,981.8,764.8,981z"/>
				</g>
				<g>
					<path class="st14" d="M844.6,951.7c6.6,18.5,18.3,35.1,32.8,48.4c10.6,9.8,22.7,17.8,35.5,24.4c6.1,3.1,12,7.4,18.7,4.7
						c6.4-2.6,12.4-6.2,18.7-9.1c7.5-3.5,14.7-7.7,21.4-12.5c13.4-9.6,25.1-21.8,34.1-35.7c2.2-3.4,4.2-6.8,5.7-10.6
						c1.5-3.9,2.5-8.1,2.7-12.3c0.3-5.9-7-6.3-11.4-7.7c-5.7-1.7-12.3-3.3-17.7-5.8c-9.9-4.6-19.3-11.3-23.5-21.8
						c-7.8-19.5-10.4-42.5-4.7-62.9l-23.6-3.1c-1.8,0-3.6-0.1-5.3-0.1c-1.8,0.1-3.6,0.1-5.3,0.1c0,0-23.6,0.1-23.6,0.1
						c2,0,3.2,22.3,3.3,24.4c0.2,8-0.7,15.9-1.1,23.8c-0.7,12.8-4.7,27.1-16.3,34.1c-7,4.2-15.7,6.7-23.4,9
						c-4,1.2-16.7,2.5-17.7,6.8c-0.4,1.8,0.1,3.6,0.7,5.3C844.5,951.5,844.6,951.6,844.6,951.7z"/>
				</g>
				<g>
					<path class="st15" d="M916.7,1476.9c-9.4-15.7-25.2-27.5-44.6-31.1c-28.1-5.3-55.5,7.9-69.4,31.1H916.7z"/>
				</g>
				<g>
					<path class="st15" d="M1055.1,1476.9c-10.6-24.8-34.7-42.6-63.4-43.8c-30.8-1.3-57.9,17-69.3,43.8H1055.1z"/>
				</g>
				<g>
					<path class="st16" d="M773.8,1476.9h287.3c-0.7-9.8-1.8-18.9-2.3-25.3c-1.2-17.1-4.1-31.6-19.3-41.6c-14.9-9.7-53.8-4.1-71.4-5
						c-44-2.2-77.1-1.3-121.2,0.2c-23.2,0.8-44-9.9-57.7,13.6C782.7,1429.9,777.6,1455.2,773.8,1476.9L773.8,1476.9z"/>
				</g>
				<g>
					<g>
						<path class="st17" d="M778.4,1471.2c-1.3-0.2-2.3-1.4-2.1-2.7c0.2-1.3,1.4-2.3,2.7-2.1c24.3,2.8,52.2-16.2,59.7-40.5
							c0.4-1.3,1.8-2,3-1.6c1.3,0.4,2,1.8,1.6,3c-7.6,24.7-34.6,44.2-59.7,44.2C781.8,1471.4,780.1,1471.4,778.4,1471.2z"/>
					</g>
				</g>
				<g>
					<g>
						<path class="st17" d="M1017.4,1476.9c-23-9.9-44.5-31.4-51-51.6c-0.6-1.7-2.4-2.7-4.1-2.1c-1.7,0.6-2.7,2.4-2.1,4.1
							c5.9,18.4,22.8,37.6,42.8,49.6H1017.4z"/>
					</g>
				</g>
				<g>
					<path class="st18" d="M787.3,1412.8c3,16.8,61.4,11.6,73.4,13.1c35.9,4.7,72.5,3.5,107.9-3.5c1.5-0.3,3-0.6,4.3-1.4
						c4.5,0,8.7,0.3,12.3,0.9c27.3,5,42.1,6.3,62.1,13.7c34.3,12.7,29.7-99.8,27.9-120.4c-4-46.7-5.8-76.8,1.7-166.1
						c2.9-35.1,6.7-49.2,6.7-84.4c0-26.9,20.6-80.8-7.7-99.1c-21.5-13.9-57.4-23.1-85.4-30.1c-5.7-1.4-38.9,44.5-62.1,45.2
						c-22.8,0.7-43.4-50.1-55.3-47.4c-23.6,5.3-51.9,9.7-74.6,16.9c-1.5,0.5-3,1-4.1,2c-1.4,1.3-1.9,3.4-2.3,5.3
						c-3.6,18.2,0.3,45.1,1.6,63.6c2.2,29.9,3.2,65,4.8,94.9c2,36.6,2.8,67.8,4.4,104.4c1.4,31.4,0.1,62.9-2.1,94.3
						C800,1328.7,784.2,1395.5,787.3,1412.8z"/>
				</g>
				<g>
					<path class="st4" d="M1089.3,1065.4c0-26.9,18.1-96.4-12.4-110.3c-15.8-7.2-60.8-19.5-81.4-21.7c-8,32.3-26.3,302-42.7,543.5
						h128.6c-0.1-43.8-0.7-86.9-5-136.6c-4-46.7-6.9-101.9,0.5-191.1C1079.7,1114.1,1089.3,1100.6,1089.3,1065.4z"/>
				</g>
				<g>
					<path class="st19" d="M1076.3,1340.3c-3.4-39.7-6-85.6-2.1-153.3c-5.3,39.1-12.2,78.1-26.8,114.7c-2.3,5.8-4.9,11.6-7.6,17.2
						c2.2,0.6,4.1,2.1,5,4.9c2.9,9.5,4.4,19.3,7,28.9c0.6,2.4,1.9,5,1.9,7.4c0,2-1,4-1.7,5.8c-1.3,3.1-2.8,6-4.5,8.9
						c-7.3,11.7-19.9,25.3-35.2,21.8c-0.1,0-0.2-0.1-0.3-0.1c-7.1,3.4-14.5,6.2-21.8,8.6c-10.8,3.6-21.9,6.3-33,8.9
						c-0.8,11.3-1.5,22.5-2.3,33.8c17.8-2.3,35.3-6.7,52.3-12.1c11.6-3.6,27.9-4.2,36.3-13.6c3.6-4.1,6.1-8.8,9.1-13.4
						c4.6-6.9,7.6-14,13.1-20.4c2.3-2.7,4.5-5.5,6.8-8.2c0.9-1.1,6.3-5.9,6.3-7.1C1078.1,1362.4,1077.3,1351.6,1076.3,1340.3z"/>
				</g>
				<g>
					<path class="st4" d="M764.7,1476.9h116.5c-6.8-244-12.9-516.4-18.7-543.5c-12.3,1.7-62.1,10-72.2,17.6
						c-9.5,7.2,3.5,70.6,4.4,85.5c1.6,26.5,2.3,53.1,3.8,79.6c2,36.6,2.8,67.9,4.4,104.4c1.1,24.8,0.5,49.6-0.8,74.3
						c-0.4,6.7-1,13.3-1.8,19.9c-1.6,13-3.9,25.7-6.7,38.5c-4.1,18.9-9.1,37.8-13.8,56.9c-1.1,4.5-2.2,9.1-3.3,13.7
						C772.5,1441.5,768.5,1459.2,764.7,1476.9L764.7,1476.9z"/>
				</g>
				<g>
					<path class="st19" d="M793.7,1353.2c0-0.2,0-0.3,0.1-0.5c-4.1,19.1-9.1,38.1-13.9,57.4c-1.1,4.5-2.2,9.1-3.3,13.7
						c-4.1,17.7-8.1,35.4-11.9,53.1h15.6c1.3-23.8,3.2-47.6,6.5-71.2C789.3,1388.3,791.9,1370.8,793.7,1353.2z"/>
				</g>
				<g>
					<path class="st20" d="M980.9,1142.9c-1.1-0.8-1.5-2.3-0.7-3.4l2-3c14.7-22.3,28.6-43.4,43.3-67.9c-3.5-1.2-7.3-2.7-11.3-4.3
						c-8.7-3.4-17.8-7-24.8-8.4c-1.1-0.2-1.9-1.1-2-2.2c-0.1-1.1,0.5-2.1,1.5-2.5c3.3-1.4,9.3-2.6,16.2-4c9.9-2,22.1-4.5,28.7-8.1
						c-0.8-5.7-6.6-29.5-11.9-50.6c-4-16.1-8-32.7-11.2-46.3c-0.3-1.3,0.5-2.7,1.9-3c1.3-0.3,2.7,0.5,3,1.9
						c3.1,13.6,7.2,30.2,11.2,46.2c13.2,53.8,13.1,53.9,10.8,55.3c-7,4.5-20,7.1-31.5,9.4c-2.4,0.5-4.8,1-6.9,1.4
						c5.4,1.8,11.2,4,16.8,6.2c5.1,2,9.9,3.9,14,5.2c0.7,0.2,1.3,0.8,1.6,1.5c0.3,0.7,0.2,1.5-0.2,2.1c-15.4,25.7-29.8,47.6-45,70.7
						l-2,3c-0.5,0.7-1.3,1.1-2.1,1.1C981.7,1143.3,981.3,1143.2,980.9,1142.9z"/>
				</g>
				<g>
					<path class="st20" d="M866.3,1142.1c-4.9-8.2-9.3-16-13.6-23.4c-8.8-15.2-17.1-29.6-26.9-44.5c-0.4-0.6-0.5-1.3-0.3-1.9
						c0.2-0.7,0.6-1.2,1.2-1.6c13.5-7.8,20.1-13,27-18.5c0.4-0.3,0.8-0.6,1.2-0.9c-8.8-1-18.7-2.1-26.9-2c-0.7,0-1.4-0.3-1.9-0.8
						c-0.5-0.5-0.7-1.3-0.6-2c2.1-14.8,3.5-31.1,4.9-46.8c1.8-20.7,3.7-42.1,7-59.7c0.3-1.3,1.6-2.2,2.9-2c1.3,0.3,2.2,1.6,2,2.9
						c-3.3,17.3-5.1,37.6-7,59.2c-1.3,14.8-2.7,30.1-4.5,44.2c8.1,0.1,17.1,1.1,25.2,2.1c1.9,0.2,3.7,0.4,5.5,0.6
						c1,0.1,1.8,0.8,2.1,1.8c0.3,1-0.1,2-0.9,2.6c-2.1,1.6-4,3.1-5.9,4.6c-6.7,5.3-13,10.3-25.4,17.6c9.2,14.2,17.2,28,25.6,42.6
						c4.3,7.4,8.7,15.1,13.6,23.3c0.7,1.2,0.3,2.7-0.9,3.4c-0.4,0.2-0.8,0.3-1.3,0.3C867.6,1143.3,866.8,1142.9,866.3,1142.1z"/>
				</g>
				<g>
					<path class="st10" d="M704.8,686.8c2.8,2,5.6,3.9,8.4,5.7c12.2,7.6,25.3,13.7,38.8,18.6c29.1,10.5,59.5,15.3,90.3,16.8
						c36.6,1.8,73.1-1.1,109.7-1.8c36.4-0.7,73.1-1.9,108.9-9.3c19.5-4,38.1-10.3,56.6-17.7c8.5-3.4,18.1-5.5,25.7-10.7
						c11.5-8,8.9-13.9,7.8-26.7c-3.1-34.5,1.5-69.2-8-103c-8.4-29.9-24.6-57.7-46.7-79.5c-23.7-23.4-58.2-50.5-91.7-56.3
						c-27.7-4.8-62-4.1-86.4,11.4c-2,1.3-4.1,2.7-6.4,3.2c-3.3,0.6-6.6-0.7-9.8-1.9c-48.7-18.7-108.4-3.5-142.1,36.4
						c-27.4,32.3-36.8,76-41.8,118c-2.4,19.8-4,39.8-4.8,59.8c0,1-1.1,5.9-2.4,11.9C708.2,672.4,704.8,686.8,704.8,686.8z"/>
				</g>
				<g>
					<path class="st14" d="M931.5,457.5c106.3,0,194.3,57.3,192.4,202.1c0,28.1-4.4,56.8-13.5,83.5c-11.6,34-31.8,64.9-59.5,88.2
						c-11.9,10-25,18.5-38.9,25.4c-22,11-44.6,18.1-68.3,25.6c-5.2,1.6-10.5,3.3-15.9,3.1c-4.5-0.1-8.9-1.5-13.2-3
						c-20.6-6.9-40.7-15.5-59.9-25.4c-74.8-38.7-116-115.3-115.6-197.5C739.8,499.2,825.3,457.5,931.5,457.5z"/>
				</g>
				<g>
					<g>
						
							<ellipse transform="matrix(0.9829 -0.1841 0.1841 0.9829 -117.0952 147.2222)" class="st14" cx="734.3" cy="704.2" rx="36.3" ry="44.3"/>
					</g>
					<g>
						<path class="st21" d="M712.6,711.1c-2.5-8.7-1.2-18,3.4-24.9c3.5-5.1,12.9-9.9,20.3-8.7c1.3,0.2,2.2,1.5,2,2.8
							c-0.2,1.3-1.5,2.2-2.8,2c-5.3-0.9-12.9,2.9-15.4,6.6c-3.8,5.7-4.9,13.5-2.8,20.9c0.4,1.3-0.4,2.6-1.7,3
							c-0.2,0.1-0.4,0.1-0.7,0.1C713.9,712.9,712.9,712.2,712.6,711.1z"/>
					</g>
					<g>
						<path class="st21" d="M731.2,702.9c-2.1-5.4-7.4-12.6-11.6-14.3c-1.2-0.5-1.8-1.9-1.3-3.2c0.5-1.2,1.9-1.8,3.2-1.3
							c6.2,2.6,12.1,11.5,14.3,17.1c0.5,1.3-0.1,2.7-1.4,3.2c-0.3,0.1-0.6,0.2-0.9,0.2C732.5,704.4,731.5,703.8,731.2,702.9z"/>
					</g>
				</g>
				<g>
					<g>
						
							<ellipse transform="matrix(0.1841 -0.9829 0.9829 0.1841 228.3155 1683.467)" class="st14" cx="1128.2" cy="704.2" rx="44.3" ry="36.3"/>
					</g>
					<g>
						<path class="st21" d="M1146.9,712.8c-1.3-0.4-2-1.7-1.7-3c2.1-7.4,1.1-15.2-2.8-20.9c-2.5-3.7-10.1-7.5-15.4-6.6
							c-1.3,0.2-2.6-0.7-2.8-2c-0.2-1.3,0.7-2.6,2-2.8c7.4-1.3,16.8,3.5,20.3,8.7c4.6,6.9,5.9,16.2,3.4,24.9
							c-0.3,1.1-1.3,1.8-2.3,1.8C1147.4,712.9,1147.2,712.8,1146.9,712.8z"/>
					</g>
					<g>
						<path class="st21" d="M1128.2,704.3c-1.3-0.5-1.9-1.9-1.4-3.2c2.2-5.5,8-14.5,14.3-17.1c1.2-0.5,2.7,0.1,3.2,1.3
							c0.5,1.2-0.1,2.7-1.3,3.2c-4.2,1.7-9.4,8.8-11.6,14.3c-0.4,1-1.3,1.5-2.3,1.5C1128.8,704.4,1128.5,704.4,1128.2,704.3z"/>
					</g>
				</g>
				<g>
					<path class="st10" d="M1126.3,584.4c-3.6-32.6-15-64.7-34.6-91.1c-9.7-13.1-18.7-32-34.9-33.9c-145.2-17.7-158.1-28.9-220.4-7
						c-52.2,18.3-69.6,39.4-84,94.3c-6.1,23.3-16.5,33.9-16.5,58.9c-1,16.9,0.4,34.2,2.4,51c2.3,19,9.4,35.9,15.4,54
						c0.5-12.5,0.8-29.3,4.9-41.2c3.7-11,18.3-20.2,28.2-25c15.8-7.7,33.8-9.5,51.3-11c18.9-1.7,35.8-2,52.8-11.9
						c11.5-6.8,20.5-15.9,29.8-25.3c5.6-5.7,5.8-6,11.4-0.1c3.3,3.6,5.7,8,9.5,11.2c12.1,10.4,26.4,18.1,41.3,23.8
						c14.6,5.5,29.8,9.1,45.1,12c13.3,2.5,27.5,2.8,40.2,7.8c11.3,4.4,21.8,11.5,29.6,20.9c9.5,11.4,10.5,25.1,11.2,39.5
						c6.1-9.7,8.2-15.9,11-23.3c3.4-8.9,4.6-21.1,6-30.6c0.1-0.4,0.1-0.9,0.2-1.3C1128.4,640.6,1128,599.9,1126.3,584.4z"/>
				</g>
				<g>
					<g>
						<path class="st21" d="M901.8,742c-1.3-4-1-8,0.8-11.4c2-3.7,5.6-6.6,10.3-8c5.4-1.6,11.5-1.1,17.3,1.5c1.4,0.6,2,2.2,1.4,3.5
							c-0.6,1.4-2.2,2-3.5,1.4c-4.6-2-9.4-2.5-13.6-1.2c-3.3,1-5.8,2.9-7.1,5.3c-1.1,2.2-1.3,4.6-0.4,7.3c2.8,8.8,13.8,9,18.4,8.7
							c1.5-0.1,2.8,1,2.9,2.5c0.1,1.5-1,2.8-2.5,2.9c-0.9,0.1-1.9,0.1-2.7,0.1C912,754.6,904.4,750.1,901.8,742z"/>
					</g>
					<g>
						<g>
							<ellipse class="st10" cx="1008.5" cy="720" rx="13.1" ry="20.2"/>
						</g>
						<g>
							<ellipse class="st4" cx="1012.8" cy="709.6" rx="4.3" ry="5.2"/>
						</g>
					</g>
					<g>
						<g>
							<ellipse class="st10" cx="849.5" cy="720" rx="13.1" ry="20.2"/>
						</g>
						<g>
							<ellipse class="st4" cx="853.7" cy="709.6" rx="4.3" ry="5.2"/>
						</g>
					</g>
					<g>
						<path class="st11" d="M859.9,665.2c0.2,0,0.5,0.1,0.7,0.1c3.3,0.7,5.4,4,4.7,7.3c-0.7,3.3-4,5.4-7.3,4.7
							c-3.5-0.7-7.4-1-11.3-1.1c-3.9,0-7.9,0.2-11.8,0.6c-7.9,1-15.8,2.7-22.7,6.1l-0.1,0c-1.3,0.7-3,0.3-3.8-1
							c-0.9-1.4-0.6-3.2,0.8-4.2c3.7-2.5,7.7-4.4,11.8-6.1c4.1-1.6,8.2-2.9,12.4-3.9c4.2-1,8.5-1.8,12.9-2.3
							C850.7,665,855.1,664.8,859.9,665.2L859.9,665.2z"/>
					</g>
					<g>
						<path class="st11" d="M999.1,676.8c-3.4,0.2-6.3-2.4-6.4-5.8c-0.2-3.4,2.4-6.3,5.8-6.4l0,0c4.8-0.2,9.2,0.1,13.6,0.8
							c4.4,0.6,8.6,1.6,12.8,2.7c4.2,1.2,8.3,2.6,12.3,4.3c4,1.7,7.9,3.8,11.6,6.4c1.2,0.9,1.6,2.5,0.9,3.9c-0.8,1.5-2.6,2-4.1,1.2
							l-0.1,0c-6.8-3.6-14.7-5.6-22.5-6.8c-3.9-0.6-7.9-0.9-11.8-1c-3.9-0.1-7.8,0.1-11.3,0.7C999.6,676.8,999.4,676.8,999.1,676.8z
							"/>
					</g>
					<g>
						<path class="st4" d="M941.5,794c2.7-1,11.4-5.9,14.8-1.8c2.6,3.2-2.6,9.9-5.1,12.3c-10.1,10-28,17.8-42.6,16.1
							c-14.7-1.7-24.7-11.5-31.7-24.8c-1.1-2-1.7-4.7-0.2-6.3c1.5-1.6,4.3-1.5,6.3-0.5C901.4,798.2,922.3,801.5,941.5,794z"/>
					</g>
				</g>
				<g>
					<path class="st22" d="M746.2,718.3c14.7,58.7,52,109.6,108.5,138.8c19.3,10,39.3,18.5,59.9,25.4c4.3,1.4,8.6,2.8,13.2,3
						c5.4,0.2,10.7-1.5,15.9-3.1c23.7-7.5,46.3-14.6,68.3-25.6c13.9-7,27-15.4,38.9-25.4c5.2-4.4,10.1-9,14.8-13.9
						c-16.8,14.6-37.5,25.3-57.9,33.7c-45.8,19-69.2,26.4-105.9,14C835.3,842.7,773.3,783.3,746.2,718.3z"/>
				</g>
				<g>
					<g>
						<path class="st14" d="M571.1,1076.3c-16.4,20.8-41,24.5-59.6,4.3c-9.2-10-18.4-22.7-18.9-36.7c-0.1-2.7,0.1-5.4,1.3-7.8
							c1.2-2.4,3.6-4.3,6.3-4.2c-0.8-3.3,0.1-7,2.3-9.5c2.2-2.6,5.7-4,9.1-3.7c-0.2-2.4,1-4.8,2.7-6.4c1.8-1.7,4-2.7,6.3-3.5
							c2.9-1,6.2-1.1,9.1-2.1c2.7-1,2.2-1.5,0.5-4c-2.7-4.1-6.2-7.8-9.6-11.2c-4.7-4.7-18.8-20.5-5.9-24.7c6.1-2,12,3.3,16.2,8.2
							c8.3,9.4,16.7,18.9,25,28.3c8,9.1,16.2,18.4,20.9,29.6C582.8,1047.5,583.1,1061.1,571.1,1076.3z"/>
					</g>
					<g>
						<path class="st21" d="M560.8,1081c-10.5-2.9-19.2-9.2-23.2-16.7c-2.9-5.4-3.3-11.1-1.3-17c1.9-5.6,3.8-8.3,7.2-11.2
							c-5.9-0.4-12.7-1.1-16.4-2.4c-4.9-1.7-7.7-4.3-8.1-7.7c-0.3-2.8,1.4-5.7,4.2-7.3c2.3-1.4,5-1.7,7.6-1.9
							c13.5-1,27.2,2.4,38.6,9.6c0.7,0.4,0.9,1.4,0.5,2.1c-0.4,0.7-1.4,0.9-2.1,0.5c-10.9-6.8-24-10.1-36.8-9.2
							c-2.2,0.2-4.4,0.4-6.2,1.5c-1.5,0.9-2.9,2.6-2.7,4.4c0.3,2.6,3.4,4.2,6,5.1c4.7,1.6,15.8,2.3,19.5,2.5c0.6,0,1.2,0.5,1.3,1.1
							c0.2,0.6,0,1.3-0.5,1.6c-5.1,3.8-7.1,5.7-9.2,12.2c-1.7,5.1-1.3,10,1.1,14.7c3.6,6.8,11.6,12.5,21.3,15.3
							c0.8,0.2,1.3,1.1,1,1.9c-0.2,0.7-0.8,1.1-1.4,1.1C561,1081.1,560.9,1081.1,560.8,1081z"/>
					</g>
				</g>
				<g>
					<g>
						<path class="st23" d="M1058,1299.4c-21.7,16.8-51.3,44.9-63.3,64.9c5.8,12.6,20,19.4,35.8,20.4c-0.2-1.3,32.3-23.7,54-50
							C1075.3,1321.9,1068.6,1311.3,1058,1299.4z"/>
					</g>
					<g>
						<path class="st23" d="M1008.9,1442c-4.3-1.8-5.5-4.9-3.2-14.2c-1,10.5-4.3,16.6-15.9,13.4c-7.6-2.1-9.3-7.9-7.7-12.7
							c-2,3.1-6.7,6.5-12.4,4.2c-6.4-2.6-16.7-8.8-5.5-22.3c-13.9,18.1-27.6-1.7-11.3-19.3c3.2-3.4,7.2-6.6,10.3-9.8
							c7.5-7.9,18.1-18.6,29.6-19.2c15.2-0.8,30.5,6,39,17.5c5.1,6.9,5,22.8,3.4,31.2C1030,1438.2,1015.2,1444.6,1008.9,1442z"/>
					</g>
				</g>
				<g>
					<path class="st4" d="M1041.8,1389.9c27.2-17.1,49.7-33.1,74.9-56.9c39.7-37.4,21.4-12.6,55.3-59.3
						c22.5-30.9,8.7-86.7-0.6-120.2c-6-21.6-13.2-42.1-20.9-62.2c-15.7-40.2-33.1-78.3-53.4-116.6c-6.3-11.9-17.1-19.7-29.2-22.7
						c-0.3,12-4.9,130-5.8,150.2c3.5,7.2,6.9,14.4,10.2,21.6c7.9,17.7,15.3,35.6,21.2,53.3c8.7,26,19.5,60.5-1.2,84.1
						c-7.6,8.6-72.8,67.9-97.8,85.9C1005.9,1365,1023.7,1379.9,1041.8,1389.9z"/>
				</g>
				<g>
					<path class="st12" d="M770.4,611.7c-0.6-0.5-0.7-1.5-0.2-2.1c11.1-13.1,25.6-22.9,41.9-28.3c12.8-4.2,26.4-5.6,39.6-6.9
						c6-0.6,12.2-1.2,18.3-2.1c24-3.5,40.4-11.4,50.4-24.1c0.5-0.7,1.5-0.8,2.1-0.3c0.7,0.5,0.8,1.5,0.3,2.1
						c-10.4,13.3-27.6,21.5-52.3,25.2c-6.1,0.9-12.3,1.5-18.4,2.1c-13,1.3-26.4,2.6-38.9,6.8c-15.8,5.2-29.8,14.6-40.5,27.3
						c-0.3,0.4-0.7,0.5-1.2,0.5C771,612,770.7,611.9,770.4,611.7z"/>
				</g>
				<g>
					<path class="st12" d="M739.8,557.8c-0.5-0.7-0.3-1.6,0.4-2.1c10.5-7.4,22.4-15.8,35.8-19.8c23.5-7,47.9-0.1,71.5,6.5
						c24.3,6.8,48,12.3,69.7,4.3c0.8-0.3,1.6,0.1,1.9,0.9s-0.1,1.6-0.9,1.9c-22.6,8.3-47.7,2.4-71.6-4.3
						c-23.2-6.5-47.2-13.2-69.8-6.5c-13,3.8-24.6,12.1-34.9,19.4c-0.3,0.2-0.6,0.3-0.9,0.3C740.5,558.4,740.1,558.2,739.8,557.8z"/>
				</g>
				<g>
					<path class="st12" d="M760.6,508.4c-0.6-0.6-0.5-1.6,0.1-2.1c20.7-19,42-33,63.3-41.6c25.3-10.3,51.2-13.3,74.9-8.8
						c0.8,0.2,1.4,0.9,1.2,1.8c-0.2,0.8-0.9,1.4-1.8,1.2c-23.2-4.4-48.5-1.4-73.3,8.7c-21,8.5-42,22.3-62.4,41
						c-0.3,0.3-0.7,0.4-1,0.4C761.3,508.9,760.9,508.7,760.6,508.4z"/>
				</g>
				<g>
					<path class="st12" d="M1103.1,557.8c-3.2-4.4-6.3-9-9.3-13.4c-6.1-9.1-12.5-18.6-20-26.8c-12.5-13.7-21.2-22.7-37-31.5
						c-12.2-6.9-30.7-17.2-47.2-19.2c-21.5-2.6-42.9-1.5-63.7,3.3c-0.8,0.2-1.6-0.3-1.8-1.1c-0.2-0.8,0.3-1.6,1.1-1.8
						c21.1-4.8,42.9-6,64.7-3.3c17.1,2.1,35.9,12.6,48.3,19.5c16.2,9.1,25.1,18.2,37.8,32.1c7.6,8.4,14,17.9,20.2,27.2
						c3,4.4,6,9,9.2,13.3c0.5,0.7,0.3,1.6-0.3,2.1c-0.3,0.2-0.6,0.3-0.9,0.3C1103.8,558.4,1103.4,558.2,1103.1,557.8z"/>
				</g>
				<g>
					<path class="st12" d="M1121.6,575.3c-48.6-52-125.3-77.9-195.5-66c-0.8,0.1-1.6-0.4-1.7-1.2c-0.1-0.8,0.4-1.6,1.2-1.7
						c71.1-12,148.9,14.3,198.2,66.9c0.6,0.6,0.5,1.6-0.1,2.1c-0.3,0.3-0.7,0.4-1,0.4C1122.3,575.8,1121.9,575.6,1121.6,575.3z"/>
				</g>
				<g>
					<path class="st12" d="M1103.5,653.1c-8.6-11.9-22.8-17.9-36.5-23.7c-5.4-2.3-11.1-4.7-16.3-7.4c-9.8-5.1-18.8-11.7-27.6-18.2
						c-6.6-4.8-13.3-9.8-20.4-14.1c-18.3-11.1-39.2-17.9-60.5-19.6c-0.8-0.1-1.4-0.8-1.4-1.6c0.1-0.8,0.8-1.4,1.6-1.4
						c21.8,1.8,43.1,8.7,61.8,20c7.1,4.3,14,9.4,20.6,14.2c8.6,6.4,17.6,12.9,27.2,17.9c5.1,2.7,10.7,5,16.1,7.3
						c14.1,6,28.7,12.2,37.8,24.7c0.5,0.7,0.3,1.6-0.3,2.1c-0.3,0.2-0.6,0.3-0.9,0.3C1104.3,653.8,1103.8,653.5,1103.5,653.1z"/>
				</g>
				<g>
					<path class="st20" d="M1038.2,1448.9c4.4-7.4,12.2-36,12.2-36s-25.4,0.4-35-1.1c-15.7-2.3-76.1-12.2-75.8-16
						c-1.9,20.4-1.6,42.3,9.8,59.3c8,11.8,21.1,19.8,35.2,21.9h14.6c11.3-1.7,22-7.2,29.8-15.5
						C1032.6,1457.6,1035.5,1453.3,1038.2,1448.9z"/>
				</g>
			</g>
			<g>
				<g>
					<g>
						<path class="st16" d="M969.8,925.6c13,7.1,23.9,17.9,31.7,31.7c22.8,40,20.5,90.5,16.6,134.8c-0.2,2.5,1.6,4.7,4.2,5
							c0.1,0,0.3,0,0.4,0c2.3,0,4.3-1.8,4.6-4.2c4.1-45.6,6.4-97.8-17.8-140.1c-11.4-19.9-28.3-34.1-48.8-41.1
							c0.3,0.7,0.5,1.5,0.8,2.2C963.5,918.4,966.3,922.3,969.8,925.6z"/>
					</g>
					<g>
						<path class="st16" d="M827,1050.4c0,2.5,2.1,4.5,4.6,4.5c0,0,0.1,0,0.1,0c2.5,0,4.5-2.1,4.5-4.7c-0.4-19.3-0.7-39.2,3.2-58.3
							c3-14.6,10-35,26.5-49.6c7.6-6.7,15.8-12.2,24.3-16.4c3.7-3.7,6.2-8.3,8-13.3c-13.6,4.8-26.6,12.5-38.3,22.9
							c-14.6,12.9-24.7,31.8-29.4,54.7C826.3,1010.2,826.7,1030.7,827,1050.4z"/>
					</g>
				</g>
				<g>
					<ellipse class="st5" cx="831.4" cy="1053.4" rx="21.5" ry="20.3"/>
				</g>
				<g>
					<ellipse class="st16" cx="831.4" cy="1053.4" rx="10.6" ry="10"/>
				</g>
				<g>
					<g>
						<ellipse class="st5" cx="997.7" cy="1188.9" rx="7.8" ry="7.4"/>
					</g>
					<g>
						<ellipse class="st5" cx="1040.1" cy="1191.3" rx="7.8" ry="7.4"/>
					</g>
					<g>
						<path class="st16" d="M1039.5,1192c-1.3-1-1.6-3-0.5-4.3c12.2-15.5,19.6-46.6,18.8-65.8c-0.6-15.4-13.4-22.9-40.1-23.8
							c-10.4-0.3-18.2,2.2-23.1,7.5c-6,6.5-8.2,17.8-6.5,33.4c1.6,14.9,6.1,31.3,12.6,46.3c0.7,1.5,0,3.3-1.6,4
							c-1.5,0.7-3.3,0-4-1.6c-6.7-15.5-11.3-32.6-13-48c-1.9-17.8,0.7-30.3,8.1-38.3c6.1-6.6,15.5-9.8,27.7-9.4
							c11.1,0.3,44.9,1.4,46.1,29.6c0.8,20.2-6.7,52.6-20.1,69.8c-0.6,0.8-1.5,1.2-2.4,1.2C1040.7,1192.7,1040.1,1192.5,1039.5,1192
							z"/>
					</g>
					<g>
						<path class="st16" d="M1058.7,1124.4c-24.2-2.4-48.8-4.3-73.2-5.9c-1.7-0.1-3-1.6-2.9-3.2c0.1-1.7,1.6-3,3.2-2.9
							c24.4,1.6,49.1,3.6,73.4,5.9c1.7,0.2,2.9,1.7,2.7,3.3c-0.2,1.6-1.5,2.8-3,2.8C1058.9,1124.4,1058.8,1124.4,1058.7,1124.4z"/>
					</g>
				</g>
			</g>
			<g>
				<path class="st20" d="M870.5,1476.9c-0.3-30.8-0.6-61.6-0.9-93c-0.4-50.8-0.9-103.3-1.7-156.9c0-1.4-1.2-2.4-2.5-2.4
					c-1.4,0-2.5,1.2-2.4,2.5c0.8,53.6,1.3,106.1,1.7,156.9c0.3,31.3,0.5,62.2,0.9,92.9H870.5z"/>
			</g>
		</g>
	</g>
</g>
</svg>
